<svg width="208" height="208" viewBox="0 0 208 208" fill="none" xmlns="http://www.w3.org/2000/svg">
<g filter="url(#filter0_d_183_618)">
<rect x="4" width="200" height="200" rx="16" fill="white"/>
<path fill-rule="evenodd" clip-rule="evenodd" d="M144 60V140H64V60H144ZM97.6717 80H89.8806L75.0888 120H82.1177L84.9103 112.18H102.617L105.35 120H112.802L97.6717 80ZM125.279 80H118.279V120H125.279V80ZM93.7171 86.711L100.69 106.667H86.8547L93.7171 86.711ZM150.667 120H164V133.333H150.667V120ZM70.6667 146.667H84V160H70.6667V146.667ZM97.3333 146.667H110.667V160H97.3333V146.667ZM70.6667 40H84V53.3333H70.6667V40ZM124 146.667H137.333V160H124V146.667ZM97.3333 40H110.667V53.3333H97.3333V40ZM124 40H137.333V53.3333H124V40ZM150.667 93.3333H164V106.667H150.667V93.3333ZM44 120H57.3333V133.333H44V120ZM150.667 66.6667H164V80H150.667V66.6667ZM44 93.3333H57.3333V106.667H44V93.3333ZM44 66.6667H57.3333V80H44V66.6667Z" fill="#BD76F6"/>
</g>
<defs>
<filter id="filter0_d_183_618" x="0" y="0" width="208" height="208" filterUnits="userSpaceOnUse" color-interpolation-filters="sRGB">
<feFlood flood-opacity="0" result="BackgroundImageFix"/>
<feColorMatrix in="SourceAlpha" type="matrix" values="0 0 0 0 0 0 0 0 0 0 0 0 0 0 0 0 0 0 127 0" result="hardAlpha"/>
<feOffset dy="4"/>
<feGaussianBlur stdDeviation="2"/>
<feComposite in2="hardAlpha" operator="out"/>
<feColorMatrix type="matrix" values="0 0 0 0 0 0 0 0 0 0 0 0 0 0 0 0 0 0 0.25 0"/>
<feBlend mode="normal" in2="BackgroundImageFix" result="effect1_dropShadow_183_618"/>
<feBlend mode="normal" in="SourceGraphic" in2="effect1_dropShadow_183_618" result="shape"/>
</filter>
</defs>
</svg>
