<svg width="208" height="208" viewBox="0 0 208 208" fill="none" xmlns="http://www.w3.org/2000/svg">
<g filter="url(#filter0_d_183_561)">
<rect x="4" width="200" height="200" rx="16" fill="white"/>
<path d="M86.336 113.355C90.783 113.355 94.388 116.96 94.388 121.407V155.948C94.388 160.395 90.783 163.999 86.336 163.999C81.8897 163.999 78.2847 160.395 78.2847 155.948V121.407C78.2847 116.961 81.8897 113.356 86.336 113.356V113.355Z" fill="#BD76F6"/>
<path d="M67.9541 71.8281C67.9275 72.1334 67.9043 72.4422 67.9043 72.7543V125.086C67.9043 130.714 72.3591 135.248 77.8893 135.248H131.108C136.638 135.248 141.093 130.714 141.093 125.086V72.7543C141.093 72.4422 141.082 72.1323 141.056 71.8281H67.9541Z" fill="#BD76F6"/>
<path d="M122.662 113.355C127.109 113.355 130.714 116.96 130.714 121.407V155.948C130.714 160.395 127.109 163.999 122.662 163.999C118.216 163.999 114.611 160.395 114.611 155.948V121.407C114.611 116.961 118.216 113.356 122.662 113.356V113.355ZM54.9675 76.4853C59.4138 76.4853 63.0188 80.0903 63.0188 84.5372V119.078C63.0188 123.525 59.4138 127.13 54.9675 127.13C50.5205 127.13 46.9155 123.525 46.9155 119.078V84.5378C46.915 80.0909 50.52 76.4853 54.9675 76.4853ZM154.032 76.4853C158.478 76.4853 162.083 80.0903 162.083 84.5372V119.078C162.083 123.525 158.478 127.13 154.032 127.13C149.585 127.13 145.98 123.525 145.98 119.078V84.5378C145.98 80.0909 149.585 76.4853 154.032 76.4853ZM68.1895 68.3904C68.4134 52.3159 82.4433 39.1363 100.453 37.3994H108.545C126.555 39.1369 140.584 52.3171 140.808 68.3904H68.1895Z" fill="#BD76F6"/>
<path d="M70.9897 35.8477L79.4833 50.5595M138.009 35.8477L129.515 50.5595" stroke="#BD76F6" stroke-width="1.69622" stroke-linecap="round" stroke-linejoin="round"/>
<path d="M93.6823 53.9852C93.6891 56.2322 91.8295 58.059 89.5283 58.0652C87.2282 58.0709 85.3579 56.2548 85.3511 54.0079V53.9852C85.3449 51.7378 87.2045 49.9115 89.5051 49.9053C91.8052 49.8991 93.6755 51.7146 93.6823 53.9626V53.9852ZM124.777 53.9852C124.784 56.2322 122.925 58.059 120.623 58.0652C118.323 58.0709 116.453 56.2548 116.446 54.0079V53.9852C116.44 51.7378 118.3 49.9115 120.6 49.9053C122.9 49.8991 124.771 51.7146 124.777 53.9626V53.9852Z" fill="white"/>
</g>
<defs>
<filter id="filter0_d_183_561" x="0" y="0" width="208" height="208" filterUnits="userSpaceOnUse" color-interpolation-filters="sRGB">
<feFlood flood-opacity="0" result="BackgroundImageFix"/>
<feColorMatrix in="SourceAlpha" type="matrix" values="0 0 0 0 0 0 0 0 0 0 0 0 0 0 0 0 0 0 127 0" result="hardAlpha"/>
<feOffset dy="4"/>
<feGaussianBlur stdDeviation="2"/>
<feComposite in2="hardAlpha" operator="out"/>
<feColorMatrix type="matrix" values="0 0 0 0 0 0 0 0 0 0 0 0 0 0 0 0 0 0 0.25 0"/>
<feBlend mode="normal" in2="BackgroundImageFix" result="effect1_dropShadow_183_561"/>
<feBlend mode="normal" in="SourceGraphic" in2="effect1_dropShadow_183_561" result="shape"/>
</filter>
</defs>
</svg>
