<svg width="208" height="208" viewBox="0 0 208 208" fill="none" xmlns="http://www.w3.org/2000/svg">
<g filter="url(#filter0_d_183_554)">
<rect x="4" width="200" height="200" rx="16" fill="white"/>
<g clip-path="url(#clip0_183_554)">
<path d="M74.289 89.4177C74.289 91.0845 74.4692 92.436 74.7845 93.4271C75.1449 94.4182 75.5954 95.4994 76.2261 96.6707C76.4514 97.0311 76.5415 97.3915 76.5415 97.7069C76.5415 98.1574 76.2712 98.6079 75.6855 99.0584L72.8474 100.95C72.4419 101.221 72.0365 101.356 71.6761 101.356C71.2256 101.356 70.7751 101.131 70.3246 100.725C69.6939 100.095 69.1533 99.4188 68.7028 98.653C68.2523 97.8871 67.8018 97.0311 67.3062 95.995C63.7923 100.14 59.3774 102.212 54.0615 102.212C50.2773 102.212 47.2589 101.131 45.0515 98.9683C42.844 96.8059 41.7178 93.9227 41.7178 90.3187C41.7178 86.4894 43.0693 83.381 45.8173 81.0384C48.5654 78.6958 52.2144 77.5245 56.8546 77.5245C58.3863 77.5245 59.963 77.6596 61.6299 77.8849C63.2967 78.1101 65.0086 78.4705 66.8107 78.876V75.5873C66.8107 72.1635 66.0899 69.7759 64.6933 68.3793C63.2517 66.9828 60.819 66.307 57.3501 66.307C55.7734 66.307 54.1516 66.4872 52.4847 66.8927C50.8179 67.2981 49.1961 67.7937 47.6193 68.4244C46.8985 68.7397 46.3579 68.9199 46.0426 69.01C45.7272 69.1001 45.502 69.1452 45.3218 69.1452C44.6911 69.1452 44.3757 68.6947 44.3757 67.7486V65.5412C44.3757 64.8204 44.4658 64.2798 44.6911 63.9644C44.9163 63.6491 45.3218 63.3337 45.9525 63.0184C47.5292 62.2075 49.4213 61.5317 51.6288 60.9911C53.8362 60.4055 56.1788 60.1352 58.6566 60.1352C64.0176 60.1352 67.9369 61.3515 70.4597 63.7842C72.9375 66.2169 74.1989 69.911 74.1989 74.8665V89.4177H74.289ZM55.9986 96.2653C57.4853 96.2653 59.017 95.995 60.6388 95.4544C62.2606 94.9138 63.7022 93.9227 64.9186 92.5712C65.6394 91.7152 66.18 90.7692 66.4503 89.688C66.7206 88.6068 66.9008 87.3003 66.9008 85.7686V83.8765C65.5943 83.5612 64.1978 83.2909 62.7561 83.1107C61.3145 82.9305 59.918 82.8404 58.5214 82.8404C55.5031 82.8404 53.2956 83.426 51.809 84.6424C50.3223 85.8587 49.6015 87.5706 49.6015 89.8231C49.6015 91.9405 50.1421 93.5172 51.2684 94.5984C52.3496 95.7247 53.9263 96.2653 55.9986 96.2653ZM92.1738 101.176C91.3629 101.176 90.8223 101.041 90.4619 100.725C90.1015 100.455 89.7862 99.8242 89.5159 98.9683L78.9742 64.1446C78.7039 63.2436 78.5687 62.658 78.5687 62.3426C78.5687 61.6218 78.9291 61.2164 79.6499 61.2164H84.0648C84.9208 61.2164 85.5064 61.3515 85.8218 61.6669C86.1822 61.9372 86.4525 62.5679 86.7228 63.4238L94.2912 93.2469L101.319 63.4238C101.544 62.5228 101.815 61.9372 102.175 61.6669C102.535 61.3966 103.166 61.2164 103.977 61.2164H107.581C108.437 61.2164 109.023 61.3515 109.383 61.6669C109.743 61.9372 110.059 62.5679 110.239 63.4238L117.357 93.6073L125.15 63.4238C125.421 62.5228 125.736 61.9372 126.051 61.6669C126.412 61.3966 126.998 61.2164 127.808 61.2164H131.998C132.719 61.2164 133.124 61.5768 133.124 62.3426C133.124 62.5679 133.079 62.7931 133.034 63.0634C132.989 63.3337 132.899 63.6941 132.719 64.1897L121.862 99.0133C121.592 99.9143 121.276 100.5 120.916 100.77C120.555 101.041 119.97 101.221 119.204 101.221H115.33C114.474 101.221 113.888 101.086 113.528 100.77C113.167 100.455 112.852 99.8693 112.672 98.9683L105.644 69.9561L98.7061 98.9683C98.4809 99.8693 98.2105 100.455 97.8501 100.77C97.4897 101.086 96.859 101.221 96.0481 101.221H92.1738V101.176ZM150.063 102.347C147.721 102.347 145.378 102.077 143.125 101.536C140.873 100.996 139.116 100.41 137.945 99.7341C137.224 99.3287 136.728 98.8782 136.548 98.4727C136.368 98.0673 136.278 97.6168 136.278 97.2113V94.9588C136.278 94.0128 136.638 93.5623 137.314 93.5623C137.584 93.5623 137.855 93.6073 138.125 93.6974C138.395 93.7875 138.801 93.9677 139.251 94.1479C140.783 94.8237 142.45 95.3643 144.207 95.7247C146.009 96.0851 147.766 96.2653 149.568 96.2653C152.406 96.2653 154.613 95.7697 156.145 94.7786C157.677 93.7875 158.488 92.3459 158.488 90.4989C158.488 89.2375 158.082 88.2013 157.271 87.3454C156.46 86.4894 154.929 85.7236 152.721 85.0028L146.189 82.9755C142.9 81.9394 140.467 80.4077 138.981 78.3804C137.494 76.3982 136.728 74.1908 136.728 71.8482C136.728 69.9561 137.134 68.2892 137.945 66.8476C138.756 65.406 139.837 64.1446 141.188 63.1535C142.54 62.1174 144.071 61.3515 145.873 60.8109C147.675 60.2703 149.568 60 151.55 60C152.541 60 153.577 60.0451 154.568 60.1802C155.604 60.3154 156.55 60.4956 157.496 60.6758C158.397 60.901 159.253 61.1263 160.064 61.3966C160.875 61.6669 161.506 61.9372 161.956 62.2075C162.587 62.5679 163.038 62.9283 163.308 63.3337C163.578 63.6941 163.713 64.1897 163.713 64.8204V66.9377C163.713 67.8838 163.353 68.3793 162.677 68.3793C162.317 68.3793 161.731 68.1991 160.965 67.8387C158.397 66.6674 155.514 66.0818 152.316 66.0818C149.748 66.0818 147.721 66.4872 146.324 67.3432C144.927 68.1991 144.207 69.5056 144.207 71.3526C144.207 72.614 144.657 73.6952 145.558 74.5512C146.459 75.4071 148.126 76.2631 150.514 77.0289L156.911 79.0562C160.154 80.0923 162.497 81.5339 163.894 83.381C165.29 85.228 165.966 87.3454 165.966 89.688C165.966 91.6251 165.56 93.3821 164.795 94.9138C163.984 96.4455 162.902 97.797 161.506 98.8782C160.109 100.004 158.442 100.815 156.505 101.401C154.478 102.077 152.361 102.347 150.063 102.347Z" fill="#BD76F6"/>
<path fill-rule="evenodd" clip-rule="evenodd" d="M158.578 124.242C143.756 135.189 122.222 141 103.707 141C77.7579 141 54.3769 131.405 36.7173 115.457C35.3207 114.196 36.5821 112.484 38.249 113.475C57.3502 124.557 80.9114 131.269 105.283 131.269C121.727 131.269 139.792 127.846 156.415 120.818C158.938 119.737 161.01 122.44 158.578 124.242Z" fill="#BD76F6"/>
<path fill-rule="evenodd" clip-rule="evenodd" d="M164.749 117.214C162.857 114.781 152.225 116.043 147.405 116.628C145.963 116.809 145.738 115.547 147.045 114.601C155.514 108.654 169.434 110.366 171.056 112.349C172.678 114.376 170.606 128.296 162.677 134.964C161.461 136 160.289 135.459 160.83 134.108C162.632 129.648 166.641 119.647 164.749 117.214Z" fill="#BD76F6"/>
</g>
</g>
<defs>
<filter id="filter0_d_183_554" x="0" y="0" width="208" height="208" filterUnits="userSpaceOnUse" color-interpolation-filters="sRGB">
<feFlood flood-opacity="0" result="BackgroundImageFix"/>
<feColorMatrix in="SourceAlpha" type="matrix" values="0 0 0 0 0 0 0 0 0 0 0 0 0 0 0 0 0 0 127 0" result="hardAlpha"/>
<feOffset dy="4"/>
<feGaussianBlur stdDeviation="2"/>
<feComposite in2="hardAlpha" operator="out"/>
<feColorMatrix type="matrix" values="0 0 0 0 0 0 0 0 0 0 0 0 0 0 0 0 0 0 0.25 0"/>
<feBlend mode="normal" in2="BackgroundImageFix" result="effect1_dropShadow_183_554"/>
<feBlend mode="normal" in="SourceGraphic" in2="effect1_dropShadow_183_554" result="shape"/>
</filter>
<clipPath id="clip0_183_554">
<rect width="200" height="81" fill="white" transform="translate(4 60)"/>
</clipPath>
</defs>
</svg>
