<svg width="208" height="208" viewBox="0 0 208 208" fill="none" xmlns="http://www.w3.org/2000/svg">
<g filter="url(#filter0_d_183_626)">
<g clip-path="url(#clip0_183_626)">
<rect x="4" width="200" height="200" rx="16" fill="white"/>
<mask id="mask0_183_626" style="mask-type:luminance" maskUnits="userSpaceOnUse" x="30" y="24" width="148" height="152">
<path d="M30.2051 24.2715H177.279V175.796H30.2051V24.2715Z" fill="white"/>
</mask>
<g mask="url(#mask0_183_626)">
<path d="M30.4274 101.506C30.0142 110.349 36.2874 118.78 48.0527 125.374C47.4409 127.639 46.9511 129.887 46.6154 132.137C43.3105 132.642 40.7544 135.472 40.7544 138.914C40.7544 142.541 43.5856 145.479 47.1355 145.754C49.0324 152.852 53.2394 157.459 59.7273 159.34C61.9306 159.982 64.3173 160.289 66.8724 160.289C71.1106 160.289 75.7762 159.447 80.6575 157.947C85.6961 167.094 93.3995 175.726 103.853 175.726C106.546 175.726 109.192 175.084 111.778 173.875C113.002 175.007 114.639 175.726 116.444 175.726C120.239 175.726 123.329 172.636 123.329 168.841C123.329 167.479 122.916 166.209 122.228 165.139C123.941 162.981 125.502 160.625 126.926 158.101C131.271 159.325 135.554 160.029 139.671 160.029C139.777 160.029 139.869 160.029 139.976 160.014C141.016 162.492 143.464 164.221 146.311 164.221C150.104 164.221 153.196 161.146 153.196 157.336C153.196 157.014 153.149 156.709 153.104 156.402C157.954 153.22 160.846 148.522 161.641 142.342C162.299 137.247 161.519 131.448 159.652 125.359C171.678 118.642 177.997 109.952 177.201 100.802C176.467 92.4938 170.209 84.9819 159.668 79.1219C160.831 74.9754 161.503 70.8752 161.549 66.9282C164.242 65.9949 166.186 63.455 166.186 60.4564C166.186 56.6616 163.11 53.5704 159.301 53.5704C158.979 53.5704 158.673 53.6168 158.351 53.6631C155.46 48.8735 151.146 45.875 145.484 44.7734C140.084 43.7332 133.703 44.5284 127.001 46.5483C122.596 38.3933 116.858 32.1816 109.591 29.8251C108.963 26.6733 106.178 24.2715 102.843 24.2715C99.2172 24.2715 96.2791 27.0866 96.004 30.6354C89.7156 33.512 84.6206 39.2803 80.6273 46.5483C69.244 43.1365 58.8091 43.4883 51.9241 50.3582C44.6873 57.6101 44.4887 68.1206 47.9156 79.2751C36.9607 85.4102 30.8255 93.1369 30.4274 101.506ZM60.5991 156.402C55.3056 154.872 51.8324 151.124 50.1804 145.31C52.7193 144.285 54.5255 141.822 54.5255 138.914C54.5255 135.824 52.4754 133.239 49.6754 132.366C49.9506 130.545 50.3477 128.71 50.8527 126.842C57.0644 129.949 64.2558 132.412 72.0127 134.187C73.8038 142.02 76.251 149.181 79.2656 155.286C72.2576 157.351 65.801 157.932 60.5991 156.402ZM68.7693 111.022C66.5972 108.177 64.5008 105.209 62.5273 102.179C64.4705 99.2256 66.566 96.3037 68.7693 93.4584C68.4175 99.3637 68.4326 105.254 68.7693 111.022ZM60.6909 99.272C56.9122 93.1217 53.7444 86.8173 51.6489 80.7587C52.8423 80.1469 54.0971 79.5654 55.3973 78.9989C56.6522 80.5602 58.5642 81.6003 60.7372 81.6003C64.531 81.6003 67.6223 78.5101 67.6223 74.7153V74.6689C68.7854 74.3323 69.9939 74.0269 71.2638 73.7205C70.2841 78.5706 69.5957 83.4055 69.1825 87.9804C66.1991 91.5917 63.3225 95.3704 60.6909 99.272ZM60.7675 104.933C63.4757 109.018 66.3523 112.874 69.1825 116.408C69.6572 121.35 70.3607 126.185 71.2941 130.821C64.0573 129.077 57.4162 126.767 51.7255 123.874C53.7756 117.587 56.9122 111.175 60.7675 104.933ZM90.6943 70.6C99.2777 69.8501 108.106 69.835 116.689 70.5688C123.618 76.1506 129.492 81.8684 135.463 89.2201C136.314 97.8216 136.38 105.993 135.524 115.414C129.249 122.93 123.285 128.718 116.873 133.972C108.198 134.707 99.2928 134.692 90.6792 133.927C83.4454 127.894 77.6106 121.931 72.2123 115.367C71.4311 106.845 71.3707 97.9869 72.1357 89.2806C77.9957 82.2736 84.4211 75.8784 90.6943 70.6ZM72.7172 83.8802C73.1607 80.4987 73.7876 76.7966 74.6141 72.9716C78.1025 72.2217 81.6977 71.6251 85.3856 71.1503C81.2089 74.8988 76.894 79.1985 72.7172 83.8802ZM94.9023 67.2185C97.6559 65.122 100.578 63.0568 103.608 61.1136C106.637 63.0568 109.574 65.1069 112.359 67.2034C106.561 66.8818 100.701 66.897 94.9023 67.2185ZM122.228 71.1503C125.916 71.6099 129.511 72.2066 133.014 72.9555C133.764 76.5517 134.361 80.1621 134.835 83.7119C130.894 79.2166 127.146 75.4299 122.228 71.1503ZM134.943 120.784C134.483 124.395 133.886 128.021 133.137 131.617C129.603 132.366 125.961 132.962 122.259 133.422C127.138 129.16 130.671 125.598 134.943 120.784ZM112.497 137.415C109.621 139.587 106.668 141.654 103.669 143.566C100.701 141.622 97.8091 139.542 95.0243 137.4C100.919 137.768 106.62 137.761 112.497 137.415ZM85.309 133.345C81.6675 132.887 78.1025 132.29 74.6605 131.57C73.9106 128.067 73.2827 124.456 72.809 120.754C76.7509 125.295 80.2181 128.832 85.309 133.345ZM75.4094 134.922C79.9994 135.839 84.7577 136.543 89.6078 137.002C93.1274 139.894 96.906 142.724 100.823 145.34C94.5808 149.12 88.2612 152.226 82.249 154.307C79.4642 148.722 77.1692 142.142 75.4094 134.922ZM120.024 162.982C118.984 162.339 117.761 161.956 116.444 161.956C112.651 161.956 109.559 165.047 109.559 168.842C109.559 169.714 109.743 170.539 110.034 171.304C108.014 172.192 105.934 172.667 103.853 172.667C94.8489 172.667 88.0213 164.853 83.641 156.954C90.144 154.643 96.9524 151.247 103.593 147.162C110.186 151.339 117.103 154.872 123.941 157.167C122.748 159.249 121.433 161.191 120.024 162.982ZM125.441 154.459C119.107 152.394 112.651 149.181 106.454 145.356C110.401 142.77 114.272 139.97 117.959 137.017C122.856 136.559 127.706 135.854 132.403 134.906C130.734 141.867 128.455 148.584 125.441 154.459ZM158.611 141.944C157.954 146.947 155.736 150.802 152.002 153.465C150.748 151.659 148.666 150.451 146.311 150.451C142.654 150.451 139.67 153.342 139.471 156.954C135.891 156.939 132.173 156.357 128.394 155.332C131.592 148.936 133.979 141.669 135.677 134.172C137.344 133.789 138.982 133.376 140.604 132.932C141.843 134.769 143.939 135.977 146.311 135.977C150.222 135.977 153.492 132.659 153.149 128.556C154.434 127.99 155.689 127.409 156.883 126.812C158.504 132.289 159.193 137.461 158.611 141.944ZM139.533 130.056C138.492 130.347 137.451 130.622 136.396 130.867C137.344 126.109 138.018 121.32 138.476 116.637C141.399 113.072 144.261 109.263 146.907 105.3C150.686 111.512 153.823 117.847 155.934 123.89C154.756 124.487 153.501 125.053 152.216 125.619C151.023 123.584 148.835 122.207 146.311 122.207C142.282 122.207 138.886 125.747 139.533 130.056ZM138.874 93.534C141.078 96.4257 143.174 99.4252 145.132 102.47C143.174 105.469 141.078 108.391 138.906 111.191C139.318 104.317 139.273 99.268 138.874 93.534ZM138.401 87.9189C137.911 83.2987 137.191 78.4788 136.212 73.6751C143.801 75.4954 150.472 77.8822 156.011 80.6973C153.961 87.0168 150.778 93.4423 146.968 99.5935C144.321 95.5689 141.429 91.6522 138.401 87.9189ZM174.141 101.077C174.83 108.834 169.276 116.377 158.688 122.406C156.378 115.857 152.92 109.049 148.789 102.424C152.936 95.8754 156.439 88.9903 158.734 82.1668C167.96 87.4603 173.529 94.0389 174.141 101.077ZM144.903 47.787C149.478 48.675 153.011 51.0153 155.444 54.7638C153.624 56.0035 152.415 58.0838 152.415 60.4554C152.415 63.975 155.078 66.8516 158.489 67.2487C158.428 70.6303 157.861 74.1337 156.913 77.6836C150.916 74.7153 143.724 72.2217 135.493 70.3702C133.795 62.9036 131.454 55.6205 128.394 49.2717C134.407 47.5118 140.098 46.8537 144.903 47.787ZM132.28 69.6818C127.674 68.7485 122.901 68.0752 118.021 67.6166C114.409 64.7088 110.554 61.8937 106.576 59.2772C112.773 55.5288 119.306 52.3004 125.579 50.1586C128.424 55.9884 130.628 62.7202 132.28 69.6818ZM96.4777 33.7882C97.5178 36.2817 99.9661 38.0415 102.843 38.0415C105.994 38.0415 108.641 35.8987 109.437 32.9919C115.481 35.2416 120.346 40.5351 124.186 47.4816C117.363 49.8532 110.324 53.3718 103.731 57.4418C97.1207 53.3255 90.2508 49.8381 83.6107 47.5118C87.0074 41.4372 91.2456 36.45 96.4777 33.7882ZM82.1875 50.2352C88.3076 52.3932 94.6725 55.6054 100.762 59.3235C96.7226 61.9703 92.9127 64.8015 89.4707 67.6317C84.6358 68.0903 79.9077 68.7787 75.364 69.6818C76.9706 63.0568 79.2193 56.2333 82.1875 50.2352ZM54.0971 52.5302C60.0639 46.5483 69.1976 46.3336 79.189 49.2868C76.0524 55.682 73.6657 62.9953 71.9825 70.4005C70.1622 70.8137 68.479 71.2421 66.9026 71.6855C65.7707 69.4067 63.4455 67.8303 60.7372 67.8303C56.9425 67.8303 53.8522 70.9054 53.8522 74.7153C53.8522 75.2354 53.9288 75.7565 54.0356 76.2453C52.8876 76.7503 51.7709 77.2704 50.7005 77.8066C47.7473 67.6771 48.0991 58.5122 54.0971 52.5302ZM48.9104 82.2434C51.2972 88.8684 54.846 95.6455 58.8857 102.026C54.7089 108.605 51.2357 115.475 48.9709 122.375C38.6287 116.439 33.1356 109.125 33.4874 101.659C33.8089 94.6054 39.3323 87.7667 48.9104 82.2434Z" fill="#BD76F6"/>
</g>
<path d="M134.733 38.7441C133.711 38.858 132.671 39.0052 131.614 39.1876L132.134 42.2033C133.129 42.0309 134.108 41.8918 135.071 41.786L134.733 38.7441Z" fill="#BD76F6"/>
<path d="M141.064 38.4836C140.03 38.4483 138.969 38.4544 137.888 38.5007L138.019 41.5577C139.02 41.5144 140.003 41.5104 140.962 41.5416L141.064 38.4836Z" fill="#BD76F6"/>
<path d="M150.518 40.1367L149.528 43.0324C150.449 43.3469 151.343 43.7138 152.186 44.123L153.523 41.3694C152.566 40.9058 151.556 40.4905 150.518 40.1367Z" fill="#BD76F6"/>
<path d="M147.41 39.2658C146.392 39.04 145.328 38.8576 144.245 38.7266L143.878 41.7644C144.861 41.8833 145.824 42.0486 146.743 42.2532L147.41 39.2658Z" fill="#BD76F6"/>
<path d="M158.949 44.9551C158.132 44.2404 157.258 43.5752 156.352 42.9775L154.667 45.5316C155.459 46.0537 156.222 46.6352 156.935 47.2581L158.949 44.9551Z" fill="#BD76F6"/>
<path d="M64.8193 166.002C65.8514 166.087 66.9208 166.13 68.0003 166.13V163.07C67.0045 163.07 66.0187 163.031 65.0703 162.952L64.8193 166.002Z" fill="#BD76F6"/>
<path d="M58.5049 164.868C59.5138 165.159 60.5701 165.403 61.6425 165.593L62.1777 162.58C61.2091 162.409 60.2586 162.189 59.3535 161.928L58.5049 164.868Z" fill="#BD76F6"/>
<path d="M47.6025 158.556C48.3091 159.259 49.059 159.921 49.833 160.523L51.7128 158.107C51.0355 157.582 50.3793 157.004 49.7625 156.388L47.6025 158.556Z" fill="#BD76F6"/>
<path d="M55.454 163.793L56.6373 160.972C55.7513 160.599 54.8876 160.17 54.0732 159.698L52.5371 162.344C53.4654 162.883 54.4451 163.37 55.454 163.793Z" fill="#BD76F6"/>
<path d="M40.3403 70.5581C40.4401 71.5831 40.5701 72.6243 40.7344 73.6796L43.7592 73.2089C43.6039 72.2121 43.48 71.2283 43.3852 70.2607L40.3403 70.5581Z" fill="#BD76F6"/>
<path d="M42.04 54.7907L44.9085 55.8551C45.2472 54.9419 45.6373 54.062 46.0697 53.2385L43.3584 51.8174C42.8675 52.7557 42.422 53.7566 42.04 54.7907Z" fill="#BD76F6"/>
<path d="M49.3573 48.6064L47.1349 46.5039C46.389 47.2921 45.6916 48.1428 45.0586 49.0317L47.5542 50.8036C48.1025 50.0296 48.7113 49.2908 49.3573 48.6064Z" fill="#BD76F6"/>
<path d="M40.4888 61.0376L43.5185 61.4649C43.6556 60.4862 43.8401 59.5257 44.0638 58.6135L41.0935 57.8828C40.8446 58.8958 40.641 59.9571 40.4888 61.0376Z" fill="#BD76F6"/>
<path d="M40.1328 66.2809C40.1338 66.6478 40.1389 67.0187 40.1479 67.3916L43.2079 67.3161C43.1989 66.9633 43.1948 66.6145 43.1928 66.2739C43.1928 65.6318 43.209 64.9969 43.2402 64.372L40.1832 64.2188C40.1489 64.894 40.1328 65.5794 40.1328 66.2809Z" fill="#BD76F6"/>
<path d="M167.709 138.191C167.709 137.636 167.699 137.073 167.675 136.505L164.618 136.63C164.639 137.157 164.649 137.677 164.649 138.191C164.649 138.656 164.64 139.114 164.624 139.569L167.681 139.684C167.7 139.192 167.709 138.694 167.709 138.191Z" fill="#BD76F6"/>
<path d="M167.439 133.351C167.328 132.328 167.182 131.288 167.002 130.229L163.986 130.743C164.154 131.738 164.292 132.718 164.397 133.681L167.439 133.351Z" fill="#BD76F6"/>
<path d="M165.97 149.131L163.083 148.118C162.764 149.03 162.388 149.919 161.97 150.765L164.71 152.125C165.185 151.168 165.609 150.161 165.97 149.131Z" fill="#BD76F6"/>
<path d="M158.791 155.488L161.077 157.522C161.799 156.71 162.472 155.843 163.078 154.943L160.537 153.235C160.01 154.022 159.421 154.778 158.791 155.488Z" fill="#BD76F6"/>
<path d="M167.424 142.866L164.388 142.483C164.265 143.456 164.094 144.419 163.883 145.344L166.865 146.029C167.101 145.004 167.288 143.941 167.424 142.866Z" fill="#BD76F6"/>
<path d="M123.796 83.7176C123.796 83.9373 123.766 84.157 123.705 84.3758C123.642 84.5945 123.55 84.8122 123.427 85.0279C123.304 85.2436 123.152 85.4562 122.97 85.6669C122.787 85.8775 122.576 86.0842 122.335 86.2867C122.094 86.4903 121.825 86.6889 121.528 86.8824C121.232 87.0769 120.91 87.2654 120.56 87.4479C120.21 87.6313 119.836 87.8077 119.437 87.977C119.038 88.1473 118.616 88.3096 118.171 88.4658C117.726 88.6211 117.261 88.7682 116.774 88.9083C116.288 89.0474 115.783 89.1784 115.26 89.3004C114.737 89.4224 114.198 89.5352 113.644 89.6391C113.089 89.7429 112.521 89.8366 111.939 89.9213C111.359 90.0049 110.767 90.0785 110.165 90.143C109.563 90.2065 108.954 90.2599 108.336 90.3033C107.719 90.3456 107.098 90.3778 106.472 90.4C105.845 90.4212 105.218 90.4323 104.59 90.4323C103.961 90.4323 103.333 90.4212 102.707 90.4C102.081 90.3778 101.459 90.3456 100.842 90.3033C100.225 90.2599 99.6155 90.2065 99.0138 90.143C98.4121 90.0785 97.8204 90.0049 97.2389 89.9213C96.6573 89.8366 96.0899 89.7429 95.5345 89.6391C94.9802 89.5352 94.4409 89.4224 93.9178 89.3004C93.3947 89.1784 92.8908 89.0474 92.4039 88.9083C91.9181 88.7682 91.4525 88.6211 91.008 88.4658C90.5625 88.3096 90.1412 88.1473 89.7421 87.977C89.3429 87.8077 88.968 87.6313 88.6192 87.4479C88.2695 87.2654 87.946 87.0769 87.6496 86.8824C87.3533 86.6889 87.0842 86.4903 86.8443 86.2867C86.6034 86.0842 86.3918 85.8775 86.2093 85.6669C86.0259 85.4562 85.8737 85.2436 85.7507 85.0279C85.6278 84.8122 85.536 84.5945 85.4746 84.3758C85.4131 84.157 85.3818 83.9373 85.3818 83.7176C85.3818 83.4979 85.4131 83.2781 85.4746 83.0594C85.536 82.8407 85.6278 82.624 85.7507 82.4083C85.8737 82.1926 86.0259 81.9789 86.2093 81.7693C86.3918 81.5586 86.6034 81.352 86.8443 81.1484C87.0842 80.9458 87.3533 80.7473 87.6496 80.5528C87.946 80.3592 88.2695 80.1708 88.6192 79.9873C88.968 79.8049 89.3429 79.6285 89.7421 79.4582C90.1412 79.2888 90.5625 79.1256 91.008 78.9703C91.4525 78.8151 91.9181 78.667 92.4039 78.5279C92.8908 78.3888 93.3947 78.2577 93.9178 78.1358C94.4409 78.0128 94.9802 77.8999 95.5345 77.7971C96.0899 77.6933 96.6573 77.5996 97.2389 77.5149C97.8204 77.4313 98.4121 77.3567 99.0138 77.2932C99.6155 77.2287 100.225 77.1763 100.842 77.1329C101.459 77.0896 102.081 77.0573 102.707 77.0362C103.333 77.015 103.961 77.0039 104.59 77.0039C105.218 77.0039 105.845 77.015 106.472 77.0362C107.098 77.0573 107.719 77.0896 108.336 77.1329C108.954 77.1763 109.563 77.2297 110.165 77.2932C110.767 77.3567 111.359 77.4313 111.939 77.5149C112.521 77.5996 113.089 77.6933 113.644 77.7971C114.198 77.8999 114.737 78.0128 115.26 78.1358C115.783 78.2577 116.288 78.3888 116.774 78.5279C117.261 78.667 117.726 78.8151 118.171 78.9703C118.616 79.1256 119.038 79.2888 119.437 79.4582C119.836 79.6285 120.21 79.8049 120.56 79.9873C120.91 80.1708 121.232 80.3592 121.528 80.5528C121.825 80.7473 122.094 80.9458 122.335 81.1484C122.576 81.352 122.787 81.5586 122.97 81.7693C123.152 81.9789 123.304 82.1926 123.427 82.4083C123.55 82.624 123.642 82.8407 123.705 83.0594C123.766 83.2781 123.796 83.4979 123.796 83.7176Z" fill="#BD76F6"/>
<path d="M104.59 123.409C115.197 123.409 123.796 120.402 123.796 116.694V103.266C123.796 106.974 115.197 109.98 104.59 109.98C93.9813 109.98 85.3818 106.974 85.3818 103.266V116.694C85.3818 120.402 93.9813 123.409 104.59 123.409ZM112.781 114.323H115.028V117.383H112.781V114.323ZM106.707 114.323H108.955V117.383H106.707V114.323ZM100.224 114.323H102.47V117.383H100.224V114.323ZM94.1506 114.323H96.3983V117.383H94.1506V114.323Z" fill="#BD76F6"/>
<path d="M104.59 106.92C115.197 106.92 123.796 103.914 123.796 100.207V86.7783C123.796 90.4864 115.197 93.492 104.59 93.492C93.9813 93.492 85.3818 90.4864 85.3818 86.7783V100.207C85.3818 103.914 93.9813 106.92 104.59 106.92ZM112.781 97.8351H115.028V100.895H112.781V97.8351ZM106.707 97.8351H108.955V100.895H106.707V97.8351ZM100.224 97.8351H102.47V100.895H100.224V97.8351ZM94.1506 97.8351H96.3983V100.895H94.1506V97.8351Z" fill="#BD76F6"/>
</g>
</g>
<defs>
<filter id="filter0_d_183_626" x="0" y="0" width="208" height="208" filterUnits="userSpaceOnUse" color-interpolation-filters="sRGB">
<feFlood flood-opacity="0" result="BackgroundImageFix"/>
<feColorMatrix in="SourceAlpha" type="matrix" values="0 0 0 0 0 0 0 0 0 0 0 0 0 0 0 0 0 0 127 0" result="hardAlpha"/>
<feOffset dy="4"/>
<feGaussianBlur stdDeviation="2"/>
<feComposite in2="hardAlpha" operator="out"/>
<feColorMatrix type="matrix" values="0 0 0 0 0 0 0 0 0 0 0 0 0 0 0 0 0 0 0.25 0"/>
<feBlend mode="normal" in2="BackgroundImageFix" result="effect1_dropShadow_183_626"/>
<feBlend mode="normal" in="SourceGraphic" in2="effect1_dropShadow_183_626" result="shape"/>
</filter>
<clipPath id="clip0_183_626">
<rect x="4" width="200" height="200" rx="16" fill="white"/>
</clipPath>
</defs>
</svg>
