<svg width="208" height="208" viewBox="0 0 208 208" fill="none" xmlns="http://www.w3.org/2000/svg">
<g filter="url(#filter0_d_183_469)">
<g clip-path="url(#clip0_183_469)">
<rect x="4" width="200" height="200" rx="16" fill="white"/>
<mask id="mask0_183_469" style="mask-type:luminance" maskUnits="userSpaceOnUse" x="28" y="24" width="152" height="153">
<path d="M28.1558 24.6406H179.724V176.359H28.1558V24.6406Z" fill="white"/>
</mask>
<g mask="url(#mask0_183_469)">
<path d="M28.2407 77.7705V37.3644C28.2417 36.9511 28.2629 36.5389 28.3032 36.1277C28.3445 35.7154 28.405 35.3072 28.4867 34.9021C28.5673 34.4969 28.6681 34.0967 28.788 33.7006C28.909 33.3055 29.0481 32.9165 29.2063 32.5345C29.3645 32.1525 29.5419 31.7796 29.7365 31.4147C29.932 31.0508 30.1437 30.6971 30.3735 30.3534C30.6033 30.0097 30.8492 29.6781 31.1123 29.3586C31.3743 29.0391 31.6515 28.7327 31.9438 28.4404C32.2361 28.1481 32.5425 27.8709 32.862 27.6088C33.1815 27.3458 33.5131 27.0998 33.8568 26.87C34.2005 26.6402 34.5543 26.4276 34.9191 26.233C35.283 26.0375 35.6569 25.8611 36.0379 25.7029C36.4199 25.5446 36.809 25.4045 37.2041 25.2846C37.6002 25.1647 38.0003 25.0639 38.4055 24.9832C38.8107 24.9016 39.2199 24.8411 39.6311 24.7998C40.0423 24.7585 40.4546 24.7383 40.8678 24.7373H101.476C101.89 24.7383 102.303 24.7585 102.714 24.7998C103.125 24.8411 103.534 24.9016 103.939 24.9832C104.345 25.0639 104.745 25.1647 105.14 25.2846C105.536 25.4045 105.924 25.5446 106.306 25.7029C106.688 25.8611 107.061 26.0375 107.426 26.233C107.791 26.4276 108.145 26.6402 108.488 26.87C108.832 27.0998 109.164 27.3458 109.483 27.6088C109.803 27.8709 110.108 28.1481 110.4 28.4404C110.694 28.7327 110.971 29.0391 111.233 29.3586C111.495 29.6781 111.741 30.0097 111.971 30.3534C112.201 30.6971 112.413 31.0508 112.608 31.4157C112.803 31.7796 112.98 32.1525 113.139 32.5345C113.297 32.9165 113.436 33.3055 113.556 33.7006C113.677 34.0967 113.778 34.4969 113.859 34.9021C113.939 35.3072 114.001 35.7154 114.041 36.1277C114.082 36.5389 114.103 36.9511 114.103 37.3644V39.8902C114.103 40.0555 114.087 40.2198 114.055 40.3821C114.023 40.5453 113.974 40.7036 113.911 40.8558C113.847 41.009 113.77 41.1551 113.678 41.2932C113.585 41.4303 113.482 41.5583 113.364 41.6752C113.247 41.7931 113.119 41.898 112.982 41.9897C112.844 42.0814 112.697 42.16 112.544 42.2225C112.391 42.286 112.234 42.3344 112.071 42.3666C111.908 42.3989 111.744 42.415 111.579 42.415C111.412 42.415 111.248 42.3989 111.086 42.3666C110.923 42.3344 110.765 42.286 110.612 42.2225C110.459 42.16 110.313 42.0814 110.176 41.9897C110.038 41.898 109.91 41.7931 109.793 41.6752C109.675 41.5583 109.571 41.4303 109.478 41.2932C109.386 41.1551 109.309 41.009 109.245 40.8558C109.182 40.7036 109.133 40.5453 109.101 40.3821C109.069 40.2198 109.053 40.0555 109.053 39.8902V37.3644C109.053 37.1164 109.04 36.8695 109.016 36.6226C108.991 36.3756 108.954 36.1307 108.906 35.8868C108.857 35.6439 108.797 35.404 108.724 35.1661C108.653 34.9293 108.569 34.6954 108.474 34.4667C108.379 34.2379 108.273 34.0131 108.156 33.7944C108.039 33.5757 107.911 33.364 107.774 33.1574C107.636 32.9508 107.488 32.7522 107.33 32.5607C107.173 32.3692 107.007 32.1847 106.831 32.0094C106.656 31.834 106.473 31.6677 106.281 31.5105C106.089 31.3532 105.89 31.2061 105.683 31.068C105.478 30.9299 105.265 30.8029 105.046 30.685C104.828 30.5681 104.604 30.4622 104.375 30.3675C104.145 30.2727 103.913 30.1891 103.675 30.1165C103.438 30.0439 103.198 29.9835 102.954 29.9351C102.711 29.8867 102.466 29.8504 102.219 29.8252C101.972 29.801 101.724 29.7889 101.476 29.7879H40.8678C40.6199 29.7889 40.3729 29.801 40.126 29.8252C39.879 29.8504 39.6341 29.8867 39.3902 29.9351C39.1473 29.9835 38.9074 30.0439 38.6696 30.1165C38.4327 30.1891 38.1989 30.2727 37.9701 30.3675C37.7413 30.4622 37.5175 30.5681 37.2988 30.685C37.0801 30.8029 36.8674 30.9299 36.6608 31.068C36.4552 31.2061 36.2556 31.3532 36.0641 31.5105C35.8726 31.6677 35.6892 31.834 35.5138 32.0094C35.3384 32.1847 35.1711 32.3692 35.0139 32.5607C34.8566 32.7522 34.7095 32.9508 34.5714 33.1574C34.4333 33.364 34.3063 33.5757 34.1894 33.7944C34.0715 34.0131 33.9656 34.2379 33.8709 34.4667C33.7762 34.6954 33.6925 34.9293 33.6199 35.1661C33.5474 35.404 33.4879 35.6439 33.4385 35.8868C33.3901 36.1307 33.3538 36.3756 33.3297 36.6226C33.3045 36.8695 33.2924 37.1164 33.2924 37.3644V77.7705C33.2924 78.0184 33.3045 78.2653 33.3297 78.5123C33.3538 78.7592 33.3901 79.0041 33.4385 79.248C33.4879 79.491 33.5474 79.7308 33.6199 79.9687C33.6925 80.2056 33.7762 80.4394 33.8709 80.6682C33.9656 80.897 34.0715 81.1217 34.1894 81.3405C34.3063 81.5592 34.4333 81.7708 34.5714 81.9775C34.7095 82.1841 34.8566 82.3826 35.0139 82.5741C35.1711 82.7656 35.3384 82.9491 35.5138 83.1255C35.6892 83.3008 35.8726 83.4672 36.0641 83.6244C36.2556 83.7816 36.4552 83.9288 36.6608 84.0669C36.8674 84.2049 37.0801 84.3319 37.2988 84.4499C37.5175 84.5668 37.7413 84.6726 37.9701 84.7674C38.1989 84.8621 38.4327 84.9458 38.6696 85.0183C38.9074 85.0909 39.1473 85.1504 39.3902 85.1997C39.6341 85.2481 39.879 85.2844 40.126 85.3096C40.3729 85.3338 40.6199 85.3459 40.8678 85.3459H48.4443C48.7789 85.3459 49.1014 85.4104 49.4108 85.5384C49.7203 85.6664 49.9924 85.8498 50.2293 86.0867L64.336 100.192C64.4912 100.324 64.6696 100.407 64.8712 100.438C65.0727 100.471 65.2673 100.447 65.4557 100.369C65.6432 100.291 65.7974 100.169 65.9174 100.005C66.0373 99.8396 66.1058 99.6562 66.122 99.4526V87.8717C66.122 87.7054 66.1381 87.5421 66.1704 87.3788C66.2026 87.2166 66.25 87.0583 66.3135 86.9051C66.377 86.7519 66.4546 86.6068 66.5463 86.4687C66.639 86.3306 66.7439 86.2026 66.8608 86.0857C66.9777 85.9688 67.1057 85.864 67.2438 85.7712C67.3819 85.6795 67.527 85.6019 67.6802 85.5384C67.8334 85.4749 67.9916 85.4265 68.1539 85.3943C68.3172 85.362 68.4815 85.3459 68.6468 85.3459H86.3245C86.4908 85.3459 86.6541 85.363 86.8174 85.3953C86.9796 85.4275 87.1379 85.4749 87.2911 85.5384C87.4443 85.6019 87.5894 85.6795 87.7275 85.7722C87.8656 85.864 87.9926 85.9688 88.1105 86.0857C88.2274 86.2036 88.3323 86.3306 88.424 86.4687C88.5167 86.6068 88.5943 86.7519 88.6578 86.9051C88.7213 87.0583 88.7687 87.2166 88.8009 87.3788C88.8342 87.5421 88.8503 87.7064 88.8503 87.8717C88.8503 88.038 88.8342 88.2013 88.8009 88.3646C88.7687 88.5269 88.7213 88.6851 88.6578 88.8383C88.5943 88.9915 88.5167 89.1366 88.424 89.2747C88.3323 89.4128 88.2274 89.5398 88.1105 89.6577C87.9926 89.7746 87.8656 89.8795 87.7275 89.9712C87.5894 90.0639 87.4443 90.1415 87.2911 90.205C87.1379 90.2685 86.9796 90.3159 86.8174 90.3481C86.6541 90.3814 86.4908 90.3975 86.3245 90.3975H71.1726V99.4526C71.1726 99.7529 71.1504 100.051 71.1061 100.348C71.0627 100.644 70.9972 100.935 70.9095 101.222C70.8229 101.51 70.715 101.789 70.587 102.059C70.459 102.33 70.3119 102.59 70.1445 102.84C69.9782 103.089 69.7948 103.325 69.5932 103.547C69.3916 103.769 69.1749 103.975 68.9431 104.166C68.7113 104.356 68.4674 104.527 68.2104 104.682C67.9533 104.836 67.6862 104.971 67.4091 105.085C67.1319 105.2 66.8477 105.293 66.5574 105.367C66.2661 105.44 65.9718 105.491 65.6735 105.52C65.3751 105.549 65.0758 105.556 64.7764 105.542C64.4771 105.527 64.1807 105.491 63.8864 105.433C63.5921 105.374 63.3049 105.293 63.0216 105.193C62.7394 105.092 62.4663 104.971 62.2022 104.83C61.9381 104.688 61.6852 104.528 61.4443 104.35C61.2034 104.171 60.9776 103.976 60.7649 103.763L47.398 90.3975H40.8678C40.4546 90.3965 40.0423 90.3764 39.6311 90.335C39.2199 90.2937 38.8107 90.2332 38.4055 90.1516C38.0003 90.071 37.6002 89.9702 37.2041 89.8502C36.809 89.7293 36.4199 89.5902 36.0379 89.432C35.6569 89.2737 35.283 89.0973 34.9191 88.9018C34.5543 88.7063 34.2005 88.4946 33.8568 88.2648C33.5131 88.035 33.1815 87.7891 32.862 87.526C32.5425 87.2639 32.2361 86.9868 31.9438 86.6945C31.6515 86.4022 31.3743 86.0958 31.1123 85.7763C30.8492 85.4568 30.6033 85.1252 30.3735 84.7815C30.1437 84.4378 29.932 84.084 29.7365 83.7191C29.5419 83.3553 29.3645 82.9823 29.2063 82.6003C29.0481 82.2184 28.909 81.8293 28.788 81.4342C28.6681 81.0381 28.5673 80.638 28.4867 80.2328C28.405 79.8276 28.3445 79.4184 28.3032 79.0072C28.2629 78.5959 28.2417 78.1837 28.2407 77.7705ZM179.763 60.0927V100.499C179.763 100.912 179.742 101.324 179.701 101.736C179.66 102.147 179.598 102.556 179.518 102.961C179.437 103.366 179.336 103.766 179.216 104.163C179.095 104.558 178.956 104.947 178.798 105.329C178.64 105.711 178.462 106.084 178.268 106.447C178.072 106.812 177.86 107.166 177.63 107.51C177.4 107.854 177.154 108.185 176.892 108.505C176.63 108.824 176.353 109.131 176.061 109.423C175.768 109.715 175.462 109.992 175.142 110.254C174.823 110.517 174.491 110.763 174.148 110.993C173.804 111.223 173.45 111.435 173.085 111.63C172.721 111.825 172.348 112.002 171.966 112.16C171.585 112.319 171.195 112.458 170.8 112.579C170.404 112.699 170.004 112.799 169.599 112.88C169.193 112.962 168.785 113.022 168.373 113.063C167.962 113.104 167.55 113.125 167.137 113.126H145.453L132.087 126.492C131.875 126.704 131.648 126.899 131.407 127.078C131.166 127.257 130.914 127.416 130.649 127.558C130.385 127.699 130.112 127.82 129.83 127.921C129.548 128.022 129.259 128.102 128.965 128.161C128.671 128.219 128.374 128.256 128.075 128.271C127.776 128.285 127.476 128.278 127.178 128.249C126.88 128.219 126.585 128.168 126.295 128.095C126.004 128.022 125.72 127.928 125.443 127.813C125.166 127.699 124.899 127.564 124.642 127.41C124.385 127.256 124.14 127.083 123.908 126.894C123.677 126.703 123.46 126.498 123.259 126.275C123.058 126.053 122.873 125.817 122.707 125.569C122.541 125.319 122.394 125.059 122.265 124.787C122.137 124.516 122.029 124.238 121.942 123.951C121.855 123.664 121.79 123.372 121.745 123.076C121.702 122.78 121.68 122.481 121.68 122.181V113.126H106.527C106.114 113.125 105.702 113.104 105.29 113.063C104.879 113.022 104.471 112.962 104.065 112.88C103.66 112.799 103.259 112.699 102.863 112.579C102.468 112.458 102.079 112.319 101.698 112.16C101.316 112.002 100.942 111.825 100.578 111.63C100.213 111.435 99.8597 111.223 99.516 110.993C99.1723 110.763 98.8407 110.517 98.5212 110.254C98.2017 109.992 97.8953 109.715 97.603 109.423C97.3107 109.131 97.0335 108.824 96.7715 108.505C96.5094 108.185 96.2635 107.854 96.0337 107.51C95.8039 107.166 95.5912 106.812 95.3957 106.447C95.2012 106.084 95.0238 105.711 94.8655 105.329C94.7073 104.947 94.5682 104.558 94.4472 104.163C94.3273 103.766 94.2265 103.366 94.1459 102.961C94.0642 102.556 94.0038 102.147 93.9624 101.736C93.9221 101.324 93.901 100.912 93.901 100.499V60.0927C93.901 59.6795 93.9221 59.2673 93.9624 58.856C94.0038 58.4438 94.0642 58.0356 94.1459 57.6304C94.2265 57.2252 94.3273 56.8241 94.4472 56.429C94.5682 56.0339 94.7073 55.6448 94.8655 55.2628C95.0238 54.8808 95.2012 54.5079 95.3957 54.143C95.5912 53.7792 95.8039 53.4244 96.0337 53.0807C96.2625 52.738 96.5094 52.4064 96.7715 52.0859C97.0335 51.7664 97.3107 51.461 97.603 51.1687C97.8953 50.8764 98.2017 50.5992 98.5212 50.3362C98.8407 50.0741 99.1723 49.8282 99.516 49.5984C99.8597 49.3686 100.213 49.1559 100.578 48.9614C100.942 48.7659 101.316 48.5895 101.698 48.4312C102.079 48.273 102.468 48.1329 102.863 48.0129C103.259 47.893 103.66 47.7922 104.065 47.7106C104.471 47.6299 104.879 47.5695 105.29 47.5281C105.702 47.4868 106.114 47.4667 106.527 47.4657H167.137C167.55 47.4667 167.962 47.4868 168.373 47.5281C168.785 47.5695 169.193 47.6299 169.599 47.7106C170.004 47.7922 170.404 47.893 170.799 48.0129C171.195 48.1329 171.585 48.273 171.966 48.4312C172.348 48.5895 172.721 48.7659 173.085 48.9614C173.45 49.1559 173.804 49.3686 174.148 49.5984C174.491 49.8282 174.823 50.0741 175.142 50.3362C175.462 50.5992 175.768 50.8764 176.061 51.1687C176.353 51.461 176.63 51.7664 176.892 52.0859C177.154 52.4064 177.4 52.738 177.63 53.0807C177.86 53.4244 178.072 53.7792 178.268 54.143C178.462 54.5079 178.64 54.8808 178.798 55.2628C178.956 55.6448 179.095 56.0339 179.216 56.429C179.336 56.8241 179.437 57.2252 179.518 57.6304C179.598 58.0356 179.66 58.4438 179.701 58.856C179.742 59.2673 179.763 59.6795 179.763 60.0927ZM174.712 60.0927C174.712 59.8448 174.7 59.5968 174.675 59.3509C174.651 59.104 174.614 58.8591 174.565 58.6151C174.517 58.3722 174.456 58.1313 174.384 57.8945C174.312 57.6576 174.228 57.4238 174.134 57.195C174.039 56.9652 173.932 56.7414 173.815 56.5227C173.698 56.304 173.571 56.0923 173.433 55.8857C173.295 55.6791 173.148 55.4805 172.99 55.289C172.832 55.0975 172.666 54.9131 172.491 54.7377C172.315 54.5623 172.132 54.396 171.94 54.2388C171.749 54.0816 171.549 53.9334 171.344 53.7963C171.137 53.6582 170.924 53.5302 170.706 53.4133C170.487 53.2964 170.263 53.1906 170.034 53.0958C169.805 53.0001 169.572 52.9164 169.335 52.8449C169.097 52.7723 168.857 52.7118 168.613 52.6634C168.37 52.6151 168.125 52.5788 167.878 52.5536C167.632 52.5294 167.385 52.5173 167.137 52.5163H106.527C106.279 52.5173 106.032 52.5294 105.785 52.5536C105.538 52.5788 105.293 52.6151 105.05 52.6634C104.807 52.7118 104.567 52.7723 104.329 52.8449C104.092 52.9164 103.859 53.0001 103.629 53.0958C103.4 53.1906 103.177 53.2964 102.958 53.4133C102.739 53.5302 102.527 53.6582 102.32 53.7963C102.114 53.9334 101.915 54.0816 101.723 54.2388C101.532 54.396 101.348 54.5623 101.173 54.7377C100.998 54.9131 100.831 55.0975 100.673 55.289C100.516 55.4805 100.369 55.6791 100.231 55.8857C100.093 56.0923 99.9655 56.304 99.8486 56.5227C99.7317 56.7414 99.6249 56.9652 99.5301 57.195C99.4354 57.4238 99.3517 57.6576 99.2792 57.8945C99.2076 58.1313 99.1471 58.3722 99.0987 58.6151C99.0493 58.8591 99.0131 59.104 98.9889 59.3509C98.9637 59.5968 98.9516 59.8448 98.9516 60.0927V100.499C98.9516 100.747 98.9637 100.994 98.9889 101.241C99.0131 101.488 99.0493 101.732 99.0987 101.976C99.1471 102.219 99.2076 102.459 99.2792 102.697C99.3517 102.934 99.4354 103.168 99.5301 103.397C99.6249 103.625 99.7317 103.849 99.8486 104.068C99.9655 104.287 100.093 104.499 100.231 104.706C100.369 104.911 100.516 105.111 100.673 105.302C100.831 105.494 100.998 105.677 101.173 105.853C101.348 106.028 101.532 106.195 101.723 106.353C101.915 106.51 102.114 106.657 102.32 106.795C102.527 106.933 102.739 107.06 102.958 107.177C103.177 107.295 103.4 107.401 103.629 107.496C103.859 107.59 104.092 107.674 104.329 107.747C104.567 107.818 104.807 107.879 105.05 107.928C105.293 107.976 105.538 108.013 105.785 108.037C106.032 108.062 106.279 108.074 106.527 108.074H124.205C124.371 108.074 124.535 108.09 124.698 108.123C124.861 108.155 125.018 108.203 125.171 108.267C125.325 108.33 125.471 108.408 125.609 108.5C125.746 108.592 125.874 108.697 125.991 108.814C126.109 108.931 126.214 109.059 126.305 109.197C126.397 109.334 126.476 109.48 126.538 109.633C126.602 109.787 126.65 109.945 126.682 110.107C126.714 110.269 126.731 110.434 126.731 110.6V122.181C126.747 122.385 126.815 122.568 126.935 122.732C127.055 122.898 127.208 123.019 127.397 123.097C127.585 123.175 127.78 123.198 127.981 123.167C128.182 123.134 128.36 123.053 128.516 122.921L142.622 108.815C142.859 108.577 143.132 108.395 143.442 108.267C143.751 108.139 144.073 108.074 144.408 108.074H167.137C167.385 108.074 167.632 108.062 167.878 108.037C168.125 108.013 168.37 107.976 168.613 107.928C168.857 107.879 169.097 107.819 169.335 107.747C169.572 107.674 169.805 107.59 170.034 107.496C170.263 107.401 170.487 107.295 170.706 107.177C170.924 107.06 171.137 106.933 171.344 106.795C171.549 106.657 171.749 106.51 171.94 106.353C172.132 106.195 172.315 106.028 172.491 105.853C172.666 105.677 172.832 105.494 172.99 105.302C173.148 105.111 173.295 104.911 173.433 104.706C173.571 104.499 173.698 104.287 173.815 104.068C173.932 103.849 174.038 103.625 174.134 103.397C174.228 103.168 174.312 102.934 174.384 102.697C174.456 102.459 174.517 102.219 174.565 101.976C174.614 101.732 174.651 101.488 174.675 101.241C174.7 100.994 174.712 100.747 174.712 100.499V60.0927ZM80.2932 52.5163L77.4075 62.6186H83.7997C83.965 62.6186 84.1293 62.6347 84.2915 62.6669C84.4548 62.6992 84.6121 62.7466 84.7653 62.8101C84.9185 62.8736 85.0646 62.9512 85.2027 63.0439C85.3398 63.1356 85.4678 63.2404 85.5847 63.3574C85.7026 63.4753 85.8064 63.6023 85.8992 63.7404C85.9909 63.8784 86.0685 64.0236 86.132 64.1768C86.1955 64.33 86.2439 64.4882 86.2761 64.6505C86.3084 64.8138 86.3245 64.9781 86.3245 65.1434C86.3245 65.3097 86.3084 65.474 86.2761 65.6362C86.2439 65.7985 86.1955 65.9567 86.132 66.11C86.0685 66.2632 85.9909 66.4083 85.8992 66.5464C85.8064 66.6845 85.7026 66.8115 85.5847 66.9294C85.4678 67.0463 85.3398 67.1511 85.2027 67.2428C85.0646 67.3356 84.9185 67.4132 84.7653 67.4767C84.6121 67.5402 84.4548 67.5875 84.2915 67.6208C84.1293 67.6531 83.965 67.6692 83.7997 67.6692H75.9642L73.6017 75.9381C73.5644 76.0691 73.516 76.1961 73.4585 76.3191C73.4001 76.442 73.3326 76.56 73.256 76.6728C73.1783 76.7847 73.0927 76.8905 72.9989 76.9893C72.9042 77.0871 72.8034 77.1778 72.6945 77.2594C72.5857 77.3421 72.4708 77.4147 72.3508 77.4782C72.2299 77.5417 72.1049 77.5951 71.9759 77.6384C71.8469 77.6818 71.7149 77.715 71.5808 77.7372C71.4468 77.7594 71.3107 77.7705 71.1746 77.7705C70.9388 77.7694 70.707 77.7382 70.4792 77.6737C70.3199 77.6283 70.1667 77.5679 70.0196 77.4923C69.8714 77.4157 69.7333 77.327 69.6033 77.2232C69.4733 77.1203 69.3543 77.0054 69.2475 76.8795C69.1397 76.7525 69.0459 76.6174 68.9653 76.4723C68.8847 76.3271 68.8191 76.1759 68.7687 76.0177C68.7173 75.8605 68.6831 75.6992 68.6639 75.5339C68.6448 75.3696 68.6417 75.2043 68.6548 75.039C68.669 74.8737 68.6982 74.7114 68.7435 74.5522L70.71 67.6692H60.8123L58.4498 75.9381C58.4115 76.0691 58.3641 76.1961 58.3056 76.3191C58.2482 76.442 58.1807 76.56 58.103 76.6728C58.0264 76.7847 57.9408 76.8905 57.847 76.9893C57.7523 77.0871 57.6515 77.1778 57.5427 77.2594C57.4338 77.3421 57.3189 77.4147 57.199 77.4782C57.078 77.5417 56.953 77.5951 56.824 77.6384C56.695 77.6818 56.563 77.715 56.4289 77.7372C56.2939 77.7594 56.1588 77.7705 56.0227 77.7705C55.7869 77.7694 55.5551 77.7382 55.3273 77.6737C55.168 77.6283 55.0148 77.5679 54.8667 77.4923C54.7195 77.4157 54.5804 77.327 54.4514 77.2232C54.3214 77.1203 54.2024 77.0054 54.0956 76.8795C53.9878 76.7525 53.894 76.6174 53.8134 76.4723C53.7328 76.3271 53.6672 76.1759 53.6158 76.0177C53.5654 75.8605 53.5302 75.6992 53.511 75.5339C53.4929 75.3696 53.4898 75.2043 53.503 75.039C53.5161 74.8737 53.5453 74.7114 53.5906 74.5522L55.5581 67.6692H48.4443C48.278 67.6692 48.1137 67.6531 47.9514 67.6208C47.7891 67.5875 47.6309 67.5402 47.4777 67.4767C47.3245 67.4132 47.1793 67.3356 47.0412 67.2428C46.9032 67.1511 46.7752 67.0463 46.6582 66.9294C46.5413 66.8115 46.4365 66.6845 46.3448 66.5464C46.2521 66.4083 46.1744 66.2632 46.1109 66.11C46.0475 65.9567 46.0001 65.7985 45.9668 65.6362C45.9346 65.474 45.9184 65.3097 45.9184 65.1434C45.9184 64.9781 45.9346 64.8138 45.9668 64.6505C46.0001 64.4882 46.0475 64.33 46.1109 64.1768C46.1744 64.0236 46.2521 63.8784 46.3448 63.7404C46.4365 63.6023 46.5413 63.4753 46.6582 63.3574C46.7752 63.2404 46.9032 63.1356 47.0412 63.0439C47.1793 62.9512 47.3245 62.8736 47.4777 62.8101C47.6309 62.7466 47.7891 62.6992 47.9514 62.6669C48.1137 62.6347 48.278 62.6186 48.4443 62.6186H57.0004L59.887 52.5163H53.4949C53.3286 52.5163 53.1643 52.5002 53.002 52.4679C52.8397 52.4356 52.6815 52.3883 52.5283 52.3248C52.3751 52.2613 52.23 52.1837 52.0919 52.0909C51.9538 51.9992 51.8268 51.8944 51.7089 51.7775C51.592 51.6596 51.4871 51.5326 51.3954 51.3945C51.3027 51.2564 51.2251 51.1113 51.1616 50.9581C51.0981 50.8049 51.0507 50.6466 51.0185 50.4843C50.9852 50.3211 50.9691 50.1568 50.9691 49.9915C50.9691 49.8252 50.9852 49.6609 51.0185 49.4986C51.0507 49.3363 51.0981 49.1781 51.1616 49.0249C51.2251 48.8717 51.3027 48.7265 51.3954 48.5885C51.4871 48.4504 51.592 48.3224 51.7089 48.2055C51.8268 48.0885 51.9538 47.9837 52.0919 47.892C52.23 47.7993 52.3751 47.7217 52.5283 47.6582C52.6815 47.5947 52.8397 47.5473 53.002 47.514C53.1643 47.4818 53.3286 47.4657 53.4949 47.4657H61.3304L63.6929 39.1968C63.7383 39.0375 63.7998 38.8843 63.8753 38.7382C63.9509 38.591 64.0406 38.4519 64.1445 38.3229C64.2473 38.1929 64.3622 38.075 64.4882 37.9681C64.6152 37.8613 64.7502 37.7676 64.8953 37.6879C65.0405 37.6073 65.1917 37.5418 65.3489 37.4914C65.5061 37.441 65.6674 37.4067 65.8317 37.3876C65.997 37.3684 66.1613 37.3664 66.3266 37.3795C66.4909 37.3926 66.6531 37.4228 66.8124 37.4682C66.9716 37.5136 67.1248 37.574 67.272 37.6496C67.4192 37.7252 67.5582 37.8139 67.6883 37.9167C67.8173 38.0195 67.9362 38.1344 68.043 38.2604C68.1509 38.3864 68.2446 38.5215 68.3253 38.6666C68.4059 38.8107 68.4724 38.9619 68.5228 39.1192C68.5742 39.2764 68.6095 39.4377 68.6286 39.6019C68.6478 39.7662 68.6508 39.9315 68.6377 40.0958C68.6246 40.2611 68.5954 40.4234 68.551 40.5826L66.5846 47.4657H76.4823L78.8448 39.1968C78.8902 39.0375 78.9516 38.8843 79.0272 38.7382C79.1038 38.591 79.1925 38.4519 79.2964 38.3229C79.3992 38.1929 79.5141 38.075 79.6411 37.9681C79.767 37.8613 79.9021 37.7676 80.0472 37.6879C80.1924 37.6073 80.3436 37.5418 80.5008 37.4914C80.659 37.441 80.8193 37.4067 80.9846 37.3876C81.1489 37.3684 81.3132 37.3664 81.4785 37.3795C81.6438 37.3926 81.806 37.4228 81.9643 37.4682C82.1235 37.5136 82.2767 37.574 82.4249 37.6496C82.5721 37.7252 82.7101 37.8139 82.8402 37.9167C82.9702 38.0195 83.0881 38.1344 83.1959 38.2604C83.3028 38.3864 83.3965 38.5215 83.4772 38.6666C83.5588 38.8107 83.6243 38.9619 83.6747 39.1192C83.7261 39.2764 83.7614 39.4377 83.7805 39.6019C83.7997 39.7662 83.8027 39.9315 83.7896 40.0958C83.7765 40.2611 83.7483 40.4234 83.7029 40.5826L81.7365 47.4657H88.8503C89.0156 47.4657 89.1799 47.4818 89.3422 47.514C89.5055 47.5473 89.6627 47.5947 89.8159 47.6582C89.9691 47.7217 90.1152 47.7993 90.2533 47.892C90.3904 47.9837 90.5184 48.0885 90.6353 48.2055C90.7533 48.3224 90.8571 48.4504 90.9498 48.5885C91.0415 48.7265 91.1191 48.8717 91.1826 49.0249C91.2461 49.1781 91.2945 49.3363 91.3268 49.4986C91.359 49.6609 91.3751 49.8252 91.3751 49.9915C91.3751 50.1568 91.359 50.3211 91.3268 50.4843C91.2945 50.6466 91.2461 50.8049 91.1826 50.9581C91.1191 51.1113 91.0415 51.2564 90.9498 51.3945C90.8571 51.5326 90.7533 51.6596 90.6353 51.7775C90.5184 51.8944 90.3904 51.9992 90.2533 52.0909C90.1152 52.1837 89.9691 52.2613 89.8159 52.3248C89.6627 52.3883 89.5055 52.4356 89.3422 52.4679C89.1799 52.5002 89.0156 52.5163 88.8503 52.5163H80.2932ZM75.0389 52.5163H65.1413L62.2546 62.6186H72.1533L75.0389 52.5163ZM159.56 80.2953V95.4482C159.56 95.6961 159.547 95.943 159.523 96.19C159.499 96.4369 159.461 96.6818 159.413 96.9258C159.365 97.1687 159.304 97.4085 159.232 97.6464C159.16 97.8833 159.076 98.1171 158.982 98.3459C158.886 98.5747 158.78 98.7985 158.663 99.0172C158.546 99.2359 158.418 99.4486 158.281 99.6552C158.143 99.8608 157.995 100.06 157.838 100.252C157.68 100.443 157.514 100.627 157.339 100.802C157.163 100.978 156.98 101.144 156.788 101.302C156.596 101.459 156.397 101.606 156.191 101.745C155.985 101.883 155.772 102.01 155.554 102.127C155.335 102.243 155.111 102.35 154.881 102.445C154.653 102.54 154.42 102.623 154.182 102.696C153.945 102.768 153.704 102.828 153.461 102.877C153.218 102.926 152.973 102.962 152.727 102.986C152.48 103.012 152.232 103.024 151.984 103.024H139.358C137.496 103.007 135.669 102.748 133.877 102.246C132.085 101.743 130.389 101.015 128.791 100.06C128.692 100.279 128.577 100.491 128.447 100.693C128.318 100.896 128.174 101.089 128.017 101.272C127.859 101.453 127.69 101.624 127.509 101.782C127.327 101.94 127.136 102.085 126.933 102.215C126.731 102.346 126.521 102.462 126.301 102.562C126.082 102.663 125.858 102.747 125.627 102.816C125.396 102.885 125.162 102.936 124.923 102.971C124.686 103.005 124.446 103.024 124.205 103.024H119.154C118.989 103.024 118.824 103.016 118.659 102.999C118.495 102.982 118.332 102.958 118.169 102.926C118.007 102.894 117.847 102.853 117.689 102.805C117.53 102.757 117.375 102.701 117.222 102.638C117.07 102.574 116.921 102.504 116.774 102.426C116.629 102.347 116.487 102.263 116.35 102.171C116.212 102.079 116.08 101.98 115.952 101.876C115.824 101.771 115.702 101.66 115.585 101.543C115.468 101.426 115.357 101.303 115.252 101.175C115.147 101.048 115.049 100.915 114.957 100.778C114.864 100.64 114.78 100.499 114.702 100.353C114.624 100.207 114.553 100.057 114.49 99.9051C114.426 99.7519 114.371 99.5967 114.322 99.4385C114.275 99.2802 114.235 99.12 114.201 98.9577C114.169 98.7964 114.145 98.6321 114.129 98.4679C114.113 98.3036 114.103 98.1383 114.103 97.973V75.2446C114.103 75.0793 114.113 74.915 114.129 74.7497C114.145 74.5855 114.169 74.4222 114.201 74.2599C114.235 74.0976 114.275 73.9374 114.322 73.7791C114.371 73.6209 114.426 73.4657 114.49 73.3135C114.553 73.1603 114.624 73.0111 114.702 72.865C114.78 72.7198 114.864 72.5777 114.957 72.4406C115.049 72.3025 115.147 72.1705 115.252 72.0425C115.357 71.9145 115.468 71.7925 115.585 71.6756C115.702 71.5587 115.824 71.4478 115.952 71.343C116.08 71.2382 116.212 71.1394 116.35 71.0477C116.487 70.956 116.629 70.8703 116.774 70.7927C116.921 70.7141 117.07 70.6435 117.222 70.58C117.375 70.5175 117.53 70.4611 117.689 70.4127C117.847 70.3653 118.007 70.325 118.169 70.2928C118.332 70.2595 118.495 70.2353 118.659 70.2192C118.824 70.2031 118.989 70.194 119.154 70.194H124.205C124.495 70.195 124.783 70.2202 125.069 70.2696C125.355 70.32 125.634 70.3946 125.907 70.4923C126.18 70.5901 126.442 70.7111 126.694 70.8542C126.947 70.9973 127.185 71.1616 127.409 71.346C127.633 71.5305 127.839 71.7321 128.029 71.9518C128.218 72.1715 128.388 72.4064 128.536 72.6553C128.685 72.9043 128.812 73.1643 128.916 73.4344C129.021 73.7056 129.1 73.9827 129.157 74.268C129.76 73.8537 130.314 73.381 130.817 72.8508C131.323 72.3499 131.779 71.8077 132.187 71.2261C132.596 70.6435 132.949 70.0287 133.248 69.3826C133.546 68.7376 133.785 68.0703 133.963 67.3809C134.142 66.6925 134.258 65.994 134.311 65.2845C134.278 64.7856 134.295 64.2887 134.362 63.7938C134.43 63.2989 134.546 62.8151 134.712 62.3444C134.877 61.8727 135.088 61.4232 135.345 60.9948C135.602 60.5654 135.9 60.1673 136.237 59.7994C136.604 59.4265 137.004 59.0949 137.441 58.8056C137.876 58.5174 138.337 58.2765 138.823 58.084C139.309 57.8915 139.81 57.7524 140.325 57.6647C140.841 57.578 141.36 57.5457 141.882 57.5669C142.431 57.581 142.969 57.6647 143.495 57.8169C144.022 57.9701 144.521 58.1868 144.993 58.468C145.464 58.7492 145.892 59.0858 146.276 59.4769C146.66 59.869 146.989 60.3024 147.262 60.7781C147.741 61.6903 148.122 62.6417 148.405 63.6325C148.686 64.6243 148.862 65.6342 148.933 66.6623C149.004 67.6904 148.968 68.7144 148.825 69.7354C148.682 70.7554 148.436 71.7502 148.085 72.7198H151.984C152.232 72.7198 152.48 72.7319 152.727 72.7571C152.973 72.7813 153.218 72.8176 153.461 72.867C153.704 72.9154 153.945 72.9758 154.182 73.0474C154.42 73.12 154.653 73.2036 154.881 73.2984C155.111 73.3931 155.335 73.4999 155.554 73.6169C155.772 73.7338 155.985 73.8608 156.191 73.9989C156.397 74.1369 156.596 74.2841 156.788 74.4413C156.98 74.5996 157.163 74.7659 157.339 74.9412C157.514 75.1166 157.68 75.3001 157.838 75.4916C157.995 75.6831 158.143 75.8826 158.281 76.0882C158.418 76.2949 158.546 76.5075 158.663 76.7263C158.78 76.945 158.886 77.1687 158.982 77.3975C159.076 77.6273 159.16 77.8602 159.232 78.097C159.304 78.3349 159.365 78.5748 159.413 78.8187C159.461 79.0616 159.499 79.3065 159.523 79.5534C159.547 79.8004 159.56 80.0473 159.56 80.2953ZM124.21 97.973L124.205 75.2446H119.154V97.973H124.21ZM154.51 80.2953C154.51 80.13 154.493 79.9657 154.46 79.8034C154.428 79.6401 154.381 79.4829 154.317 79.3297C154.254 79.1765 154.175 79.0313 154.083 78.8933C153.991 78.7552 153.887 78.6282 153.769 78.5103C153.652 78.3933 153.525 78.2885 153.387 78.1968C153.249 78.1041 153.104 78.0265 152.95 77.963C152.797 77.8995 152.639 77.8511 152.477 77.8188C152.314 77.7866 152.15 77.7705 151.984 77.7705H144.408C144.301 77.7705 144.196 77.7634 144.09 77.7503C143.985 77.7372 143.88 77.717 143.777 77.6908C143.675 77.6636 143.574 77.6314 143.475 77.592C143.376 77.5527 143.28 77.5074 143.187 77.456C143.094 77.4046 143.004 77.3471 142.919 77.2846C142.833 77.2221 142.751 77.1546 142.674 77.081C142.596 77.0085 142.524 76.9309 142.457 76.8482C142.389 76.7666 142.327 76.6799 142.271 76.5902C142.214 76.5005 142.163 76.4067 142.118 76.311C142.073 76.2142 142.035 76.1155 142.002 76.0137C141.97 75.9129 141.944 75.8101 141.925 75.7052C141.906 75.6004 141.893 75.4956 141.886 75.3888C141.88 75.2829 141.881 75.1771 141.889 75.0713C141.897 74.9644 141.91 74.8596 141.931 74.7548C141.951 74.651 141.978 74.5482 142.012 74.4474C142.046 74.3466 142.086 74.2478 142.131 74.1521C144.395 69.432 144.194 65.3853 142.985 63.4692C142.786 63.1507 142.375 62.6186 141.882 62.6186C141.523 62.5863 141.171 62.6266 140.827 62.7405C140.483 62.8544 140.177 63.0308 139.907 63.2717C139.702 63.5116 139.552 63.7817 139.456 64.082C139.36 64.3814 139.325 64.6888 139.353 65.0033C139.326 66.0575 139.201 67.1007 138.977 68.1318C138.751 69.1619 138.43 70.1628 138.013 71.1324C137.597 72.101 137.092 73.0222 136.498 73.895C135.906 74.7679 135.234 75.5762 134.486 76.3201C133.772 77.1093 132.972 77.7987 132.087 78.3903C131.202 78.982 130.258 79.4567 129.255 79.8155V94.2901C129.969 94.8626 130.723 95.3726 131.52 95.8211C132.316 96.2696 133.144 96.6506 134.003 96.9641C134.861 97.2775 135.74 97.5184 136.638 97.6877C137.537 97.8571 138.443 97.9518 139.358 97.973H151.984C152.15 97.973 152.314 97.9568 152.477 97.9246C152.639 97.8923 152.797 97.844 152.95 97.7805C153.104 97.717 153.249 97.6394 153.387 97.5466C153.525 97.4549 153.652 97.3501 153.769 97.2332C153.887 97.1163 153.991 96.9883 154.083 96.8502C154.175 96.7131 154.254 96.5669 154.317 96.4137C154.381 96.2605 154.428 96.1033 154.46 95.94C154.493 95.7777 154.51 95.6135 154.51 95.4482V80.2953ZM98.9516 135.853C98.9506 136.185 98.9344 136.514 98.9022 136.843C98.8689 137.173 98.8206 137.499 98.7561 137.824C98.6905 138.148 98.6099 138.469 98.5142 138.785C98.4184 139.102 98.3065 139.412 98.1795 139.718C98.0525 140.023 97.9114 140.322 97.7552 140.614C97.6 140.905 97.4296 141.188 97.2462 141.463C97.0618 141.738 96.8652 142.003 96.6556 142.259C96.4459 142.514 96.2232 142.759 95.9893 142.993C95.7555 143.227 95.5116 143.449 95.2556 143.659C94.9996 143.869 94.7345 144.066 94.4593 144.249C94.1842 144.434 93.901 144.603 93.6097 144.759C93.3184 144.915 93.019 145.056 92.7136 145.183C92.4082 145.31 92.0978 145.421 91.7813 145.518C91.4648 145.614 91.1443 145.694 90.8198 145.759C90.4952 145.824 90.1687 145.873 89.8401 145.905C89.5105 145.938 89.1809 145.954 88.8503 145.955V163.632C88.8503 163.769 88.8392 163.906 88.8171 164.041C88.7949 164.176 88.7616 164.31 88.7173 164.44C88.6739 164.57 88.6195 164.695 88.556 164.816C88.4915 164.937 88.4179 165.052 88.3343 165.161C88.2516 165.271 88.1599 165.373 88.0611 165.467C87.9613 165.561 87.8545 165.647 87.7406 165.724C87.6277 165.8 87.5088 165.868 87.3838 165.925C87.2598 165.983 87.1308 166.03 86.9988 166.066C86.8668 166.103 86.7327 166.129 86.5956 166.144C86.4596 166.158 86.3235 166.162 86.1864 166.154C86.0493 166.147 85.9133 166.128 85.7802 166.099C85.6462 166.069 85.5151 166.029 85.3882 165.978C85.2601 165.927 85.1382 165.867 85.0203 165.795C84.9033 165.725 84.7925 165.645 84.6877 165.556C84.5838 165.467 84.4871 165.37 84.3984 165.266C84.3097 165.161 84.2301 165.05 84.1595 164.932C83.8924 164.5 77.4166 154.461 58.5455 153.615V167.421C58.5455 167.71 58.5314 167.998 58.5032 168.287C58.475 168.575 58.4326 168.861 58.3762 169.145C58.3197 169.429 58.2492 169.71 58.1645 169.986C58.0809 170.263 57.9831 170.535 57.8732 170.803C57.7624 171.071 57.6384 171.332 57.5023 171.588C57.3653 171.843 57.2171 172.091 57.0558 172.331C56.8956 172.572 56.7232 172.804 56.5388 173.028C56.3553 173.252 56.1618 173.466 55.9572 173.671C55.7516 173.876 55.5379 174.069 55.3142 174.254C55.0904 174.437 54.8576 174.609 54.6177 174.77C54.3768 174.931 54.1289 175.079 53.8739 175.216C53.6179 175.352 53.3568 175.476 53.0897 175.587C52.8216 175.698 52.5495 175.795 52.2723 175.879C51.9951 175.963 51.7149 176.034 51.4307 176.09C51.1475 176.146 50.8612 176.189 50.573 176.217C50.2847 176.245 49.9964 176.259 49.7072 176.259C49.4169 176.259 49.1286 176.245 48.8404 176.217C48.5521 176.189 48.2659 176.146 47.9826 176.09C47.6984 176.034 47.4182 175.963 47.141 175.879C46.8639 175.795 46.5917 175.698 46.3246 175.587C46.0565 175.476 45.7955 175.352 45.5405 175.216C45.2845 175.079 45.0365 174.931 44.7966 174.77C44.5557 174.609 44.3229 174.437 44.0992 174.254C43.8754 174.069 43.6617 173.876 43.4571 173.671C43.2525 173.466 43.058 173.252 42.8746 173.028C42.6911 172.804 42.5188 172.572 42.3575 172.331C42.1972 172.091 42.0481 171.843 41.912 171.588C41.7749 171.332 41.652 171.071 41.5411 170.803C41.4302 170.535 41.3325 170.263 41.2488 169.986C41.1641 169.71 41.0946 169.429 41.0381 169.145C40.9817 168.861 40.9394 168.575 40.9101 168.287C40.8819 167.998 40.8678 167.71 40.8678 167.421V152.786C40.3649 152.637 39.869 152.465 39.3801 152.27C38.8923 152.076 38.4135 151.86 37.9449 151.623C37.4752 151.386 37.0186 151.129 36.5721 150.851C36.1256 150.574 35.6932 150.276 35.2739 149.96C34.8546 149.643 34.4494 149.31 34.0604 148.957C33.6703 148.604 33.2974 148.235 32.9406 147.849C32.5838 147.464 32.2441 147.063 31.9236 146.647C31.6021 146.231 31.3007 145.801 31.0175 145.359C30.7353 144.916 30.4722 144.462 30.2303 143.995C29.9884 143.528 29.7677 143.053 29.5671 142.567C29.3676 142.081 29.1902 141.586 29.035 141.085C28.8787 140.583 28.7457 140.075 28.6358 139.561C28.525 139.047 28.4383 138.53 28.3738 138.009C28.3093 137.487 28.2689 136.964 28.2508 136.439C28.2337 135.914 28.2397 135.389 28.2689 134.864C28.2982 134.339 28.3506 133.817 28.4262 133.297C28.5018 132.777 28.6016 132.262 28.7225 131.751C28.8445 131.239 28.9896 130.735 29.1559 130.236C29.3232 129.738 29.5117 129.248 29.7223 128.768C29.933 128.286 30.1648 127.815 30.4168 127.354C30.6698 126.893 30.9419 126.444 31.2342 126.008C31.5275 125.572 31.839 125.149 32.1685 124.74C32.4991 124.332 32.8469 123.939 33.2127 123.561C33.5776 123.184 33.9596 122.823 34.3567 122.479C34.7538 122.136 35.1661 121.81 35.5924 121.504C36.0188 121.196 36.4582 120.909 36.9108 120.642C37.3623 120.374 37.8259 120.127 38.2997 119.9C38.7744 119.674 39.2572 119.47 39.75 119.286C40.2429 119.103 40.7418 118.942 41.2488 118.803C41.7558 118.664 42.2678 118.548 42.7848 118.456C43.3019 118.362 43.822 118.292 44.3451 118.246C44.8692 118.2 45.3933 118.176 45.9184 118.177H56.0197C76.8743 118.177 83.8803 107.227 84.1666 106.76C84.2391 106.644 84.3198 106.535 84.4095 106.432C84.4992 106.329 84.5969 106.234 84.7028 106.147C84.8076 106.059 84.9185 105.981 85.0364 105.912C85.1543 105.843 85.2773 105.783 85.4043 105.734C85.5313 105.683 85.6623 105.645 85.7953 105.616C85.9294 105.588 86.0645 105.57 86.2005 105.564C86.3376 105.556 86.4737 105.561 86.6087 105.576C86.7448 105.591 86.8788 105.616 87.0099 105.653C87.1419 105.69 87.2689 105.737 87.3929 105.794C87.5159 105.852 87.6338 105.919 87.7467 105.996C87.8595 106.073 87.9654 106.157 88.0642 106.252C88.1629 106.346 88.2536 106.446 88.3363 106.555C88.4189 106.663 88.4925 106.778 88.556 106.899C88.6195 107.019 88.6739 107.144 88.7173 107.273C88.7606 107.402 88.7939 107.534 88.8161 107.668C88.8382 107.803 88.8493 107.938 88.8503 108.074V125.752C89.1809 125.753 89.5105 125.769 89.8401 125.801C90.1687 125.835 90.4952 125.883 90.8198 125.947C91.1443 126.013 91.4648 126.094 91.7813 126.189C92.0978 126.285 92.4082 126.397 92.7136 126.524C93.019 126.651 93.3184 126.792 93.6097 126.948C93.901 127.104 94.1842 127.274 94.4593 127.457C94.7345 127.642 94.9996 127.838 95.2556 128.048C95.5116 128.258 95.7555 128.48 95.9893 128.714C96.2232 128.948 96.4459 129.192 96.6556 129.448C96.8652 129.704 97.0618 129.969 97.2462 130.244C97.4296 130.519 97.6 130.803 97.7552 131.094C97.9114 131.385 98.0525 131.685 98.1795 131.99C98.3065 132.295 98.4184 132.606 98.5142 132.922C98.6099 133.239 98.6905 133.559 98.7561 133.884C98.8206 134.208 98.8689 134.535 98.9022 134.863C98.9344 135.193 98.9506 135.523 98.9516 135.853ZM45.9184 148.48H53.4949V123.227H45.9184C45.5052 123.227 45.093 123.247 44.6807 123.288C44.2695 123.328 43.8613 123.388 43.4551 123.469C43.0499 123.55 42.6488 123.65 42.2537 123.77C41.8576 123.89 41.4685 124.029 41.0865 124.188C40.7045 124.346 40.3316 124.523 39.9667 124.718C39.6019 124.912 39.2471 125.125 38.9034 125.355C38.5597 125.585 38.2281 125.831 37.9086 126.093C37.5891 126.356 37.2827 126.633 36.9904 126.925C36.6981 127.217 36.4209 127.524 36.1578 127.843C35.8958 128.163 35.6499 128.494 35.4201 128.838C35.1903 129.183 34.9776 129.537 34.7831 129.902C34.5875 130.266 34.4111 130.639 34.2529 131.021C34.0947 131.403 33.9556 131.792 33.8356 132.188C33.7157 132.584 33.6149 132.985 33.5343 133.39C33.4536 133.796 33.3932 134.204 33.3528 134.616C33.3125 135.028 33.2924 135.44 33.2924 135.853C33.2924 136.267 33.3125 136.68 33.3528 137.091C33.3932 137.503 33.4536 137.911 33.5343 138.317C33.6149 138.723 33.7157 139.123 33.8356 139.519C33.9556 139.915 34.0947 140.303 34.2529 140.686C34.4111 141.068 34.5875 141.441 34.7831 141.806C34.9776 142.171 35.1903 142.525 35.4201 142.868C35.6499 143.213 35.8958 143.545 36.1578 143.864C36.4209 144.184 36.6981 144.49 36.9904 144.782C37.2827 145.075 37.5891 145.352 37.9086 145.614C38.2281 145.877 38.5597 146.123 38.9034 146.353C39.2471 146.582 39.6019 146.794 39.9667 146.99C40.3316 147.184 40.7045 147.362 41.0865 147.52C41.4685 147.678 41.8576 147.817 42.2537 147.937C42.6488 148.057 43.0499 148.157 43.4551 148.237C43.8613 148.318 44.2695 148.38 44.6807 148.42C45.093 148.46 45.5052 148.48 45.9184 148.48ZM53.4949 167.421V153.531H45.9184V167.421C45.9184 167.67 45.9426 167.916 45.992 168.16C46.0404 168.404 46.112 168.641 46.2067 168.87C46.3025 169.1 46.4194 169.319 46.5575 169.525C46.6955 169.732 46.8528 169.924 47.0281 170.099C47.2045 170.275 47.395 170.433 47.6027 170.571C47.8093 170.709 48.027 170.826 48.2568 170.92C48.4866 171.015 48.7234 171.088 48.9674 171.136C49.2113 171.184 49.4582 171.209 49.7072 171.209C49.9551 171.209 50.2021 171.184 50.446 171.136C50.6899 171.088 50.9267 171.015 51.1565 170.92C51.3863 170.826 51.6041 170.709 51.8117 170.571C52.0183 170.433 52.2098 170.275 52.3852 170.099C52.5616 169.924 52.7178 169.732 52.8569 169.525C52.995 169.319 53.1109 169.1 53.2066 168.87C53.3014 168.641 53.3739 168.404 53.4223 168.16C53.4707 167.916 53.4949 167.67 53.4949 167.421ZM83.7997 114.489C79.3518 118.196 71.35 122.587 58.5455 123.121V148.586C71.35 149.12 79.3518 153.511 83.7997 157.218V114.489ZM93.901 135.853C93.8999 135.688 93.8919 135.524 93.8758 135.358C93.8596 135.194 93.8344 135.031 93.8022 134.868C93.7699 134.706 93.7296 134.546 93.6812 134.388C93.6339 134.23 93.5774 134.074 93.5149 133.922C93.4514 133.769 93.3799 133.62 93.3023 133.474C93.2246 133.328 93.139 133.186 93.0473 133.049C92.9555 132.912 92.8568 132.779 92.7519 132.651C92.6471 132.523 92.5362 132.401 92.4193 132.284C92.3024 132.167 92.1805 132.056 92.0524 131.952C91.9244 131.847 91.7914 131.748 91.6543 131.656C91.5172 131.565 91.3751 131.479 91.23 131.401C91.0838 131.324 90.9347 131.252 90.7815 131.19C90.6293 131.126 90.4731 131.07 90.3158 131.022C90.1576 130.974 89.9973 130.934 89.835 130.901C89.6728 130.869 89.5095 130.844 89.3452 130.828C89.1799 130.812 89.0156 130.804 88.8503 130.803V140.905C89.0156 140.904 89.1799 140.896 89.3452 140.88C89.5095 140.864 89.6728 140.838 89.835 140.806C89.9973 140.774 90.1576 140.734 90.3158 140.685C90.4731 140.638 90.6293 140.581 90.7815 140.518C90.9347 140.454 91.0838 140.384 91.23 140.306C91.3751 140.228 91.5172 140.143 91.6543 140.051C91.7914 139.959 91.9244 139.861 92.0524 139.756C92.1805 139.651 92.3024 139.54 92.4193 139.423C92.5362 139.306 92.6471 139.183 92.7519 139.056C92.8568 138.928 92.9555 138.795 93.0473 138.658C93.139 138.52 93.2246 138.379 93.3023 138.233C93.3799 138.088 93.4514 137.939 93.5149 137.785C93.5774 137.633 93.6339 137.477 93.6812 137.319C93.7296 137.16 93.7699 137 93.8022 136.839C93.8344 136.677 93.8596 136.513 93.8758 136.348C93.8919 136.184 93.8999 136.019 93.901 135.853ZM114.103 133.328H106.527C106.362 133.328 106.197 133.345 106.035 133.377C105.872 133.409 105.715 133.457 105.561 133.521C105.408 133.584 105.262 133.662 105.124 133.754C104.987 133.846 104.859 133.95 104.742 134.068C104.624 134.185 104.52 134.313 104.428 134.45C104.336 134.588 104.258 134.734 104.195 134.888C104.131 135.041 104.083 135.198 104.051 135.361C104.018 135.524 104.002 135.688 104.002 135.853C104.002 136.02 104.018 136.184 104.051 136.346C104.083 136.509 104.131 136.667 104.195 136.82C104.258 136.973 104.336 137.119 104.428 137.256C104.52 137.394 104.624 137.522 104.742 137.639C104.859 137.756 104.987 137.861 105.124 137.954C105.262 138.045 105.408 138.123 105.561 138.187C105.715 138.25 105.872 138.298 106.035 138.331C106.197 138.363 106.362 138.379 106.527 138.379H114.103C114.27 138.379 114.434 138.363 114.596 138.331C114.759 138.298 114.917 138.25 115.07 138.187C115.223 138.123 115.368 138.045 115.506 137.954C115.645 137.861 115.772 137.756 115.889 137.639C116.006 137.522 116.111 137.394 116.203 137.256C116.296 137.119 116.373 136.973 116.437 136.82C116.5 136.667 116.548 136.509 116.58 136.346C116.613 136.184 116.629 136.02 116.629 135.853C116.629 135.688 116.613 135.524 116.58 135.361C116.548 135.198 116.5 135.041 116.437 134.888C116.373 134.734 116.296 134.588 116.203 134.45C116.111 134.313 116.006 134.185 115.889 134.068C115.772 133.95 115.645 133.846 115.506 133.754C115.368 133.662 115.223 133.584 115.07 133.521C114.917 133.457 114.759 133.409 114.596 133.377C114.434 133.345 114.27 133.328 114.103 133.328ZM114.903 146.086L107.326 143.561C107.169 143.507 107.008 143.47 106.844 143.449C106.679 143.428 106.514 143.424 106.348 143.435C106.182 143.446 106.019 143.474 105.859 143.517C105.7 143.561 105.544 143.619 105.396 143.694C105.247 143.767 105.108 143.855 104.976 143.957C104.845 144.059 104.725 144.171 104.616 144.297C104.507 144.422 104.411 144.558 104.329 144.702C104.247 144.846 104.18 144.997 104.127 145.154C104.074 145.311 104.037 145.473 104.017 145.637C103.996 145.802 103.991 145.968 104.003 146.133C104.015 146.298 104.044 146.461 104.087 146.622C104.131 146.782 104.191 146.936 104.264 147.084C104.339 147.233 104.428 147.373 104.529 147.504C104.631 147.635 104.745 147.755 104.87 147.862C104.996 147.971 105.131 148.067 105.275 148.149C105.419 148.23 105.571 148.298 105.729 148.349L113.304 150.875C113.461 150.928 113.623 150.963 113.787 150.984C113.95 151.004 114.116 151.008 114.281 150.996C114.445 150.984 114.607 150.957 114.768 150.912C114.927 150.868 115.081 150.81 115.228 150.735C115.376 150.661 115.516 150.574 115.647 150.472C115.778 150.37 115.897 150.257 116.005 150.132C116.113 150.007 116.209 149.872 116.291 149.729C116.372 149.585 116.44 149.435 116.492 149.278C116.545 149.12 116.581 148.96 116.602 148.796C116.623 148.631 116.627 148.467 116.616 148.302C116.604 148.137 116.577 147.974 116.534 147.815C116.489 147.655 116.431 147.502 116.357 147.353C116.284 147.205 116.196 147.065 116.095 146.934C115.993 146.803 115.88 146.683 115.755 146.575C115.63 146.466 115.496 146.371 115.353 146.288C115.209 146.206 115.059 146.139 114.903 146.086ZM106.527 128.278C106.801 128.278 107.067 128.233 107.326 128.147L114.903 125.622C115.06 125.57 115.211 125.502 115.355 125.42C115.5 125.339 115.634 125.243 115.76 125.134C115.886 125.026 116 124.906 116.102 124.775C116.204 124.644 116.292 124.504 116.366 124.356C116.441 124.208 116.5 124.054 116.544 123.893C116.588 123.733 116.616 123.57 116.627 123.405C116.639 123.239 116.635 123.074 116.614 122.909C116.593 122.744 116.557 122.583 116.504 122.426C116.452 122.269 116.384 122.117 116.302 121.973C116.219 121.829 116.124 121.694 116.015 121.569C115.907 121.444 115.786 121.33 115.655 121.228C115.524 121.127 115.384 121.039 115.235 120.965C115.086 120.891 114.932 120.832 114.772 120.789C114.611 120.746 114.448 120.717 114.283 120.706C114.118 120.695 113.952 120.7 113.788 120.721C113.623 120.743 113.461 120.779 113.304 120.832L105.729 123.357C105.588 123.405 105.452 123.464 105.321 123.535C105.191 123.606 105.067 123.688 104.951 123.78C104.835 123.873 104.728 123.976 104.63 124.088C104.531 124.2 104.445 124.319 104.367 124.447C104.29 124.574 104.225 124.707 104.172 124.845C104.118 124.984 104.078 125.126 104.05 125.272C104.021 125.418 104.005 125.565 104.003 125.715C104.001 125.863 104.012 126.011 104.035 126.157C104.06 126.304 104.096 126.447 104.145 126.588C104.195 126.729 104.255 126.863 104.329 126.993C104.401 127.122 104.485 127.245 104.58 127.359C104.674 127.473 104.778 127.579 104.892 127.676C105.005 127.772 105.126 127.857 105.254 127.933C105.382 128.008 105.516 128.071 105.656 128.123C105.795 128.174 105.938 128.212 106.085 128.238C106.232 128.265 106.379 128.278 106.527 128.278Z" fill="#BD76F6"/>
</g>
</g>
</g>
<defs>
<filter id="filter0_d_183_469" x="0" y="0" width="208" height="208" filterUnits="userSpaceOnUse" color-interpolation-filters="sRGB">
<feFlood flood-opacity="0" result="BackgroundImageFix"/>
<feColorMatrix in="SourceAlpha" type="matrix" values="0 0 0 0 0 0 0 0 0 0 0 0 0 0 0 0 0 0 127 0" result="hardAlpha"/>
<feOffset dy="4"/>
<feGaussianBlur stdDeviation="2"/>
<feComposite in2="hardAlpha" operator="out"/>
<feColorMatrix type="matrix" values="0 0 0 0 0 0 0 0 0 0 0 0 0 0 0 0 0 0 0.25 0"/>
<feBlend mode="normal" in2="BackgroundImageFix" result="effect1_dropShadow_183_469"/>
<feBlend mode="normal" in="SourceGraphic" in2="effect1_dropShadow_183_469" result="shape"/>
</filter>
<clipPath id="clip0_183_469">
<rect x="4" width="200" height="200" rx="16" fill="white"/>
</clipPath>
</defs>
</svg>
