<svg width="208" height="208" viewBox="0 0 208 208" fill="none" xmlns="http://www.w3.org/2000/svg">
<g filter="url(#filter0_d_183_596)">
<g clip-path="url(#clip0_183_596)">
<rect x="4" width="200" height="200" rx="16" fill="white"/>
<mask id="mask0_183_596" style="mask-type:luminance" maskUnits="userSpaceOnUse" x="48" y="35" width="113" height="113">
<path d="M48.0088 35.7539H160.25V147.219H48.0088V35.7539Z" fill="white"/>
</mask>
<g mask="url(#mask0_183_596)">
<path d="M63.6918 146.907C63.9035 147.012 64.097 147.047 64.3077 147.047C64.8358 147.047 65.3821 146.73 65.628 146.185C65.9626 145.463 65.628 144.601 64.8892 144.301L52.9909 138.969C49.435 137.068 51.9164 130.432 51.987 130.238L58.5525 107.461C58.5525 107.426 59.2913 104.082 60.9281 99.2589C63.6747 91.1271 74.5873 85.4778 78.0021 83.8581L79.8325 88.2586C82.6133 94.049 89.1617 99.4353 89.46 99.647C89.7241 99.8758 90.0587 99.9987 90.3762 99.9987C90.7985 99.9987 91.238 99.8223 91.4849 99.4706C92.0131 98.8366 91.9072 97.9214 91.2914 97.3933C91.238 97.358 84.9718 92.1834 82.5075 87.0441L78.1251 76.6596C78.0727 76.5185 76.3653 73.0331 79.7448 67.2598L92.1884 46.4898C92.2237 46.4203 97.3459 37.8833 104.087 37.8833C110.793 37.8833 115.933 46.4203 116.003 46.5251L128.43 67.2245C131.809 73.0331 130.102 76.5003 130.05 76.6596C130.014 76.6939 129.996 76.7473 129.961 76.7644L125.72 86.9907C123.22 92.1834 116.937 97.358 116.866 97.4114C116.267 97.9043 116.162 98.8195 116.654 99.4534C116.954 99.8052 117.376 99.9806 117.798 99.9806C118.116 99.9806 118.432 99.8758 118.714 99.6288C119.013 99.4353 125.561 94.0319 128.342 88.1528L130.172 83.8228C133.569 85.4244 144.465 91.0918 147.228 99.2236C148.865 104.046 149.604 107.391 149.639 107.532L156.223 130.309C156.258 130.413 158.775 137.049 155.29 138.898L143.304 144.283C142.564 144.601 142.229 145.463 142.564 146.185C142.811 146.73 143.321 147.047 143.901 147.047C144.095 147.047 144.271 147.012 144.5 146.907L156.557 141.538C162.365 138.405 159.074 129.675 158.986 129.428L152.473 106.828C152.438 106.687 151.664 103.291 149.974 98.3085C146.806 88.9268 134.943 82.8371 131.299 81.1478L132.637 77.9265C132.989 77.222 134.943 72.5937 130.911 65.7459L118.485 45.0294C118.239 44.6071 112.483 34.9785 104.087 34.9785C95.6909 34.9785 89.9176 44.6071 89.6888 45.0294L77.2623 65.7812C73.2317 72.6108 75.186 77.222 75.5549 77.9265L76.8934 81.1478C73.2498 82.8371 61.3686 88.9268 58.1826 98.3085C56.4752 103.291 55.7364 106.687 55.7364 106.722L49.2233 129.305C49.065 129.675 45.7914 138.422 51.6876 141.573L63.6918 146.907Z" fill="#BD76F6"/>
</g>
<path d="M121.073 77.4509C121.336 77.6444 121.654 77.7503 121.97 77.7503C122.392 77.7503 122.85 77.5396 123.114 77.1697C123.607 76.5005 123.467 75.6205 122.833 75.1277L108.452 64.2675C106.006 62.42 102.169 62.42 99.7225 64.2675L85.3417 75.1277C84.6724 75.6205 84.5676 76.5005 85.0252 77.1697C85.5181 77.7855 86.4332 77.9266 87.0662 77.4509L89.8833 75.3565L95.7967 92.6058C96.5184 94.7003 98.8245 96.3552 101.06 96.3552H107.133C109.385 96.3552 111.638 94.7003 112.378 92.624L118.309 75.3746L121.073 77.4509Z" fill="#BD76F6"/>
<path d="M184.719 160.548L164.513 147.453C164.266 147.311 163.984 147.241 163.72 147.241H139.237L141.806 106.142C141.806 105.737 141.683 105.332 141.419 105.051C141.138 104.751 140.75 104.61 140.363 104.61H67.8108C67.4227 104.61 67.0357 104.769 66.7545 105.068C66.4904 105.35 66.3493 105.737 66.3493 106.142L68.9195 147.241H44.4535C44.1713 147.241 43.9072 147.311 43.6613 147.453L23.4729 160.548C22.8036 161.041 22.592 161.921 23.0495 162.572C23.3318 163.012 23.7894 163.259 24.2822 163.259C24.5634 163.259 24.8275 163.117 25.0744 163.012L44.8929 150.128H69.0949L69.2712 152.979C69.3065 153.736 69.9758 154.282 70.7327 154.282H137.459C138.233 154.282 138.867 153.736 138.92 152.979L139.078 150.128H163.298L183.118 163.012C183.382 163.117 183.628 163.259 183.927 163.259C184.402 163.259 184.859 163.012 185.141 162.572C185.564 161.921 185.37 161.041 184.719 160.548Z" fill="#BD76F6"/>
</g>
</g>
<defs>
<filter id="filter0_d_183_596" x="0" y="0" width="208" height="208" filterUnits="userSpaceOnUse" color-interpolation-filters="sRGB">
<feFlood flood-opacity="0" result="BackgroundImageFix"/>
<feColorMatrix in="SourceAlpha" type="matrix" values="0 0 0 0 0 0 0 0 0 0 0 0 0 0 0 0 0 0 127 0" result="hardAlpha"/>
<feOffset dy="4"/>
<feGaussianBlur stdDeviation="2"/>
<feComposite in2="hardAlpha" operator="out"/>
<feColorMatrix type="matrix" values="0 0 0 0 0 0 0 0 0 0 0 0 0 0 0 0 0 0 0.25 0"/>
<feBlend mode="normal" in2="BackgroundImageFix" result="effect1_dropShadow_183_596"/>
<feBlend mode="normal" in="SourceGraphic" in2="effect1_dropShadow_183_596" result="shape"/>
</filter>
<clipPath id="clip0_183_596">
<rect x="4" width="200" height="200" rx="16" fill="white"/>
</clipPath>
</defs>
</svg>
