<svg width="172" height="147" viewBox="0 0 172 147" fill="none" xmlns="http://www.w3.org/2000/svg">
<path d="M62.6946 102.798H108.305L110.32 75.8407C110.336 75.6178 110.229 75.4669 110.164 75.3966C110.099 75.3263 109.956 75.208 109.733 75.208H61.2674C61.0434 75.208 60.9006 75.3263 60.8358 75.3966C60.7704 75.4669 60.663 75.6178 60.6799 75.8407L62.6946 102.798ZM109.423 105.208H61.5764C60.9459 105.208 60.4222 104.721 60.3748 104.092L58.2767 76.0205C58.2151 75.1917 58.504 74.3666 59.0696 73.7574C59.6347 73.1481 60.4358 72.7988 61.2674 72.7988H109.733C110.564 72.7988 111.365 73.1481 111.93 73.7574C112.496 74.3666 112.784 75.1917 112.723 76.0205L110.625 104.092C110.577 104.721 110.054 105.208 109.423 105.208Z" fill="#BD76F6"/>
<path d="M85.5002 74.8642C85.1356 74.8642 84.7907 74.6991 84.5623 74.4157L79.8017 68.5139C79.6289 68.2998 79.5347 68.0327 79.5347 67.7575V63.532C79.5347 62.8666 80.0736 62.3271 80.739 62.3271C81.4044 62.3271 81.9439 62.8666 81.9439 63.532V67.3325L85.5002 71.74L89.056 67.3325V63.532C89.056 62.8666 89.5955 62.3271 90.2608 62.3271C90.9262 62.3271 91.4657 62.8666 91.4657 63.532V67.7575C91.4657 68.0327 91.3714 68.2998 91.1981 68.5139L86.4375 74.4157C86.2092 74.6991 85.8642 74.8642 85.5002 74.8642Z" fill="#BD76F6"/>
<mask id="mask0_183_477" style="mask-type:luminance" maskUnits="userSpaceOnUse" x="72" y="34" width="27" height="19">
<path d="M72.9443 34.5928H98.0554V52.7139H72.9443V34.5928Z" fill="white"/>
</mask>
<g mask="url(#mask0_183_477)">
<path d="M96.7131 52.5934C96.0477 52.5934 95.5088 52.0539 95.5088 51.3886L92.8705 47.011C87.7756 45.2501 91.0441 47.7263 85.5455 47.7067C85.5341 47.7067 85.5134 37.0025 85.5014 37.0025C88.5715 39.723 88.6239 44.5902 86.7292 46.4784C84.7979 48.4026 81.4617 49.549 78.7455 48.3208L75.4913 51.3886C75.4913 52.0539 74.9518 52.5934 74.2864 52.5934C73.621 52.5934 73.0815 52.0539 73.0815 51.3886V47.0982C73.0815 45.4116 73.4167 43.7697 74.0777 42.2177C74.7158 40.7207 75.627 39.3763 76.785 38.2227C79.1348 35.881 82.229 34.5928 85.5014 34.5928C85.5161 34.5928 85.5308 34.5928 85.5455 34.5928C88.8528 34.6053 91.9607 35.9017 94.2957 38.245C96.6319 40.5888 97.918 43.7026 97.918 47.011V51.3886C97.918 52.0539 97.3785 52.5934 96.7131 52.5934Z" fill="#BD76F6"/>
</g>
<path d="M78.4029 50.392V56.7095C78.4029 60.6228 81.5865 63.8064 85.5003 63.8064C89.4135 63.8064 92.5971 60.6228 92.5971 56.7095V49.6557L90.3094 47.1016C86.6828 49.841 80.926 50.3195 78.4029 50.392ZM85.5003 66.2161C80.2579 66.2161 75.9932 61.9514 75.9932 56.7095V49.1942C75.9932 48.8683 76.1256 48.5566 76.3594 48.3299C76.5931 48.1032 76.907 47.9806 77.234 47.9898C77.3207 47.992 85.9335 48.198 89.5661 44.5654C89.8005 44.3316 90.1214 44.2041 90.4511 44.2134C90.7819 44.2221 91.0947 44.367 91.3154 44.6139L94.6995 48.3904C94.8973 48.6116 95.0069 48.8977 95.0069 49.1942V56.7095C95.0069 61.9514 90.7421 66.2161 85.5003 66.2161Z" fill="#BD76F6"/>
<path d="M75.9932 52.1309C75.0205 52.1445 74.2325 52.9401 74.2325 53.9167C74.2325 54.8927 75.0205 55.6883 75.9932 55.7019V52.1309ZM77.1981 58.1117H76.0183C73.705 58.1117 71.8228 56.2294 71.8228 53.9167C71.8228 51.6034 73.705 49.7217 76.0183 49.7217H77.1981C77.8635 49.7217 78.403 50.2606 78.403 50.9266V56.9068C78.403 57.5722 77.8635 58.1117 77.1981 58.1117Z" fill="#BD76F6"/>
<path d="M95.0059 52.1309V55.7019C95.9787 55.6883 96.7667 54.8927 96.7667 53.9167C96.7667 52.9401 95.9787 52.1445 95.0059 52.1309ZM94.9814 58.1117H93.8011C93.1357 58.1117 92.5962 57.5722 92.5962 56.9068V50.9266C92.5962 50.2606 93.1357 49.7217 93.8011 49.7217H94.9814C97.2942 49.7217 99.1764 51.6034 99.1764 53.9167C99.1764 56.2294 97.2942 58.1117 94.9814 58.1117Z" fill="#BD76F6"/>
<path d="M65.9454 75.2082C65.68 75.2082 65.4136 75.121 65.1907 74.9417C64.6724 74.5248 64.5901 73.7663 65.0076 73.248C66.3421 71.5897 68.123 70.381 70.1584 69.7516L80.4252 66.5784C81.0611 66.3839 81.7347 66.7414 81.9298 67.3773C82.1249 68.0133 81.7674 68.6874 81.1314 68.8824L81.0917 68.8944L70.8701 72.0535C69.2952 72.5407 67.917 73.4763 66.8844 74.7591C66.6468 75.0545 66.2975 75.2082 65.9454 75.2082Z" fill="#BD76F6"/>
<path d="M105.053 75.2074C104.701 75.2074 104.352 75.0537 104.114 74.7584C103.082 73.4756 101.703 72.5399 100.129 72.0527L89.8672 68.8817C89.2313 68.6866 88.8738 68.0125 89.0689 67.3765C89.264 66.7406 89.9381 66.3825 90.574 66.5776L90.6138 66.5902L100.84 69.7509C102.876 70.3803 104.657 71.589 105.991 73.2472C106.409 73.7655 106.326 74.524 105.808 74.9409C105.586 75.1202 105.318 75.2074 105.053 75.2074Z" fill="#BD76F6"/>
<path d="M79.5712 94.918C79.3145 94.918 79.0557 94.8358 78.8361 94.6674L72.7294 89.9568C72.434 89.7291 72.2607 89.3765 72.2607 89.0026C72.2607 88.6294 72.434 88.2768 72.7294 88.049L78.8361 83.3385C79.363 82.9325 80.12 83.03 80.5259 83.557C80.9325 84.084 80.8349 84.8403 80.308 85.2469L75.4383 89.0026L80.308 92.759C80.8349 93.1655 80.9325 93.9219 80.5259 94.4494C80.2889 94.7567 79.9319 94.918 79.5712 94.918Z" fill="#BD76F6"/>
<path d="M91.4279 94.918C91.0672 94.918 90.7102 94.7567 90.4732 94.4494C90.0667 93.9219 90.1642 93.1655 90.6912 92.759L95.5608 89.0026L90.6912 85.2469C90.1642 84.8403 90.0667 84.084 90.4732 83.557C90.8797 83.03 91.6361 82.9325 92.1631 83.3385L98.2697 88.049C98.5651 88.2768 98.7384 88.6294 98.7384 89.0026C98.7384 89.3765 98.5651 89.7291 98.2697 89.9568L92.1631 94.6674C91.9435 94.8358 91.6846 94.918 91.4279 94.918Z" fill="#BD76F6"/>
<path d="M83.2767 98.5074C83.1737 98.5074 83.0685 98.4944 82.9644 98.466C82.3214 98.2944 81.9399 97.6339 82.1121 96.9909L86.56 80.3923C86.7322 79.7493 87.3927 79.3678 88.0352 79.5406C88.6782 79.7122 89.0597 80.3733 88.8875 81.0158L84.4396 97.6143C84.2957 98.1532 83.8086 98.5074 83.2767 98.5074Z" fill="#BD76F6"/>
<mask id="mask1_183_477" style="mask-type:luminance" maskUnits="userSpaceOnUse" x="41" y="102" width="89" height="11">
<path d="M41.6113 102.808H129.385V112.405H41.6113V102.808Z" fill="white"/>
</mask>
<g mask="url(#mask1_183_477)">
<path d="M44.0227 109.995H126.978C126.902 107.353 124.729 105.228 122.069 105.228H48.9316C46.2717 105.228 44.099 107.353 44.0227 109.995ZM128.185 112.405H42.8157C42.1503 112.405 41.6113 111.865 41.6113 111.2V110.139C41.6113 106.102 44.8952 102.818 48.9316 102.818H122.069C126.106 102.818 129.39 106.102 129.39 110.139V111.2C129.39 111.865 128.851 112.405 128.185 112.405Z" fill="#BD76F6"/>
<path d="M44.0227 109.995H126.978C126.902 107.353 124.729 105.228 122.069 105.228H48.9316C46.2717 105.228 44.099 107.353 44.0227 109.995Z" fill="#BD76F6"/>
</g>
<circle cx="87.5449" cy="73.5" r="73.0318" stroke="#BD76F6" stroke-width="0.936306" stroke-dasharray="3.75 3.75"/>
<circle cx="42.0446" cy="16.0446" r="14.0446" fill="#EDDDFA"/>
<circle cx="136.045" cy="16.0446" r="14.0446" fill="#EDDDFA"/>
<circle cx="157.045" cy="74.0446" r="14.0446" fill="#EDDDFA"/>
<circle cx="14.0446" cy="74.0446" r="14.0446" fill="#EDDDFA"/>
<circle cx="42.0446" cy="131.045" r="14.0446" fill="#EDDDFA"/>
<circle cx="135.764" cy="131.083" r="14.0446" fill="#EDDDFA"/>
<path d="M47.6535 11.1367L46.6234 22.6762L41.9932 23.9599L37.3757 22.678L36.3467 11.1367H47.6535Z" fill="#E44D26"/>
<path d="M42 22.9784L45.7415 21.9411L46.6217 12.0801H42V22.9784Z" fill="#F16529"/>
<path d="M39.9976 14.9116H42.0001V13.4961H38.4507L38.4845 13.8758L38.8325 17.7766H42.0001V16.3611H40.127L39.9976 14.9116ZM40.3167 18.4843H38.8957L39.094 20.7069L41.9936 21.5117L42.0001 21.51V20.0373L41.9939 20.0389L40.4174 19.6132L40.3167 18.4843Z" fill="#EBEBEB"/>
<path d="M37.3975 8H38.1168V8.71069H38.7748V8H39.4942V10.1522H38.7749V9.43149H38.1168V10.1522H37.3975L37.3975 8ZM40.4401 8.71371H39.8069V8H41.7932V8.71371H41.1596V10.1522H40.4403V8.71371H40.4401ZM42.1084 8H42.8584L43.3198 8.75621L43.7808 8H44.5311V10.1522H43.8147V9.08543L43.3198 9.85064H43.3074L42.8122 9.08543V10.1522H42.1084V8ZM44.8891 8H45.6087V9.4408H46.6202V10.1522H44.8891V8H44.8891Z" fill="black"/>
<path d="M41.9947 17.7766H43.7377L43.5734 19.6123L41.9946 20.0385V21.5111L44.8965 20.7069L44.9178 20.4677L45.2504 16.7412L45.285 16.3611H41.9947V17.7766ZM41.9947 14.9081V14.9116H45.4138L45.4421 14.5934L45.5067 13.8758L45.5405 13.4961H41.9947V14.9081Z" fill="white"/>
<g clip-path="url(#clip0_183_477)">
<path d="M129 9H143V23H129V9Z" fill="#F7DF1E"/>
<path d="M132.681 20.6998L133.753 20.0515C133.959 20.4179 134.147 20.728 134.598 20.728C135.031 20.728 135.303 20.5589 135.303 19.9011V15.4278H136.619V19.9197C136.619 21.2824 135.82 21.9026 134.655 21.9026C133.602 21.9026 132.991 21.3576 132.681 20.6997M137.333 20.5588L138.405 19.9386C138.687 20.3992 139.053 20.7375 139.702 20.7375C140.247 20.7375 140.594 20.4649 140.594 20.089C140.594 19.6379 140.237 19.4781 139.636 19.2151L139.307 19.074C138.358 18.67 137.728 18.1625 137.728 17.0912C137.728 16.1044 138.48 15.3525 139.655 15.3525C140.491 15.3525 141.092 15.6439 141.525 16.4051L140.5 17.063C140.275 16.6589 140.03 16.4992 139.655 16.4992C139.269 16.4992 139.025 16.7435 139.025 17.063C139.025 17.4577 139.269 17.6175 139.833 17.8619L140.162 18.0028C141.28 18.4821 141.91 18.9708 141.91 20.0702C141.91 21.2544 140.98 21.9028 139.73 21.9028C138.508 21.9028 137.719 21.3201 137.333 20.5589" fill="black"/>
</g>
<g clip-path="url(#clip1_183_477)">
<path fill-rule="evenodd" clip-rule="evenodd" d="M164.081 69.9016C164.113 70.1409 164.131 70.3965 164.131 70.6725C164.131 71.991 164.009 72.0653 161.27 79.983C163.5 78.6825 165 76.2668 165 73.5C165 72.1958 164.667 70.9696 164.081 69.9016ZM157.632 74.1562L155.381 80.6946C156.9 81.1416 158.509 81.0961 159.991 80.5756C159.97 80.5433 159.953 80.5087 159.938 80.4719L157.632 74.1562ZM162.563 73.1213C162.563 72.1943 162.23 71.5521 161.944 71.0526C161.565 70.4346 161.208 69.9121 161.208 69.2941C161.208 68.6048 161.731 67.9629 162.468 67.9629C162.501 67.9629 162.533 67.9672 162.565 67.9688C161.231 66.7463 159.453 66 157.5 66C154.88 66 152.575 67.3439 151.234 69.3801C151.712 69.3951 152.353 69.4013 153.715 69.2948C154.12 69.2708 154.167 69.8646 153.764 69.9119C153.764 69.9119 153.357 69.96 152.905 69.984L155.636 78.108L157.277 73.1851L156.109 69.9833C155.705 69.96 155.323 69.9119 155.323 69.9119C154.918 69.8879 154.966 69.2701 155.37 69.2941C156.92 69.4133 157.714 69.4223 159.344 69.2941C159.748 69.2701 159.796 69.8639 159.392 69.9119C159.392 69.9119 158.985 69.96 158.534 69.9833L161.244 78.0458C162.314 74.4698 162.563 73.8713 162.563 73.1213ZM150 73.5C150 76.4685 151.725 79.0343 154.227 80.25L150.649 70.4476C150.233 71.3806 150 72.4125 150 73.5Z" fill="#00759D"/>
</g>
<path d="M136 136.242C141.523 136.242 146 133.888 146 130.984C146 128.081 141.523 125.727 136 125.727C130.477 125.727 126 128.081 126 130.984C126 133.888 130.477 136.242 136 136.242Z" fill="url(#paint0_radial_183_477)"/>
<path d="M136 135.852C141.307 135.852 145.609 133.672 145.609 130.984C145.609 128.296 141.307 126.117 136 126.117C130.693 126.117 126.391 128.296 126.391 130.984C126.391 133.672 130.693 135.852 136 135.852Z" fill="#6181B6"/>
<path d="M137.945 132.562L138.422 130.109C138.531 129.555 138.437 129.141 138.156 128.883C137.883 128.633 137.414 128.508 136.726 128.508H135.898L136.133 127.289C136.141 127.242 136.133 127.195 136.101 127.156C136.07 127.117 136.031 127.102 135.984 127.102H134.844C134.766 127.102 134.703 127.156 134.687 127.227L134.18 129.828C134.133 129.531 134.023 129.281 133.836 129.078C133.5 128.695 132.976 128.5 132.266 128.5H130.07C129.992 128.5 129.93 128.555 129.914 128.625L128.891 133.906C128.883 133.953 128.891 134 128.922 134.039C128.953 134.078 128.992 134.094 129.039 134.094H130.187C130.266 134.094 130.328 134.039 130.344 133.969L130.594 132.695H131.445C131.891 132.695 132.273 132.648 132.562 132.555C132.867 132.453 133.141 132.289 133.383 132.062C133.578 131.883 133.742 131.68 133.867 131.461L133.664 132.516C133.656 132.563 133.664 132.609 133.695 132.648C133.726 132.688 133.766 132.703 133.812 132.703H134.953C135.031 132.703 135.094 132.648 135.109 132.578L135.672 129.688H136.453C136.789 129.688 136.883 129.75 136.914 129.781C136.937 129.805 136.984 129.898 136.93 130.188L136.476 132.523C136.469 132.57 136.476 132.617 136.508 132.656C136.539 132.695 136.578 132.711 136.625 132.711H137.797C137.867 132.688 137.93 132.633 137.945 132.562ZM132.664 130.531C132.594 130.898 132.461 131.164 132.266 131.312C132.07 131.461 131.75 131.539 131.328 131.539H130.82L131.187 129.648H131.844C132.328 129.648 132.523 129.75 132.601 129.836C132.703 129.961 132.726 130.203 132.664 130.531Z" fill="white"/>
<path d="M142.82 129.078C142.484 128.695 141.961 128.5 141.25 128.5H139.039C138.961 128.5 138.898 128.555 138.883 128.625L137.859 133.898C137.851 133.945 137.859 133.992 137.891 134.031C137.922 134.07 137.961 134.086 138.008 134.086H139.156C139.234 134.086 139.297 134.031 139.312 133.961L139.562 132.688H140.414C140.859 132.688 141.242 132.641 141.531 132.547C141.836 132.445 142.109 132.281 142.351 132.055C142.555 131.867 142.726 131.656 142.851 131.43C142.976 131.203 143.07 130.953 143.125 130.68C143.258 130 143.156 129.469 142.82 129.078ZM141.625 130.531C141.555 130.898 141.422 131.164 141.226 131.312C141.031 131.461 140.711 131.539 140.289 131.539H139.781L140.148 129.648H140.805C141.289 129.648 141.484 129.75 141.562 129.836C141.672 129.961 141.695 130.203 141.625 130.531Z" fill="white"/>
<path d="M131.844 129.492C132.281 129.492 132.57 129.57 132.719 129.734C132.867 129.898 132.898 130.172 132.82 130.563C132.742 130.969 132.586 131.266 132.359 131.438C132.133 131.609 131.789 131.695 131.328 131.695H130.633L131.063 129.492H131.844ZM129.047 133.93H130.195L130.469 132.531H131.453C131.891 132.531 132.242 132.484 132.523 132.391C132.805 132.297 133.055 132.148 133.289 131.93C133.484 131.75 133.641 131.555 133.758 131.344C133.875 131.133 133.961 130.898 134.008 130.641C134.133 130.016 134.039 129.531 133.734 129.18C133.43 128.828 132.945 128.656 132.281 128.656H130.07L129.047 133.93Z" fill="#000004"/>
<path d="M134.852 127.258H135.992L135.719 128.656H136.734C137.375 128.656 137.813 128.766 138.055 128.992C138.297 129.219 138.367 129.578 138.273 130.078L137.797 132.531H136.641L137.094 130.195C137.148 129.93 137.125 129.75 137.039 129.656C136.953 129.562 136.758 129.508 136.469 129.508H135.555L134.969 132.531H133.828L134.852 127.258Z" fill="#000004"/>
<path d="M140.805 129.492C141.242 129.492 141.531 129.57 141.68 129.734C141.828 129.898 141.859 130.172 141.781 130.563C141.703 130.969 141.547 131.266 141.32 131.438C141.094 131.609 140.75 131.695 140.289 131.695H139.594L140.023 129.492H140.805ZM138.008 133.93H139.156L139.43 132.531H140.414C140.852 132.531 141.203 132.484 141.484 132.391C141.766 132.297 142.016 132.148 142.25 131.93C142.445 131.75 142.602 131.555 142.719 131.344C142.836 131.133 142.922 130.898 142.969 130.641C143.094 130.016 143 129.531 142.695 129.18C142.391 128.828 141.906 128.656 141.242 128.656H139.031L138.008 133.93Z" fill="#000004"/>
<path d="M42.5232 127.957C45.6114 125.559 44.0264 124 44.0264 124C44.2623 126.478 41.4748 127.064 40.7275 128.767C40.2177 129.929 41.0767 130.947 42.5222 132.229C42.3944 131.945 42.1973 131.669 41.9978 131.39C41.3172 130.437 40.6083 129.444 42.5232 127.957Z" fill="#E76F00"/>
<path d="M43.0157 132.755C43.0157 132.755 43.9448 132.005 43.209 131.172C40.7149 128.346 45.9369 127.063 45.9369 127.063C42.7486 128.599 43.2246 129.511 44.026 130.619C44.884 131.806 43.0157 132.755 43.0157 132.755Z" fill="#E76F00"/>
<path d="M45.7519 134.99C48.6137 133.527 47.2905 132.122 46.3669 132.311C46.1405 132.358 46.0396 132.398 46.0396 132.398C46.0396 132.398 46.1237 132.269 46.2842 132.212C48.1113 131.581 49.5165 134.075 45.6943 135.064C45.6943 135.064 45.7386 135.025 45.7519 134.99Z" fill="#5382A1"/>
<path d="M39.7973 133.139C38.0067 132.904 40.7791 132.256 40.7791 132.256C40.7791 132.256 39.7025 132.185 38.3784 132.814C36.8127 133.559 42.2513 133.898 45.0665 133.17C45.3592 132.973 45.7637 132.803 45.7637 132.803C45.7637 132.803 44.6117 133.005 43.4644 133.1C42.0605 133.216 40.5533 133.239 39.7973 133.139Z" fill="#5382A1"/>
<path d="M40.4782 134.535C39.4797 134.434 40.1335 133.958 40.1335 133.958C37.5497 134.801 41.571 135.758 45.1814 134.719C44.7976 134.586 44.5536 134.343 44.5536 134.343C42.7891 134.677 41.7694 134.666 40.4782 134.535Z" fill="#5382A1"/>
<path d="M40.9132 136.047C39.9155 135.934 40.4984 135.601 40.4984 135.601C38.153 136.245 41.925 137.576 44.9111 136.318C44.422 136.131 44.0718 135.915 44.0718 135.915C42.7398 136.163 42.122 136.182 40.9132 136.047Z" fill="#5382A1"/>
<path d="M47.1588 136.815C47.1588 136.815 47.5901 137.165 46.6837 137.435C44.96 137.949 39.5098 138.104 37.9958 137.456C37.4515 137.223 38.4721 136.9 38.7932 136.832C39.128 136.761 39.3194 136.774 39.3194 136.774C38.7141 136.355 35.4071 137.597 37.6396 137.953C43.7279 138.924 48.738 137.516 47.1588 136.815Z" fill="#5382A1"/>
<path d="M48.1251 137.579C48.0252 138.857 43.8068 139.126 41.0598 138.953C39.2677 138.84 38.9086 138.558 38.9033 138.554C40.6185 138.832 43.5102 138.882 45.8548 138.448C47.933 138.064 48.1251 137.579 48.1251 137.579Z" fill="#5382A1"/>
<path fill-rule="evenodd" clip-rule="evenodd" d="M23.1296 72.0723L23.9663 72.0769C23.9663 72.0769 22.4106 74.1848 22.2836 74.3566C22.2424 74.4123 22.1797 74.4723 22.1479 74.5466C22.0676 74.7336 21.9851 75.1437 21.9851 75.1437L21.2195 75.1475C21.2195 75.1475 21.3386 74.72 21.3337 74.4923C21.3294 74.2934 21.2278 74.0948 21.1709 73.8953C21.1133 73.6933 21.0352 73.2982 21.0352 73.2982H21.8222L21.9308 73.7324L23.1296 72.0723Z" fill="#1A1918"/>
<path fill-rule="evenodd" clip-rule="evenodd" d="M21.545 72.5161C21.6994 72.6092 21.7941 73.1227 21.7941 73.1227C21.7941 73.1227 20.9862 73.1346 20.5465 73.1346H20.1665L19.7051 75.143H18.9995C18.9995 75.143 19.4386 72.9604 19.5423 72.5647C19.5759 72.4366 19.7725 72.4586 20.1044 72.4586H20.6344C20.9767 72.4586 21.3767 72.4149 21.545 72.5161Z" fill="#1A1918"/>
<path fill-rule="evenodd" clip-rule="evenodd" d="M18.2598 73.4948C18.2598 73.4948 18.2818 73.3658 18.1852 73.2166C18.1027 73.0893 18.0264 73.0597 17.8093 73.0529C17.1962 73.0337 17.2081 73.488 17.2081 73.488L18.2598 73.4948ZM18.9248 72.9745C19.0146 73.2986 18.8433 74.0601 18.8433 74.0601C18.8433 74.0601 17.949 74.0452 17.4592 74.0601C17.3069 74.0647 17.1246 74.0435 17.0792 74.1144C17.0154 74.2137 17.1025 74.3665 17.1764 74.4311C17.2613 74.5055 17.4269 74.5139 17.4863 74.5215C17.8839 74.572 18.7161 74.5345 18.7161 74.5345L18.5719 75.1728C18.5719 75.1728 17.396 75.2317 16.8078 75.0914C16.6917 75.0637 16.5828 75.0078 16.5093 74.9286C16.4892 74.9069 16.4718 74.8773 16.4528 74.8518C16.4376 74.8314 16.3934 74.7644 16.3736 74.7114C16.2392 74.3535 16.3893 73.6676 16.5364 73.3002C16.5535 73.2576 16.5749 73.2036 16.5975 73.1577C16.6257 73.1004 16.6496 73.0358 16.6721 73.0016C16.6873 72.978 16.7061 72.9628 16.7218 72.9406C16.74 72.9142 16.7611 72.8887 16.7807 72.866C16.8349 72.803 16.8966 72.7584 16.9707 72.7031C17.2157 72.5196 17.6592 72.3771 18.192 72.4317C18.3925 72.4523 18.6954 72.524 18.8433 72.7302C18.883 72.7853 18.9025 72.8947 18.9248 72.9745Z" fill="#1A1918"/>
<path fill-rule="evenodd" clip-rule="evenodd" d="M15.6883 72.4562L16.3725 72.4521C16.3725 72.4521 15.9912 74.261 15.7969 75.1431H15.0098C14.4597 75.1431 13.9698 75.2112 13.7614 74.8174C13.5592 74.435 13.7521 73.8062 13.8428 73.379C13.9069 73.0766 14.0418 72.4587 14.0418 72.4587L14.7506 72.4521C14.7506 72.4521 14.5503 73.4143 14.467 73.8946C14.4372 74.0667 14.3756 74.2287 14.4399 74.356C14.501 74.4771 14.5864 74.4857 14.847 74.4917C14.9295 74.4936 15.1998 74.4917 15.1998 74.4917L15.6883 72.4562Z" fill="#1A1918"/>
<path fill-rule="evenodd" clip-rule="evenodd" d="M12.4859 73.7593C12.5576 73.5047 12.662 73.2287 12.6487 72.9994C12.6344 72.754 12.4287 72.5307 12.296 72.4837C11.8962 72.3426 11.5219 72.5399 11.3732 72.7008C11.1807 72.9093 11.1156 73.1527 11.0475 73.4879C10.9968 73.7368 10.9552 73.9995 11.0475 74.1935C11.2109 74.5366 11.7203 74.4617 12.2688 74.465C12.3502 74.2468 12.4175 74.0017 12.4859 73.7593ZM13.4358 72.7551C13.514 73.3234 13.2141 73.9507 13.0076 74.4962C13.2182 74.5152 13.4027 74.4932 13.416 74.5089C13.4299 74.5293 13.2749 75.16 13.2209 75.1616C13.0537 75.166 12.4998 75.1706 12.2688 75.1706C11.5151 75.1706 10.81 75.2197 10.4504 74.8449C10.3044 74.6927 10.2035 74.4316 10.179 74.2478C10.1383 73.9411 10.1893 73.6035 10.2604 73.3251C10.3248 73.0737 10.4073 72.8365 10.5319 72.6194C10.8486 72.0666 11.3995 71.6562 12.3231 71.7509C12.5022 71.7694 12.7595 71.8478 12.9202 71.9409C12.9313 71.9475 12.9701 71.9784 12.9791 71.9838C13.1962 72.122 13.394 72.4517 13.4358 72.7551Z" fill="#1A1918"/>
<path fill-rule="evenodd" clip-rule="evenodd" d="M10.1013 72.4603C10.0557 72.6679 10.0101 72.9032 9.96207 73.1084H9.20215C9.26104 72.881 9.30609 72.6549 9.36498 72.457C9.60816 72.457 9.83426 72.4603 10.1013 72.4603Z" fill="#1A1918"/>
<path fill-rule="evenodd" clip-rule="evenodd" d="M9.1749 73.2979H9.90766C9.81188 73.8282 9.62218 74.6836 9.47345 75.2791C9.38034 75.6517 9.3182 75.9237 9.06632 76.1204C9.04379 76.1381 9.0308 76.1297 9.01207 76.1476C8.96563 76.1918 8.75096 76.2431 8.63211 76.2561C8.43885 76.277 8.22038 76.2588 7.98291 76.254C8.04506 76.0268 8.11536 75.7541 8.17073 75.5505C8.74962 75.6205 8.76429 75.0734 8.87636 74.5463C8.94122 74.2418 9.13774 73.42 9.1749 73.2979Z" fill="#1A1918"/>
<path fill-rule="evenodd" clip-rule="evenodd" d="M7.46495 74.6829L7.44924 74.7236C7.18162 75.2446 6.70748 75.5644 6.03116 75.5785C5.71499 75.585 5.41372 75.5039 5.21694 75.4156C4.79223 75.2248 4.43503 74.871 4.23993 74.4929C3.96008 73.9509 3.90962 73.1969 4.4915 72.6338C4.50047 72.6338 4.42093 72.7559 4.42989 72.7559L4.41388 72.808C3.99457 74.1208 5.28641 75.2457 6.54219 75.1171C6.84399 75.0862 7.22886 74.9209 7.46495 74.6829Z" fill="#21609B"/>
<path fill-rule="evenodd" clip-rule="evenodd" d="M6.70489 74.1399C7.02083 74.1421 7.35083 73.9944 7.54623 73.7871C7.37527 74.2211 6.88026 74.5 6.21639 74.4113C5.66056 74.3369 5.13106 73.7776 5.0765 73.2171C5.03662 72.8092 5.1788 72.5658 5.41305 72.2705C5.33163 72.425 5.30121 72.5441 5.29363 72.62C5.20462 73.5024 5.99845 74.1353 6.70489 74.1399Z" fill="#21609B"/>
<path fill-rule="evenodd" clip-rule="evenodd" d="M7.51466 73.0438C7.46554 73.1564 7.18274 73.3692 7.05787 73.3958C6.56339 73.5011 6.24669 73.2666 6.08082 72.9998C6.05615 72.9599 6.01056 72.8511 6.0024 72.8234C5.93807 72.6046 5.96764 72.2738 6.15956 72.1025C6.10174 72.2654 6.09331 72.4545 6.12374 72.5775C6.14217 72.6518 6.19833 72.7816 6.25454 72.8633C6.35684 73.012 6.42171 73.0481 6.55308 73.1271C6.61224 73.1627 6.67573 73.1912 6.70316 73.199C6.82772 73.2356 7.09071 73.3323 7.51466 73.0438Z" fill="#21609B"/>
<defs>
<radialGradient id="paint0_radial_183_477" cx="0" cy="0" r="1" gradientUnits="userSpaceOnUse" gradientTransform="translate(132.004 127.576) scale(13.1324)">
<stop stop-color="white"/>
<stop offset="0.5" stop-color="#4C6B97"/>
<stop offset="1" stop-color="#231F20"/>
</radialGradient>
<clipPath id="clip0_183_477">
<rect x="129" y="9" width="14" height="14" rx="2" fill="white"/>
</clipPath>
<clipPath id="clip1_183_477">
<rect width="15" height="15" fill="white" transform="translate(150 66)"/>
</clipPath>
</defs>
</svg>
