<svg width="208" height="208" viewBox="0 0 208 208" fill="none" xmlns="http://www.w3.org/2000/svg">
<g filter="url(#filter0_d_183_462)">
<rect x="4" width="200" height="200" rx="16" fill="white"/>
<g clip-path="url(#clip0_183_462)">
<path d="M83.4007 143.18C83.4007 143.18 77.4213 146.657 87.6562 147.833C100.056 149.248 106.393 149.045 120.057 146.459C120.057 146.459 123.65 148.711 128.667 150.663C98.0352 163.791 59.3408 149.902 83.4007 143.18ZM79.6575 126.048C79.6575 126.048 72.951 131.012 83.1936 132.072C96.4391 133.438 106.899 133.55 125 130.065C125 130.065 127.503 132.603 131.44 133.991C94.404 144.821 53.153 134.845 79.6575 126.048Z" fill="#BD76F6"/>
<path d="M111.214 96.9873C118.762 105.677 109.231 113.497 109.231 113.497C109.231 113.497 128.396 103.603 119.594 91.214C111.374 79.6612 105.07 73.9201 139.197 54.1279C139.197 54.1279 85.6286 67.5071 111.214 96.9873Z" fill="#BD76F6"/>
<path d="M151.727 155.851C151.727 155.851 156.152 159.497 146.853 162.318C129.172 167.674 73.2628 169.292 57.7312 162.531C52.1482 160.103 62.6183 156.732 65.9115 156.024C69.3461 155.28 71.3092 155.419 71.3092 155.419C65.1001 151.044 31.1763 164.007 54.0777 167.719C116.533 177.848 167.927 163.159 151.727 155.851ZM86.2768 108.298C86.2768 108.298 57.8381 115.053 76.2063 117.505C83.9617 118.544 99.4221 118.309 113.823 117.102C125.593 116.11 137.411 113.999 137.411 113.999C137.411 113.999 133.261 115.776 130.258 117.826C101.379 125.421 45.5889 121.888 61.6501 114.119C75.2331 107.553 86.2768 108.298 86.2768 108.298ZM137.293 136.814C166.651 121.559 153.077 106.899 143.603 108.874C141.281 109.357 140.245 109.776 140.245 109.776C140.245 109.776 141.108 108.426 142.754 107.841C161.497 101.251 175.912 127.276 136.703 137.583C136.703 137.583 137.158 137.177 137.293 136.814Z" fill="#BD76F6"/>
<path d="M119.593 22.1684C119.593 22.1684 135.852 38.4331 104.172 63.4421C78.769 83.5043 98.3794 94.943 104.162 108.012C89.3333 94.6335 78.4509 82.8559 85.7519 71.8947C96.4671 55.8036 126.153 48.0029 119.593 22.1684Z" fill="#BD76F6"/>
<path d="M89.1612 178.152C117.341 179.956 160.613 177.151 161.638 163.817C161.638 163.817 159.668 168.873 138.349 172.887C114.298 177.413 84.6334 176.884 67.0391 173.983C67.0395 173.983 70.6404 176.965 89.1612 178.152Z" fill="#BD76F6"/>
</g>
</g>
<defs>
<filter id="filter0_d_183_462" x="0" y="0" width="208" height="208" filterUnits="userSpaceOnUse" color-interpolation-filters="sRGB">
<feFlood flood-opacity="0" result="BackgroundImageFix"/>
<feColorMatrix in="SourceAlpha" type="matrix" values="0 0 0 0 0 0 0 0 0 0 0 0 0 0 0 0 0 0 127 0" result="hardAlpha"/>
<feOffset dy="4"/>
<feGaussianBlur stdDeviation="2"/>
<feComposite in2="hardAlpha" operator="out"/>
<feColorMatrix type="matrix" values="0 0 0 0 0 0 0 0 0 0 0 0 0 0 0 0 0 0 0.25 0"/>
<feBlend mode="normal" in2="BackgroundImageFix" result="effect1_dropShadow_183_462"/>
<feBlend mode="normal" in="SourceGraphic" in2="effect1_dropShadow_183_462" result="shape"/>
</filter>
<clipPath id="clip0_183_462">
<rect width="116" height="156.757" fill="white" transform="translate(46 22)"/>
</clipPath>
</defs>
</svg>
