<svg width="208" height="208" viewBox="0 0 208 208" fill="none" xmlns="http://www.w3.org/2000/svg">
<g filter="url(#filter0_d_183_611)">
<g clip-path="url(#clip0_183_611)">
<rect x="4" width="200" height="200" rx="16" fill="white"/>
<mask id="mask0_183_611" style="mask-type:luminance" maskUnits="userSpaceOnUse" x="33" y="29" width="142" height="142">
<path d="M33.5591 29.9854H174.426V170.093H33.5591V29.9854Z" fill="white"/>
</mask>
<g mask="url(#mask0_183_611)">
<path d="M167.198 94.5374C163.811 94.5374 160.961 96.8757 160.175 100.023H138.465V85.3069H166.029C166.997 85.3069 167.783 84.5208 167.783 83.5532V66.5608C170.93 65.7747 173.269 62.9253 173.269 59.5377C173.269 55.5444 170.021 52.2979 166.029 52.2979C162.037 52.2979 158.789 55.5444 158.789 59.5377C158.789 62.9253 161.128 65.7747 164.275 66.5608V81.8004H138.465V78.8271C138.465 73.7039 134.603 69.4686 129.637 68.873V55.5887H138.006C138.792 58.7364 141.642 61.0748 145.029 61.0748C149.022 61.0748 152.269 57.8273 152.269 53.835C152.269 49.8426 149.022 46.5952 145.029 46.5952C141.642 46.5952 138.792 48.9335 138.006 52.0812H127.884C126.917 52.0812 126.131 52.8674 126.131 53.835V68.7964H108.319V44.2336C111.467 43.4475 113.805 40.5981 113.805 37.2105C113.805 33.2182 110.558 29.9707 106.565 29.9707C102.573 29.9707 99.3256 33.2182 99.3256 37.2105C99.3256 40.5981 101.664 43.4475 104.812 44.2336V68.7964H90.2806V37.8657C90.2806 36.8981 89.4934 36.1119 88.5268 36.1119H70.706C69.9198 32.9642 67.0705 30.6258 63.6829 30.6258C59.6906 30.6258 56.4431 33.8723 56.4431 37.8657C56.4431 41.858 59.6906 45.1045 63.6829 45.1045C67.0705 45.1045 69.9198 42.7671 70.706 39.6184H86.7731V68.7964H81.7285C77.6948 68.7964 74.2105 71.1901 72.621 74.6332H58.3581V65.8361C61.5058 65.05 63.8441 62.1996 63.8441 58.812C63.8441 54.8197 60.5967 51.5732 56.6043 51.5732C52.612 51.5732 49.3645 54.8197 49.3645 58.812C49.3645 62.1996 51.7029 65.05 54.8506 65.8361V76.3869C54.8506 77.3545 55.6367 78.1407 56.6043 78.1407H71.727C71.7119 78.3685 71.6998 78.5963 71.6998 78.8271V96.5249H47.8244C47.0383 93.3772 44.1879 91.0389 40.8013 91.0389C36.808 91.0389 33.5615 94.2854 33.5615 98.2787C33.5615 102.271 36.808 105.518 40.8013 105.518C44.1879 105.518 47.0383 103.18 47.8244 100.032H71.6998V114.342H41.02C40.0525 114.342 39.2663 115.128 39.2663 116.096V133.088C36.1186 133.874 33.7802 136.724 33.7802 140.112C33.7802 144.104 37.0277 147.351 41.02 147.351C45.0124 147.351 48.2599 144.104 48.2599 140.112C48.2599 136.724 45.9215 133.874 42.7738 133.088V117.849H71.6998V125.533C71.6998 130.268 74.9997 134.246 79.4224 135.292V144.697H71.0547C70.2686 141.549 67.4182 139.212 64.0306 139.212C60.0383 139.212 56.7908 142.458 56.7908 146.451C56.7908 150.443 60.0383 153.691 64.0306 153.691C67.4182 153.691 70.2686 151.352 71.0547 148.204H81.1762C82.1427 148.204 82.9289 147.418 82.9289 146.451V135.564H101.179V155.515C98.0314 156.301 95.6931 159.15 95.6931 162.538C95.6931 166.53 98.9405 169.778 102.933 169.778C106.925 169.778 110.173 166.53 110.173 162.538C110.173 159.15 107.834 156.301 104.687 155.515V135.564H118.833V162.76C118.833 163.727 119.619 164.513 120.586 164.513H138.406C139.192 167.661 142.042 169.999 145.429 169.999C149.422 169.999 152.669 166.752 152.669 162.76C152.669 158.767 149.422 155.52 145.429 155.52C142.042 155.52 139.192 157.858 138.406 161.006H122.34V135.564H128.439C133.972 135.564 138.471 131.063 138.471 125.533V124.966H148.817V133.763C145.669 134.549 143.331 137.4 143.331 140.786C143.331 144.78 146.578 148.026 150.571 148.026C154.563 148.026 157.81 144.78 157.81 140.786C157.81 137.4 155.472 134.549 152.324 133.763V123.212C152.324 122.245 151.538 121.459 150.571 121.459H138.471V103.531H160.18C160.966 106.679 163.817 109.017 167.204 109.017C171.197 109.017 174.443 105.769 174.443 101.777C174.443 97.7848 171.19 94.5374 167.198 94.5374ZM162.297 59.5377C162.297 57.4796 163.971 55.8054 166.029 55.8054C168.086 55.8054 169.761 57.4796 169.761 59.5377C169.761 61.5949 168.086 63.27 166.029 63.27C163.971 63.27 162.297 61.5949 162.297 59.5377ZM145.032 50.1027C147.089 50.1027 148.765 51.7778 148.765 53.835C148.765 55.8931 147.089 57.5673 145.032 57.5673C142.974 57.5673 141.3 55.8931 141.3 53.835C141.3 51.7778 142.974 50.1027 145.032 50.1027ZM102.836 37.2105C102.836 35.1534 104.511 33.4782 106.568 33.4782C108.627 33.4782 110.301 35.1534 110.301 37.2105C110.301 39.2677 108.627 40.9428 106.568 40.9428C104.511 40.9428 102.836 39.2677 102.836 37.2105ZM63.6889 41.5949C61.6318 41.5949 59.9566 39.9198 59.9566 37.8626C59.9566 35.8045 61.6318 34.1303 63.6889 34.1303C65.7461 34.1303 67.4212 35.8045 67.4212 37.8626C67.4212 39.9198 65.7461 41.5949 63.6889 41.5949ZM52.8721 58.812C52.8721 56.7549 54.5462 55.0797 56.6043 55.0797C58.6615 55.0797 60.3366 56.7549 60.3366 58.812C60.3366 60.8702 58.6615 62.5453 56.6043 62.5453C54.5462 62.5453 52.8721 60.8702 52.8721 58.812ZM40.8013 102.011C38.7432 102.011 37.069 100.336 37.069 98.2787C37.069 96.2206 38.7432 94.5464 40.8013 94.5464C42.8585 94.5464 44.5336 96.2206 44.5336 98.2787C44.5336 100.336 42.8585 102.011 40.8013 102.011ZM44.7523 140.112C44.7523 142.169 43.0782 143.844 41.02 143.844C38.9629 143.844 37.2878 142.169 37.2878 140.112C37.2878 138.054 38.9629 136.38 41.02 136.38C43.0782 136.38 44.7523 138.054 44.7523 140.112ZM64.0276 150.183C61.9704 150.183 60.2953 148.509 60.2953 146.451C60.2953 144.394 61.9704 142.718 64.0276 142.718C66.0857 142.718 67.7599 144.394 67.7599 146.451C67.7599 148.509 66.0857 150.183 64.0276 150.183ZM106.662 162.538C106.662 164.595 104.987 166.27 102.93 166.27C100.872 166.27 99.1976 164.595 99.1976 162.538C99.1976 160.48 100.872 158.806 102.93 158.806C104.987 158.806 106.662 160.48 106.662 162.538ZM145.426 159.027C147.484 159.027 149.159 160.703 149.159 162.76C149.159 164.818 147.484 166.492 145.426 166.492C143.369 166.492 141.694 164.818 141.694 162.76C141.694 160.703 143.366 159.027 145.426 159.027ZM134.957 125.533C134.957 129.131 132.031 132.057 128.434 132.057H81.7315C78.1333 132.057 75.2073 129.131 75.2073 125.533V78.8271C75.2073 75.2298 78.1333 72.3039 81.7315 72.3039H128.434C132.031 72.3039 134.957 75.2298 134.957 78.8271V125.533ZM154.297 140.787C154.297 142.844 152.623 144.52 150.565 144.52C148.507 144.52 146.832 142.844 146.832 140.787C146.832 138.729 148.507 137.054 150.565 137.054C152.623 137.054 154.297 138.729 154.297 140.787ZM167.198 105.509C165.14 105.509 163.466 103.834 163.466 101.777C163.466 99.719 165.14 98.0449 167.198 98.0449C169.255 98.0449 170.93 99.719 170.93 101.777C170.93 103.834 169.255 105.509 167.198 105.509ZM84.8762 89.1914V115.169C84.8762 116.136 84.09 116.923 83.1224 116.923C82.1548 116.923 81.3687 116.136 81.3687 115.169V89.1914C81.3687 88.2238 82.1548 87.4376 83.1224 87.4376C84.09 87.4376 84.8762 88.2238 84.8762 89.1914ZM100.867 97.7113C95.5701 97.7113 91.2593 102.019 91.2593 107.316C91.2593 112.611 95.5671 116.923 100.867 116.923C106.162 116.923 110.47 112.614 110.47 107.316C110.473 102.019 106.162 97.7113 100.867 97.7113ZM100.867 113.415C97.5023 113.415 94.7668 110.68 94.7668 107.316C94.7668 103.951 97.5023 101.219 100.867 101.219C104.227 101.219 106.964 103.954 106.964 107.316C106.964 110.677 104.23 113.415 100.867 113.415ZM128.796 89.1914C128.796 90.159 128.01 90.9452 127.042 90.9452H120.364V115.169C120.364 116.136 119.577 116.923 118.61 116.923C117.643 116.923 116.857 116.136 116.857 115.169V90.9452H110.178C109.211 90.9452 108.425 90.159 108.425 89.1914C108.425 88.2238 109.211 87.4376 110.178 87.4376H127.045C128.013 87.4376 128.796 88.2238 128.796 89.1914Z" fill="#BD76F6"/>
</g>
</g>
</g>
<defs>
<filter id="filter0_d_183_611" x="0" y="0" width="208" height="208" filterUnits="userSpaceOnUse" color-interpolation-filters="sRGB">
<feFlood flood-opacity="0" result="BackgroundImageFix"/>
<feColorMatrix in="SourceAlpha" type="matrix" values="0 0 0 0 0 0 0 0 0 0 0 0 0 0 0 0 0 0 127 0" result="hardAlpha"/>
<feOffset dy="4"/>
<feGaussianBlur stdDeviation="2"/>
<feComposite in2="hardAlpha" operator="out"/>
<feColorMatrix type="matrix" values="0 0 0 0 0 0 0 0 0 0 0 0 0 0 0 0 0 0 0.25 0"/>
<feBlend mode="normal" in2="BackgroundImageFix" result="effect1_dropShadow_183_611"/>
<feBlend mode="normal" in="SourceGraphic" in2="effect1_dropShadow_183_611" result="shape"/>
</filter>
<clipPath id="clip0_183_611">
<rect x="4" width="200" height="200" rx="16" fill="white"/>
</clipPath>
</defs>
</svg>
