<svg width="208" height="208" viewBox="0 0 208 208" fill="none" xmlns="http://www.w3.org/2000/svg">
<g filter="url(#filter0_d_183_623)">
<g clip-path="url(#clip0_183_623)">
<rect x="4" width="200" height="200" rx="16" fill="white"/>
<path d="M92.5612 166.324C92.532 166.764 92.6196 167.174 92.7376 167.585H76.0789C77.5161 166.383 79.2467 164.829 81.1234 162.834C85.6106 168.054 87.7222 166.676 91.8869 162.16C92.1217 162.277 92.3566 162.364 92.5904 162.453L92.5612 166.324ZM119.455 86.9041V72.3287C119.455 71.6544 119.983 71.1262 120.658 71.1262H135.233C135.908 71.1262 136.435 71.6544 136.435 72.3287V86.9041C136.435 87.5794 135.908 88.1065 135.233 88.1065H120.658C120.013 88.1065 119.455 87.5794 119.455 86.9041ZM123.444 77.2553C123.444 78.1352 124.147 78.8388 125.027 78.8388H130.864C131.744 78.8388 132.447 78.1352 132.447 77.2553C132.447 76.3754 131.744 75.6719 130.864 75.6719H125.027C124.147 75.6719 123.444 76.3754 123.444 77.2553ZM123.444 82.0066C123.444 82.8865 124.147 83.59 125.027 83.59H130.864C131.744 83.59 132.447 82.8865 132.447 82.0066C132.447 81.1267 131.744 80.4232 130.864 80.4232H125.027C124.147 80.4232 123.444 81.1267 123.444 82.0066ZM113.472 95.2919C112.798 95.2919 112.27 94.7637 112.27 94.0894V65.1433C112.27 64.469 112.798 63.9116 113.472 63.9116H142.418C143.093 63.9116 143.621 64.469 143.621 65.1433V94.0894C143.621 94.7637 143.093 95.2919 142.418 95.2919H113.472ZM116.287 86.9041C116.287 89.3089 118.253 91.2743 120.658 91.2743H135.233C137.638 91.2743 139.603 89.3089 139.603 86.9041V72.3287C139.603 69.8946 137.638 67.9584 135.233 67.9584H120.658C118.253 67.9584 116.287 69.8946 116.287 72.3287V86.9041ZM178.081 112.184C175.558 105.762 170.925 97.345 166.614 91.5092C173.301 80.3647 167.494 67.783 161.599 55.553C158.431 49.3937 153.211 44.4671 146.818 41.6812C124.207 31.9438 99.16 37.1063 85.9039 53.2359L98.4272 65.7884H109.102C108.838 63.1779 110.774 60.7438 113.472 60.773H142.418C144.823 60.773 146.789 62.7384 146.789 65.1433V94.0894C146.789 96.4943 144.823 98.4597 142.418 98.4597H113.472C111.126 98.4597 109.191 96.583 109.102 94.2658H108.34L90.2742 112.332C89.1303 113.592 87.3412 113.71 85.7578 113.622L90.3035 122.127L92.0633 123.886C92.2971 123.799 92.532 123.711 92.7668 123.593L92.796 119.663C92.796 117.376 94.6728 115.498 96.9607 115.498L103.911 115.529C106.199 115.529 108.076 117.405 108.076 119.692L108.047 123.652C108.282 123.74 108.515 123.828 108.721 123.946L111.536 121.159C113.15 119.546 115.877 119.575 117.461 121.188L122.329 126.087C123.942 127.641 123.942 130.456 122.3 132.01L119.484 134.797C119.601 135.032 119.69 135.266 119.778 135.5L123.708 135.53C125.936 135.5 127.931 137.466 127.872 139.694L127.843 147.085C127.521 149.168 125.848 150.81 123.649 150.78L119.719 150.751C119.631 150.986 119.514 151.22 119.426 151.455L122.183 154.24C123.825 155.883 123.825 158.523 122.183 160.136L117.226 165.062C115.672 166.676 112.856 166.647 111.331 165.033L108.545 162.218C108.311 162.335 108.076 162.424 107.841 162.511C107.783 163.362 107.958 166.793 107.666 167.585H147.316C145.791 166.676 142.859 164.652 140.806 160.986C138.459 156.822 136.641 146.997 142.301 147.612C144.501 147.994 146.377 148.259 147.815 148.434C157.259 149.636 159.957 148.815 161.306 148.317C166.644 146.557 168.198 139.636 164.737 135.5C166.908 133.506 169.577 129.517 170.515 127.054C170.074 125.939 167.201 118.167 170.045 117.699C172.244 117.141 179.342 115.469 178.081 112.184ZM109.131 158.787C107.812 159.52 106.433 160.077 105.026 160.458L104.997 166.441C104.968 166.911 104.733 167.35 104.351 167.585H96.1393C95.729 167.38 95.4357 166.911 95.4357 166.412L95.465 160.429C94.0569 160.048 92.6791 159.461 91.3588 158.728L87.1064 162.922C86.5782 163.45 85.7286 163.42 85.2004 162.892C83.998 161.69 81.5347 159.197 80.3322 157.995C79.8041 157.467 79.8333 156.616 80.3322 156.089L84.6138 151.866C83.8801 150.545 83.3237 149.168 82.9417 147.76L76.9295 147.73C76.3137 147.73 75.8158 147.319 75.6686 146.763C75.6394 146.645 75.6102 146.528 75.6102 146.381L75.6394 139.489C75.6394 138.785 76.226 138.14 76.988 138.14L82.9709 138.169C83.3822 136.761 83.9395 135.383 84.7015 134.063L80.5076 129.811C79.9795 129.283 80.0087 128.433 80.5076 127.905L85.405 123.037C85.9332 122.508 86.7839 122.508 87.312 123.037L91.5351 127.318C92.8253 126.584 94.2333 125.998 95.6404 125.617L95.6706 119.634C95.6706 118.901 96.2864 118.285 97.0192 118.285L103.911 118.315C104.644 118.315 105.261 118.93 105.261 119.663L105.231 125.675C106.639 126.057 108.017 126.644 109.308 127.377L113.589 123.154C114.117 122.655 114.968 122.655 115.496 123.183L120.364 128.08C120.893 128.608 120.862 129.459 120.364 129.987L116.083 134.21C116.816 135.53 117.373 136.908 117.783 138.315L123.766 138.346C124.382 138.346 124.91 138.756 125.056 139.313C125.085 139.43 125.116 139.548 125.116 139.694L125.085 146.616C125.056 147.348 124.5 147.935 123.737 147.935L117.754 147.906C117.373 149.343 116.786 150.693 116.023 152.012L120.159 156.294C120.687 156.822 120.687 157.672 120.159 158.201L115.232 163.039C114.733 163.537 113.853 163.537 113.325 163.01L109.131 158.787ZM106.903 135.617C96.6966 127.2 84.2026 141.542 93.7052 150.487C103.824 158.875 116.464 144.68 106.903 135.617ZM87.1356 110.777H75.199L64.9052 121.1C64.6119 121.394 64.2017 121.57 63.7914 121.57H44.0536C42.323 126.468 34.932 125.236 34.9028 119.986C34.9028 114.736 42.323 113.505 44.0536 118.402H63.1454L70.742 110.807H59.6268C57.9254 115.704 50.476 114.472 50.5052 109.223C50.5052 103.973 57.9254 102.741 59.6268 107.639H86.4906L105.407 88.7223C106.052 87.9603 108.369 88.3706 109.454 88.2536V91.4205H107.196L88.2796 110.337C87.9571 110.601 87.5761 110.777 87.1356 110.777ZM56.723 109.193C56.723 107.17 53.6438 107.17 53.6438 109.193C53.673 111.217 56.723 111.217 56.723 109.193ZM41.179 119.956C41.179 117.934 38.0998 117.934 38.0706 119.956C38.0998 121.98 41.179 121.98 41.179 119.956ZM30.2986 41.153C30.2986 35.9039 37.7188 34.6712 39.4192 39.5696H66.0492C66.7234 39.5696 67.31 39.9798 67.5449 40.6249L70.6533 49.2768H77.2521C77.6633 49.2768 78.0735 49.4239 78.3668 49.7465L97.2832 68.6629H109.425V71.8298H96.609C96.1977 71.8298 95.7875 71.6544 95.4942 71.3611L76.5778 52.4739H49.7432C48.0126 57.3713 40.6216 56.1396 40.5924 50.8894C40.5924 45.6403 48.0126 44.4086 49.7432 49.306H67.31L64.9636 42.7657H39.4192C37.6896 47.6641 30.2694 46.4032 30.2986 41.153ZM46.8686 50.8602C46.8686 48.8373 43.7895 48.8373 43.7603 50.8602C43.7895 52.8841 46.8394 52.8841 46.8686 50.8602ZM33.4362 41.153C33.4362 43.1769 36.5164 43.1769 36.5456 41.153C36.5456 39.1292 33.4665 39.1292 33.4362 41.153ZM33.3778 84.3238C30.7975 84.3238 28.6567 82.2122 28.6567 79.6018C28.6567 74.3526 36.076 73.1199 37.8065 78.0183H80.6548L69.6857 67.0493H44.0536C42.3522 71.9477 34.9028 70.7453 34.9028 65.4951C34.9028 60.2459 42.2937 59.0132 44.0243 63.9116H70.3307C70.742 63.9116 71.1522 64.087 71.4455 64.3803L85.142 78.0768H109.454V81.2144H85.142L72.0321 94.3243C71.7388 94.6176 71.3286 94.794 70.9174 94.794H44.0536C42.323 99.6914 34.932 98.4597 34.9028 93.2095C34.9028 87.9603 42.323 86.7579 44.0536 91.6261H70.2431L80.6255 81.2436H37.8065C37.1322 83.0327 35.4017 84.3238 33.3778 84.3238ZM41.179 93.2095C41.179 91.1867 38.0998 91.1867 38.0706 93.1803C38.0998 95.2042 41.179 95.2042 41.179 93.2095ZM41.179 65.4951C41.179 63.4712 38.0998 63.4712 38.0706 65.4951C38.0998 67.5189 41.179 67.5189 41.179 65.4951ZM34.932 79.631C34.932 77.6071 31.8528 77.6071 31.8236 79.631C31.8236 81.6549 34.9028 81.6549 34.932 79.631Z" fill="#BD76F6"/>
</g>
</g>
<defs>
<filter id="filter0_d_183_623" x="0" y="0" width="208" height="208" filterUnits="userSpaceOnUse" color-interpolation-filters="sRGB">
<feFlood flood-opacity="0" result="BackgroundImageFix"/>
<feColorMatrix in="SourceAlpha" type="matrix" values="0 0 0 0 0 0 0 0 0 0 0 0 0 0 0 0 0 0 127 0" result="hardAlpha"/>
<feOffset dy="4"/>
<feGaussianBlur stdDeviation="2"/>
<feComposite in2="hardAlpha" operator="out"/>
<feColorMatrix type="matrix" values="0 0 0 0 0 0 0 0 0 0 0 0 0 0 0 0 0 0 0.25 0"/>
<feBlend mode="normal" in2="BackgroundImageFix" result="effect1_dropShadow_183_623"/>
<feBlend mode="normal" in="SourceGraphic" in2="effect1_dropShadow_183_623" result="shape"/>
</filter>
<clipPath id="clip0_183_623">
<rect x="4" width="200" height="200" rx="16" fill="white"/>
</clipPath>
</defs>
</svg>
