<svg width="208" height="208" viewBox="0 0 208 208" fill="none" xmlns="http://www.w3.org/2000/svg">
<g filter="url(#filter0_d_183_568)">
<rect x="4" width="200" height="200" rx="16" fill="white"/>
<g clip-path="url(#clip0_183_568)">
<path d="M132.883 64.5671C132.883 80.2871 120.22 92.9503 104.5 92.9503C88.7799 92.9503 76.1167 80.2871 76.1167 64.5671C76.1167 48.8471 88.7799 36.1836 104.5 36.1836C120.22 36.1836 132.883 48.8471 132.883 64.5671Z" fill="white"/>
<path d="M104.5 36.1836C103.408 36.1836 102.317 36.1836 101.225 36.4018C115.417 37.9301 126.333 49.9386 126.333 64.5668C126.333 79.1951 115.417 91.2036 101.225 92.7318C102.317 92.9501 103.408 92.9501 104.5 92.9501C120.22 92.9501 132.883 80.2868 132.883 64.5668C132.883 48.8468 120.22 36.1836 104.5 36.1836Z" fill="white"/>
<path d="M104.5 36.1836C105.592 36.1836 106.683 36.1836 107.775 36.4018C93.5832 37.9301 82.6667 49.9386 82.6667 64.5668C82.6667 79.1951 93.5834 91.2036 107.775 92.7318C106.683 92.9501 105.592 92.9501 104.5 92.9501C88.7799 92.9501 76.1167 80.2868 76.1167 64.5668C76.1167 48.8468 88.7799 36.1836 104.5 36.1836Z" fill="white"/>
<path d="M119.347 64.5671C119.347 80.2871 112.579 92.9503 104.5 92.9503C96.4216 92.9503 89.6533 80.2871 89.6533 64.5671C89.6533 48.8471 96.2033 36.1836 104.5 36.1836C112.797 36.1836 119.347 48.8471 119.347 64.5671Z" fill="white"/>
<path d="M150.35 121.333C149.04 121.333 148.167 120.46 148.167 119.15V112.6H65.2V119.15C65.2 120.46 64.3267 121.333 63.0167 121.333C61.7067 121.333 60.8335 120.46 60.8335 119.15V110.417C60.8335 109.107 61.7067 108.233 63.0167 108.233H150.35C151.66 108.233 152.533 109.107 152.533 110.417V119.15C152.533 120.46 151.66 121.333 150.35 121.333Z" fill="white"/>
<path d="M106.683 112.6C105.373 112.6 104.5 111.727 104.5 110.417V103.867C104.5 102.557 105.373 101.684 106.683 101.684C107.993 101.684 108.866 102.557 108.866 103.867V110.417C108.867 111.727 107.993 112.6 106.683 112.6Z" fill="white"/>
<path d="M65.1998 151.9H56.4666C56.4666 158.014 51.6633 162.817 45.5498 162.817H76.1166C70.0031 162.817 65.1998 158.014 65.1998 151.9Z" fill="white"/>
<path d="M152.533 151.9H143.8C143.8 158.014 138.997 162.817 132.883 162.817H163.45C157.337 162.817 152.533 158.014 152.533 151.9Z" fill="white"/>
<path d="M41.1831 151.9H80.4831V125.7H41.1831V151.9Z" fill="white"/>
<path d="M128.517 151.9H167.817V125.7H128.517V151.9Z" fill="white"/>
<path d="M161.267 151.9H167.817V125.7H161.267V151.9Z" fill="white"/>
<path d="M41.1831 154.083H47.7331V127.883H41.1831V154.083Z" fill="white"/>
<path d="M80.4832 154.083H41.1832C39.8732 154.083 39 153.21 39 151.9V125.7C39 124.39 39.8732 123.517 41.1832 123.517H80.4832C81.7932 123.517 82.6665 124.39 82.6665 125.7V151.9C82.6668 153.21 81.7932 154.083 80.4832 154.083ZM43.3668 149.717H78.3V127.883H43.3668V149.717Z" fill="#BD76F6"/>
<path d="M104.5 95.1332C87.6881 95.1332 73.9331 81.3783 73.9331 64.5665C73.9331 47.7547 87.6881 34 104.5 34C121.312 34 135.067 47.755 135.067 64.5668C135.067 81.3785 121.312 95.1332 104.5 95.1332ZM104.5 38.3668C90.0899 38.3668 78.2999 50.1568 78.2999 64.5668C78.2999 78.9768 90.0899 90.7668 104.5 90.7668C118.91 90.7668 130.7 78.9768 130.7 64.5668C130.7 50.1568 118.91 38.3668 104.5 38.3668Z" fill="#BD76F6"/>
<path d="M104.5 95.1332C94.8935 95.1332 87.4702 81.815 87.4702 64.5665C87.4702 47.318 94.8935 34 104.5 34C114.107 34 121.53 47.3182 121.53 64.5668C121.53 81.8153 114.107 95.1332 104.5 95.1332ZM104.5 38.3668C97.5135 38.3668 91.837 50.375 91.837 64.5668C91.837 78.7585 97.732 90.7668 104.5 90.7668C111.487 90.7668 117.163 78.7585 117.163 64.5668C117.163 50.375 111.487 38.3668 104.5 38.3668Z" fill="#BD76F6"/>
<path d="M106.684 36.1836H102.317V92.9503H106.684V36.1836Z" fill="#BD76F6"/>
<path d="M132.883 62.3828H76.1167V66.7496H132.883V62.3828Z" fill="#BD76F6"/>
<path d="M76.1167 165H45.5499C44.2399 165 43.3667 164.127 43.3667 162.817C43.3667 161.507 44.2399 160.633 45.5499 160.633C50.3532 160.633 54.2832 156.703 54.2832 151.9C54.2832 150.59 55.1564 149.717 56.4664 149.717H65.1999C66.5099 149.717 67.3832 150.59 67.3832 151.9C67.3832 156.703 71.3132 160.633 76.1164 160.633C77.4264 160.633 78.2997 161.507 78.2997 162.817C78.2999 164.127 77.4267 165 76.1167 165ZM55.3749 160.633H66.5099C64.9817 158.886 63.6717 156.485 63.4532 154.083H58.4317C57.9949 156.485 56.9032 158.887 55.3749 160.633Z" fill="#BD76F6"/>
<path d="M167.817 154.083H128.517C127.207 154.083 126.333 153.21 126.333 151.9V125.7C126.333 124.39 127.207 123.517 128.517 123.517H167.817C169.127 123.517 170 124.39 170 125.7V151.9C170 153.21 169.127 154.083 167.817 154.083ZM130.7 149.717H165.633V127.883H130.7V149.717Z" fill="#BD76F6"/>
<path d="M163.45 165H132.883C131.573 165 130.7 164.127 130.7 162.817C130.7 161.507 131.573 160.633 132.883 160.633C137.687 160.633 141.617 156.703 141.617 151.9C141.617 150.59 142.49 149.717 143.8 149.717H152.533C153.843 149.717 154.716 150.59 154.716 151.9C154.716 156.703 158.646 160.633 163.45 160.633C164.76 160.633 165.633 161.507 165.633 162.817C165.633 164.127 164.76 165 163.45 165ZM142.708 160.633H153.843C152.315 158.886 151.005 156.485 150.787 154.083H145.983C145.328 156.485 144.237 158.887 142.708 160.633Z" fill="#BD76F6"/>
<path d="M148.167 119.15C146.857 119.15 145.984 118.276 145.984 116.966V110.416H63.0169V116.966C63.0169 118.276 62.1436 119.15 60.8336 119.15C59.5236 119.15 58.6504 118.276 58.6504 116.966V108.233C58.6504 106.923 59.5236 106.05 60.8336 106.05H148.167C149.477 106.05 150.35 106.923 150.35 108.233V116.966C150.35 118.276 149.477 119.15 148.167 119.15Z" fill="#BD76F6"/>
<path d="M104.5 110.416C103.19 110.416 102.317 109.543 102.317 108.233V101.683C102.317 100.373 103.19 99.5 104.5 99.5C105.81 99.5 106.683 100.373 106.683 101.683V108.233C106.683 109.543 105.81 110.416 104.5 110.416Z" fill="#BD76F6"/>
</g>
</g>
<defs>
<filter id="filter0_d_183_568" x="0" y="0" width="208" height="208" filterUnits="userSpaceOnUse" color-interpolation-filters="sRGB">
<feFlood flood-opacity="0" result="BackgroundImageFix"/>
<feColorMatrix in="SourceAlpha" type="matrix" values="0 0 0 0 0 0 0 0 0 0 0 0 0 0 0 0 0 0 127 0" result="hardAlpha"/>
<feOffset dy="4"/>
<feGaussianBlur stdDeviation="2"/>
<feComposite in2="hardAlpha" operator="out"/>
<feColorMatrix type="matrix" values="0 0 0 0 0 0 0 0 0 0 0 0 0 0 0 0 0 0 0.25 0"/>
<feBlend mode="normal" in2="BackgroundImageFix" result="effect1_dropShadow_183_568"/>
<feBlend mode="normal" in="SourceGraphic" in2="effect1_dropShadow_183_568" result="shape"/>
</filter>
<clipPath id="clip0_183_568">
<rect width="131" height="131" fill="white" transform="translate(39 34)"/>
</clipPath>
</defs>
</svg>
