<svg width="208" height="208" viewBox="0 0 208 208" fill="none" xmlns="http://www.w3.org/2000/svg">
<g filter="url(#filter0_d_183_608)">
<rect x="4" width="200" height="200" rx="16" fill="white"/>
<path d="M103.5 64.5059C103.303 64.5059 103.073 64.5059 102.847 64.5059C93.7912 64.5059 84.96 65.4903 76.4662 67.3578L77.2762 67.2059C69.165 68.9103 61.9875 71.4303 55.2825 74.7603L55.8113 74.524C50.1244 77.2634 45.3094 80.9309 41.355 85.3803L41.3156 85.4253C38.1037 88.9353 36.1012 93.5984 36 98.7228V98.7453C36.1069 103.887 38.1037 108.538 41.3212 112.06L41.31 112.043C45.3038 116.537 50.1188 120.205 55.5356 122.826L55.8056 122.944C61.9819 126.032 69.1594 128.558 76.6744 130.155L77.2706 130.262C84.9544 131.978 93.7856 132.962 102.842 132.962H103.534H103.5H104.153C113.209 132.962 122.04 131.978 130.534 130.11L129.724 130.262C137.835 128.558 145.013 126.038 151.718 122.708L151.189 122.944C156.876 120.205 161.691 116.537 165.645 112.088L165.684 112.043C168.896 108.533 170.899 103.87 171 98.7453V98.7228C170.899 93.5759 168.896 88.9128 165.673 85.3859L165.684 85.4028C161.691 80.9084 156.876 77.2409 151.459 74.6196L151.189 74.5015C145.013 71.4134 137.835 68.8878 130.32 67.2903L129.724 67.1834C122.04 65.4678 113.209 64.4834 104.153 64.4834C103.922 64.4834 103.691 64.4834 103.461 64.4834H103.494L103.5 64.5059ZM85.95 105.366C85.2131 106.035 84.375 106.609 83.4637 107.059L83.4019 107.087C82.6087 107.47 81.6694 107.824 80.6906 108.094L80.5725 108.122C79.605 108.471 78.4856 108.679 77.3156 108.679C77.2706 108.679 77.2256 108.679 77.1806 108.679H66.0938L64.2938 119.721H56.1544L63.3544 82.174H78.9525C79.0537 82.174 79.1775 82.1684 79.3013 82.1684C81.3262 82.1684 83.2725 82.5228 85.0725 83.1753L84.9544 83.1359C86.6138 83.7434 88.0256 84.6884 89.1619 85.8865L89.1675 85.8921C90.1519 87.1465 90.855 88.6653 91.1587 90.3303L91.17 90.3922C91.3106 91.2134 91.395 92.1584 91.395 93.1259C91.395 94.2284 91.2881 95.3028 91.0856 96.349L91.1025 96.2422C90.9 97.249 90.6356 98.1265 90.3038 98.9703L90.3431 98.8634C90.0206 99.6922 89.6756 100.474 89.3081 101.209C88.8506 101.944 88.3444 102.681 87.7894 103.42C87.2494 104.145 86.6588 104.781 86.0063 105.349L85.9894 105.36L85.95 105.366ZM109.418 108.679L112.596 92.8053C112.731 92.2034 112.809 91.5172 112.809 90.8084C112.809 90.6622 112.804 90.5159 112.798 90.3697V90.3922C112.792 89.779 112.556 89.2222 112.174 88.8003C111.786 88.4628 111.324 88.204 110.818 88.0465L110.79 88.0409C110.087 87.8159 109.277 87.6921 108.439 87.6921C108.343 87.6921 108.247 87.6922 108.152 87.6978H108.163H101.829L97.6894 108.679H89.685L96.885 72.229H104.889L102.96 82.1684H110.16C110.284 82.1684 110.424 82.1628 110.571 82.1628C112.433 82.1628 114.244 82.3934 115.976 82.8209L115.824 82.7871C117.225 83.0965 118.446 83.7546 119.43 84.6546L119.424 84.649C120.302 85.3409 120.926 86.3253 121.146 87.4503L121.151 87.4784C121.23 87.979 121.275 88.5528 121.275 89.1378C121.275 90.094 121.157 91.0222 120.926 91.9053L120.943 91.8265L117.63 108.668L109.418 108.679ZM153.866 96.394C153.641 97.4122 153.405 98.239 153.124 99.0546L153.174 98.8803C152.871 99.7747 152.499 100.551 152.044 101.271L152.072 101.226C151.684 102.098 151.222 102.846 150.677 103.521L150.694 103.498C150.142 104.185 149.552 104.792 148.911 105.349L148.894 105.366C148.157 106.035 147.319 106.609 146.408 107.059L146.346 107.087C145.553 107.47 144.613 107.824 143.634 108.094L143.516 108.122C142.549 108.471 141.429 108.679 140.259 108.679C140.214 108.679 140.169 108.679 140.124 108.679H129.038L127.108 119.698H119.104L126.304 82.1515H141.767C141.891 82.1459 142.031 82.1459 142.177 82.1459C144.231 82.1459 146.205 82.5003 148.033 83.1584L147.909 83.119C149.524 83.704 150.885 84.649 151.948 85.864L151.959 85.8753C153.028 87.124 153.787 88.6709 154.086 90.3697L154.097 90.4259C154.221 91.1628 154.294 92.0065 154.294 92.8728C154.294 94.1159 154.147 95.3196 153.872 96.4784L153.894 96.3715L153.866 96.394ZM138.679 87.6921H133.177L130.292 103.155H135.107H135.399C136.806 103.155 138.189 103.026 139.528 102.784L139.387 102.807C140.535 102.604 141.559 102.193 142.459 101.614L142.425 101.631C143.19 100.945 143.831 100.152 144.332 99.2628L144.354 99.2178C144.934 98.1603 145.367 96.9284 145.586 95.629L145.597 95.5615C145.772 94.8359 145.868 93.9978 145.868 93.1371C145.868 92.7209 145.845 92.3103 145.8 91.9109L145.806 91.9615C145.727 91.0728 145.401 90.2684 144.9 89.6046L144.906 89.6159C144.253 89.0084 143.471 88.5359 142.605 88.249L142.56 88.2378C141.514 87.889 140.316 87.6921 139.067 87.6921C138.938 87.6921 138.808 87.6922 138.684 87.6978H138.701L138.679 87.6921ZM75.735 87.6921H70.2337L67.3369 103.155H72.1631H72.4556C73.8619 103.155 75.2456 103.026 76.5844 102.784L76.4437 102.807C77.5913 102.604 78.615 102.193 79.515 101.614L79.4813 101.631C80.2463 100.945 80.8875 100.152 81.3881 99.2628L81.4106 99.2178C81.99 98.1603 82.4231 96.9284 82.6425 95.629L82.6537 95.5615C82.8281 94.8359 82.9238 93.9978 82.9238 93.1371C82.9238 92.7209 82.9012 92.3103 82.8563 91.9109L82.8619 91.9615C82.7831 91.0728 82.4569 90.2684 81.9562 89.6046L81.9619 89.6159C81.3094 89.0084 80.5275 88.5359 79.6613 88.249L79.6163 88.2378C78.57 87.889 77.3719 87.6921 76.1231 87.6921C75.9937 87.6921 75.8644 87.6922 75.7406 87.6978H75.7575L75.735 87.6921Z" fill="#BD76F6"/>
</g>
<defs>
<filter id="filter0_d_183_608" x="0" y="0" width="208" height="208" filterUnits="userSpaceOnUse" color-interpolation-filters="sRGB">
<feFlood flood-opacity="0" result="BackgroundImageFix"/>
<feColorMatrix in="SourceAlpha" type="matrix" values="0 0 0 0 0 0 0 0 0 0 0 0 0 0 0 0 0 0 127 0" result="hardAlpha"/>
<feOffset dy="4"/>
<feGaussianBlur stdDeviation="2"/>
<feComposite in2="hardAlpha" operator="out"/>
<feColorMatrix type="matrix" values="0 0 0 0 0 0 0 0 0 0 0 0 0 0 0 0 0 0 0.25 0"/>
<feBlend mode="normal" in2="BackgroundImageFix" result="effect1_dropShadow_183_608"/>
<feBlend mode="normal" in="SourceGraphic" in2="effect1_dropShadow_183_608" result="shape"/>
</filter>
</defs>
</svg>
