<svg width="208" height="208" viewBox="0 0 208 208" fill="none" xmlns="http://www.w3.org/2000/svg">
<g filter="url(#filter0_d_183_605)">
<rect x="4" width="200" height="200" rx="16" fill="white"/>
<path d="M103.414 43.3887C87.2018 43.3887 74.1498 49.9178 74.1498 58.0239V69.5603L103.451 69.6769L103.328 72.653H59.5146C51.4146 72.653 44.8916 85.705 44.8916 101.923C44.8916 118.123 51.4146 131.182 59.5207 131.182H71.2227C71.2227 123.806 71.6768 118.222 72.7568 113.908C73.8368 109.594 75.5918 106.501 78.1752 104.433C83.3421 100.297 90.9757 100.457 101.954 100.457C114.386 100.457 122.173 100.291 126.499 97.0819C128.665 95.4864 130.175 93.1055 131.193 89.2028C132.212 85.2939 132.678 79.9123 132.678 72.653H135.605C135.605 80.035 135.151 85.6191 134.022 89.9391C132.893 94.2653 131.015 97.3825 128.248 99.4321C122.695 103.543 114.386 103.384 101.954 103.384C90.9757 103.384 83.9802 103.537 80.0039 106.716C78.0157 108.311 76.5675 110.705 75.5918 114.62C74.61 118.535 74.1498 123.928 74.1498 131.182V145.811C74.1498 153.917 87.2018 160.446 103.42 160.446C119.626 160.446 132.678 153.917 132.678 145.811V134.158L103.5 134.164V131.182H147.314C155.414 131.182 161.943 118.13 161.943 101.917C161.943 85.705 155.414 72.653 147.308 72.653H132.678V58.0239C132.678 49.9178 119.626 43.3948 103.414 43.3948V43.3887ZM87.2755 52.6116H87.3184C88.7522 52.6165 90.1255 53.1901 91.1368 54.2066C92.1481 55.223 92.7147 56.5992 92.7123 58.0331C92.7098 59.4669 92.1385 60.8412 91.1238 61.8542C90.1091 62.8672 88.7338 63.4361 87.3 63.4361C85.8662 63.4361 84.4909 62.8672 83.4762 61.8542C82.4615 60.8412 81.8902 59.4669 81.8877 58.0331C81.8853 56.5992 82.4519 55.223 83.4632 54.2066C84.4745 53.1901 85.8478 52.6165 87.2816 52.6116H87.2755ZM119.473 140.398H119.51C120.944 140.403 122.317 140.977 123.328 141.993C124.339 143.01 124.906 144.386 124.904 145.82C124.901 147.254 124.33 148.628 123.315 149.641C122.3 150.654 120.925 151.223 119.491 151.223C118.058 151.223 116.682 150.654 115.668 149.641C114.653 148.628 114.082 147.254 114.079 145.82C114.077 144.386 114.643 143.01 115.655 141.993C116.666 140.977 118.039 140.403 119.473 140.398Z" fill="#BD76F6"/>
</g>
<defs>
<filter id="filter0_d_183_605" x="0" y="0" width="208" height="208" filterUnits="userSpaceOnUse" color-interpolation-filters="sRGB">
<feFlood flood-opacity="0" result="BackgroundImageFix"/>
<feColorMatrix in="SourceAlpha" type="matrix" values="0 0 0 0 0 0 0 0 0 0 0 0 0 0 0 0 0 0 127 0" result="hardAlpha"/>
<feOffset dy="4"/>
<feGaussianBlur stdDeviation="2"/>
<feComposite in2="hardAlpha" operator="out"/>
<feColorMatrix type="matrix" values="0 0 0 0 0 0 0 0 0 0 0 0 0 0 0 0 0 0 0.25 0"/>
<feBlend mode="normal" in2="BackgroundImageFix" result="effect1_dropShadow_183_605"/>
<feBlend mode="normal" in="SourceGraphic" in2="effect1_dropShadow_183_605" result="shape"/>
</filter>
</defs>
</svg>
