<svg width="208" height="208" viewBox="0 0 208 208" fill="none" xmlns="http://www.w3.org/2000/svg">
<g filter="url(#filter0_d_183_476)">
<rect x="4" width="200" height="200" rx="16" fill="white"/>
<path d="M80.6946 128.798H126.305L128.32 101.841C128.336 101.618 128.229 101.467 128.164 101.397C128.099 101.326 127.956 101.208 127.733 101.208H79.2674C79.0434 101.208 78.9006 101.326 78.8358 101.397C78.7704 101.467 78.663 101.618 78.6799 101.841L80.6946 128.798ZM127.423 131.208H79.5764C78.9459 131.208 78.4222 130.721 78.3748 130.092L76.2767 102.021C76.2151 101.192 76.504 100.367 77.0696 99.7574C77.6347 99.1481 78.4358 98.7988 79.2674 98.7988H127.733C128.564 98.7988 129.365 99.1481 129.93 99.7574C130.496 100.367 130.784 101.192 130.723 102.021L128.625 130.092C128.577 130.721 128.054 131.208 127.423 131.208Z" fill="#BD76F6"/>
<path d="M103.5 100.864C103.136 100.864 102.791 100.699 102.562 100.416L97.8017 94.5139C97.6289 94.2998 97.5347 94.0327 97.5347 93.7575V89.532C97.5347 88.8666 98.0736 88.3271 98.739 88.3271C99.4044 88.3271 99.9439 88.8666 99.9439 89.532V93.3325L103.5 97.74L107.056 93.3325V89.532C107.056 88.8666 107.595 88.3271 108.261 88.3271C108.926 88.3271 109.466 88.8666 109.466 89.532V93.7575C109.466 94.0327 109.371 94.2998 109.198 94.5139L104.437 100.416C104.209 100.699 103.864 100.864 103.5 100.864Z" fill="#BD76F6"/>
<mask id="mask0_183_476" style="mask-type:luminance" maskUnits="userSpaceOnUse" x="90" y="60" width="27" height="19">
<path d="M90.9443 60.5928H116.055V78.7139H90.9443V60.5928Z" fill="white"/>
</mask>
<g mask="url(#mask0_183_476)">
<path d="M114.713 78.5934C114.048 78.5934 113.509 78.0539 113.509 77.3886L110.87 73.011C105.776 71.2501 109.044 73.7263 103.546 73.7067C103.534 73.7067 103.513 63.0025 103.501 63.0025C106.572 65.723 106.624 70.5902 104.729 72.4784C102.798 74.4026 99.4617 75.549 96.7455 74.3208L93.4913 77.3886C93.4913 78.0539 92.9518 78.5934 92.2864 78.5934C91.621 78.5934 91.0815 78.0539 91.0815 77.3886V73.0982C91.0815 71.4116 91.4167 69.7697 92.0777 68.2177C92.7158 66.7207 93.627 65.3763 94.785 64.2227C97.1348 61.881 100.229 60.5928 103.501 60.5928C103.516 60.5928 103.531 60.5928 103.546 60.5928C106.853 60.6053 109.961 61.9017 112.296 64.245C114.632 66.5888 115.918 69.7026 115.918 73.011V77.3886C115.918 78.0539 115.379 78.5934 114.713 78.5934Z" fill="#BD76F6"/>
</g>
<path d="M96.4029 76.392V82.7095C96.4029 86.6228 99.5865 89.8064 103.5 89.8064C107.414 89.8064 110.597 86.6228 110.597 82.7095V75.6557L108.309 73.1016C104.683 75.841 98.926 76.3195 96.4029 76.392ZM103.5 92.2161C98.2579 92.2161 93.9932 87.9514 93.9932 82.7095V75.1942C93.9932 74.8683 94.1256 74.5566 94.3594 74.3299C94.5931 74.1032 94.907 73.9806 95.234 73.9898C95.3207 73.992 103.934 74.198 107.566 70.5654C107.8 70.3316 108.121 70.2041 108.451 70.2134C108.782 70.2221 109.095 70.367 109.315 70.6139L112.7 74.3904C112.897 74.6116 113.007 74.8977 113.007 75.1942V82.7095C113.007 87.9514 108.742 92.2161 103.5 92.2161Z" fill="#BD76F6"/>
<path d="M93.9932 78.1309C93.0205 78.1445 92.2325 78.9401 92.2325 79.9167C92.2325 80.8927 93.0205 81.6883 93.9932 81.7019V78.1309ZM95.1981 84.1117H94.0183C91.705 84.1117 89.8228 82.2294 89.8228 79.9167C89.8228 77.6034 91.705 75.7217 94.0183 75.7217H95.1981C95.8635 75.7217 96.403 76.2606 96.403 76.9266V82.9068C96.403 83.5722 95.8635 84.1117 95.1981 84.1117Z" fill="#BD76F6"/>
<path d="M113.006 78.1309V81.7019C113.979 81.6883 114.767 80.8927 114.767 79.9167C114.767 78.9401 113.979 78.1445 113.006 78.1309ZM112.981 84.1117H111.801C111.136 84.1117 110.596 83.5722 110.596 82.9068V76.9266C110.596 76.2606 111.136 75.7217 111.801 75.7217H112.981C115.294 75.7217 117.176 77.6034 117.176 79.9167C117.176 82.2294 115.294 84.1117 112.981 84.1117Z" fill="#BD76F6"/>
<path d="M83.9454 101.208C83.68 101.208 83.4136 101.121 83.1907 100.942C82.6724 100.525 82.5901 99.7663 83.0076 99.248C84.3421 97.5897 86.123 96.381 88.1584 95.7516L98.4252 92.5784C99.0611 92.3839 99.7347 92.7414 99.9298 93.3773C100.125 94.0133 99.7674 94.6874 99.1314 94.8824L99.0917 94.8944L88.8701 98.0535C87.2952 98.5407 85.917 99.4763 84.8844 100.759C84.6468 101.055 84.2975 101.208 83.9454 101.208Z" fill="#BD76F6"/>
<path d="M123.053 101.207C122.701 101.207 122.352 101.054 122.114 100.758C121.082 99.4756 119.703 98.5399 118.129 98.0527L107.867 94.8817C107.231 94.6866 106.874 94.0125 107.069 93.3765C107.264 92.7406 107.938 92.3825 108.574 92.5776L108.614 92.5902L118.84 95.7509C120.876 96.3803 122.657 97.589 123.991 99.2472C124.409 99.7655 124.326 100.524 123.808 100.941C123.586 101.12 123.318 101.207 123.053 101.207Z" fill="#BD76F6"/>
<path d="M97.5712 120.918C97.3145 120.918 97.0557 120.836 96.8361 120.667L90.7294 115.957C90.434 115.729 90.2607 115.376 90.2607 115.003C90.2607 114.629 90.434 114.277 90.7294 114.049L96.8361 109.338C97.363 108.932 98.12 109.03 98.5259 109.557C98.9325 110.084 98.8349 110.84 98.308 111.247L93.4383 115.003L98.308 118.759C98.8349 119.165 98.9325 119.922 98.5259 120.449C98.2889 120.757 97.9319 120.918 97.5712 120.918Z" fill="#BD76F6"/>
<path d="M109.428 120.918C109.067 120.918 108.71 120.757 108.473 120.449C108.067 119.922 108.164 119.165 108.691 118.759L113.561 115.003L108.691 111.247C108.164 110.84 108.067 110.084 108.473 109.557C108.88 109.03 109.636 108.932 110.163 109.338L116.27 114.049C116.565 114.277 116.738 114.629 116.738 115.003C116.738 115.376 116.565 115.729 116.27 115.957L110.163 120.667C109.943 120.836 109.685 120.918 109.428 120.918Z" fill="#BD76F6"/>
<path d="M101.277 124.507C101.174 124.507 101.069 124.494 100.964 124.466C100.321 124.294 99.9399 123.634 100.112 122.991L104.56 106.392C104.732 105.749 105.393 105.368 106.035 105.541C106.678 105.712 107.06 106.373 106.887 107.016L102.44 123.614C102.296 124.153 101.809 124.507 101.277 124.507Z" fill="#BD76F6"/>
<mask id="mask1_183_476" style="mask-type:luminance" maskUnits="userSpaceOnUse" x="59" y="128" width="89" height="11">
<path d="M59.6113 128.808H147.385V138.405H59.6113V128.808Z" fill="white"/>
</mask>
<g mask="url(#mask1_183_476)">
<path d="M62.0227 135.995H144.978C144.902 133.353 142.729 131.228 140.069 131.228H66.9316C64.2717 131.228 62.099 133.353 62.0227 135.995ZM146.185 138.405H60.8157C60.1503 138.405 59.6113 137.865 59.6113 137.2V136.139C59.6113 132.102 62.8952 128.818 66.9316 128.818H140.069C144.106 128.818 147.39 132.102 147.39 136.139V137.2C147.39 137.865 146.851 138.405 146.185 138.405Z" fill="#BD76F6"/>
<path d="M62.0227 135.995H144.978C144.902 133.353 142.729 131.228 140.069 131.228H66.9316C64.2717 131.228 62.099 133.353 62.0227 135.995Z" fill="#BD76F6"/>
</g>
<circle cx="105.545" cy="99.5" r="73.0318" stroke="#BD76F6" stroke-width="0.936306" stroke-dasharray="3.75 3.75"/>
<circle cx="60.0446" cy="42.0446" r="14.0446" fill="#EDDDFA"/>
<circle cx="154.045" cy="42.0446" r="14.0446" fill="#EDDDFA"/>
<circle cx="175.045" cy="100.045" r="14.0446" fill="#EDDDFA"/>
<circle cx="32.0446" cy="100.045" r="14.0446" fill="#EDDDFA"/>
<circle cx="60.0446" cy="157.045" r="14.0446" fill="#EDDDFA"/>
<circle cx="153.764" cy="157.083" r="14.0446" fill="#EDDDFA"/>
<path d="M65.6535 37.1367L64.6234 48.6762L59.9932 49.9599L55.3757 48.678L54.3467 37.1367H65.6535Z" fill="#E44D26"/>
<path d="M60 48.9784L63.7415 47.9411L64.6217 38.0801H60V48.9784Z" fill="#F16529"/>
<path d="M57.9976 40.9116H60.0001V39.4961H56.4507L56.4845 39.8758L56.8325 43.7766H60.0001V42.3611H58.127L57.9976 40.9116ZM58.3167 44.4843H56.8957L57.094 46.7069L59.9936 47.5117L60.0001 47.51V46.0373L59.9939 46.0389L58.4174 45.6132L58.3167 44.4843Z" fill="#EBEBEB"/>
<path d="M55.3975 34H56.1168V34.7107H56.7748V34H57.4942V36.1522H56.7749V35.4315H56.1168V36.1522H55.3975L55.3975 34ZM58.4401 34.7137H57.8069V34H59.7932V34.7137H59.1596V36.1522H58.4403V34.7137H58.4401ZM60.1084 34H60.8584L61.3198 34.7562L61.7808 34H62.5311V36.1522H61.8147V35.0854L61.3198 35.8506H61.3074L60.8122 35.0854V36.1522H60.1084V34ZM62.8891 34H63.6087V35.4408H64.6202V36.1522H62.8891V34H62.8891Z" fill="black"/>
<path d="M59.9947 43.7766H61.7377L61.5734 45.6123L59.9946 46.0385V47.5111L62.8965 46.7069L62.9178 46.4677L63.2504 42.7412L63.285 42.3611H59.9947V43.7766ZM59.9947 40.9081V40.9116H63.4138L63.4421 40.5934L63.5067 39.8758L63.5405 39.4961H59.9947V40.9081Z" fill="white"/>
<g clip-path="url(#clip0_183_476)">
<path d="M147 35H161V49H147V35Z" fill="#F7DF1E"/>
<path d="M150.681 46.6998L151.753 46.0515C151.959 46.4179 152.147 46.728 152.598 46.728C153.031 46.728 153.303 46.5589 153.303 45.9011V41.4278H154.619V45.9197C154.619 47.2824 153.82 47.9026 152.655 47.9026C151.602 47.9026 150.991 47.3576 150.681 46.6997M155.333 46.5588L156.405 45.9386C156.687 46.3992 157.053 46.7375 157.702 46.7375C158.247 46.7375 158.594 46.4649 158.594 46.089C158.594 45.6379 158.237 45.4781 157.636 45.2151L157.307 45.074C156.358 44.67 155.728 44.1625 155.728 43.0912C155.728 42.1044 156.48 41.3525 157.655 41.3525C158.491 41.3525 159.092 41.6439 159.525 42.4051L158.5 43.063C158.275 42.6589 158.03 42.4992 157.655 42.4992C157.269 42.4992 157.025 42.7435 157.025 43.063C157.025 43.4577 157.269 43.6175 157.833 43.8619L158.162 44.0028C159.28 44.4821 159.91 44.9708 159.91 46.0702C159.91 47.2544 158.98 47.9028 157.73 47.9028C156.508 47.9028 155.719 47.3201 155.333 46.5589" fill="black"/>
</g>
<g clip-path="url(#clip1_183_476)">
<path fill-rule="evenodd" clip-rule="evenodd" d="M182.081 95.9016C182.113 96.1409 182.131 96.3965 182.131 96.6725C182.131 97.991 182.009 98.0653 179.27 105.983C181.5 104.683 183 102.267 183 99.5C183 98.1958 182.667 96.9696 182.081 95.9016ZM175.632 100.156L173.381 106.695C174.9 107.142 176.509 107.096 177.991 106.576C177.97 106.543 177.953 106.509 177.938 106.472L175.632 100.156ZM180.563 99.1213C180.563 98.1943 180.23 97.5521 179.944 97.0526C179.565 96.4346 179.208 95.9121 179.208 95.2941C179.208 94.6048 179.731 93.9629 180.468 93.9629C180.501 93.9629 180.533 93.9672 180.565 93.9688C179.231 92.7463 177.453 92 175.5 92C172.88 92 170.575 93.3439 169.234 95.3801C169.712 95.3951 170.353 95.4013 171.715 95.2948C172.12 95.2708 172.167 95.8646 171.764 95.9119C171.764 95.9119 171.357 95.96 170.905 95.984L173.636 104.108L175.277 99.1851L174.109 95.9833C173.705 95.96 173.323 95.9119 173.323 95.9119C172.918 95.8879 172.966 95.2701 173.37 95.2941C174.92 95.4133 175.714 95.4223 177.344 95.2941C177.748 95.2701 177.796 95.8639 177.392 95.9119C177.392 95.9119 176.985 95.96 176.534 95.9833L179.244 104.046C180.314 100.47 180.563 99.8713 180.563 99.1213ZM168 99.5C168 102.469 169.725 105.034 172.227 106.25L168.649 96.4476C168.233 97.3806 168 98.4125 168 99.5Z" fill="#00759D"/>
</g>
<path d="M154 162.242C159.523 162.242 164 159.888 164 156.984C164 154.081 159.523 151.727 154 151.727C148.477 151.727 144 154.081 144 156.984C144 159.888 148.477 162.242 154 162.242Z" fill="url(#paint0_radial_183_476)"/>
<path d="M154 161.852C159.307 161.852 163.609 159.672 163.609 156.984C163.609 154.296 159.307 152.117 154 152.117C148.693 152.117 144.391 154.296 144.391 156.984C144.391 159.672 148.693 161.852 154 161.852Z" fill="#6181B6"/>
<path d="M155.945 158.562L156.422 156.109C156.531 155.555 156.437 155.141 156.156 154.883C155.883 154.633 155.414 154.508 154.726 154.508H153.898L154.133 153.289C154.141 153.242 154.133 153.195 154.101 153.156C154.07 153.117 154.031 153.102 153.984 153.102H152.844C152.766 153.102 152.703 153.156 152.687 153.227L152.18 155.828C152.133 155.531 152.023 155.281 151.836 155.078C151.5 154.695 150.976 154.5 150.266 154.5H148.07C147.992 154.5 147.93 154.555 147.914 154.625L146.891 159.906C146.883 159.953 146.891 160 146.922 160.039C146.953 160.078 146.992 160.094 147.039 160.094H148.187C148.266 160.094 148.328 160.039 148.344 159.969L148.594 158.695H149.445C149.891 158.695 150.273 158.648 150.562 158.555C150.867 158.453 151.141 158.289 151.383 158.062C151.578 157.883 151.742 157.68 151.867 157.461L151.664 158.516C151.656 158.563 151.664 158.609 151.695 158.648C151.726 158.688 151.766 158.703 151.812 158.703H152.953C153.031 158.703 153.094 158.648 153.109 158.578L153.672 155.688H154.453C154.789 155.688 154.883 155.75 154.914 155.781C154.937 155.805 154.984 155.898 154.93 156.188L154.476 158.523C154.469 158.57 154.476 158.617 154.508 158.656C154.539 158.695 154.578 158.711 154.625 158.711H155.797C155.867 158.688 155.93 158.633 155.945 158.562ZM150.664 156.531C150.594 156.898 150.461 157.164 150.266 157.312C150.07 157.461 149.75 157.539 149.328 157.539H148.82L149.187 155.648H149.844C150.328 155.648 150.523 155.75 150.601 155.836C150.703 155.961 150.726 156.203 150.664 156.531Z" fill="white"/>
<path d="M160.82 155.078C160.484 154.695 159.961 154.5 159.25 154.5H157.039C156.961 154.5 156.898 154.555 156.883 154.625L155.859 159.898C155.851 159.945 155.859 159.992 155.891 160.031C155.922 160.07 155.961 160.086 156.008 160.086H157.156C157.234 160.086 157.297 160.031 157.312 159.961L157.562 158.688H158.414C158.859 158.688 159.242 158.641 159.531 158.547C159.836 158.445 160.109 158.281 160.351 158.055C160.555 157.867 160.726 157.656 160.851 157.43C160.976 157.203 161.07 156.953 161.125 156.68C161.258 156 161.156 155.469 160.82 155.078ZM159.625 156.531C159.555 156.898 159.422 157.164 159.226 157.312C159.031 157.461 158.711 157.539 158.289 157.539H157.781L158.148 155.648H158.805C159.289 155.648 159.484 155.75 159.562 155.836C159.672 155.961 159.695 156.203 159.625 156.531Z" fill="white"/>
<path d="M149.844 155.492C150.281 155.492 150.57 155.57 150.719 155.734C150.867 155.898 150.898 156.172 150.82 156.563C150.742 156.969 150.586 157.266 150.359 157.438C150.133 157.609 149.789 157.695 149.328 157.695H148.633L149.063 155.492H149.844ZM147.047 159.93H148.195L148.469 158.531H149.453C149.891 158.531 150.242 158.484 150.523 158.391C150.805 158.297 151.055 158.148 151.289 157.93C151.484 157.75 151.641 157.555 151.758 157.344C151.875 157.133 151.961 156.898 152.008 156.641C152.133 156.016 152.039 155.531 151.734 155.18C151.43 154.828 150.945 154.656 150.281 154.656H148.07L147.047 159.93Z" fill="#000004"/>
<path d="M152.852 153.258H153.992L153.719 154.656H154.734C155.375 154.656 155.813 154.766 156.055 154.992C156.297 155.219 156.367 155.578 156.273 156.078L155.797 158.531H154.641L155.094 156.195C155.148 155.93 155.125 155.75 155.039 155.656C154.953 155.562 154.758 155.508 154.469 155.508H153.555L152.969 158.531H151.828L152.852 153.258Z" fill="#000004"/>
<path d="M158.805 155.492C159.242 155.492 159.531 155.57 159.68 155.734C159.828 155.898 159.859 156.172 159.781 156.563C159.703 156.969 159.547 157.266 159.32 157.438C159.094 157.609 158.75 157.695 158.289 157.695H157.594L158.023 155.492H158.805ZM156.008 159.93H157.156L157.43 158.531H158.414C158.852 158.531 159.203 158.484 159.484 158.391C159.766 158.297 160.016 158.148 160.25 157.93C160.445 157.75 160.602 157.555 160.719 157.344C160.836 157.133 160.922 156.898 160.969 156.641C161.094 156.016 161 155.531 160.695 155.18C160.391 154.828 159.906 154.656 159.242 154.656H157.031L156.008 159.93Z" fill="#000004"/>
<path d="M60.5232 153.957C63.6114 151.559 62.0264 150 62.0264 150C62.2623 152.478 59.4748 153.064 58.7275 154.767C58.2177 155.929 59.0767 156.947 60.5222 158.229C60.3944 157.945 60.1973 157.669 59.9978 157.39C59.3172 156.437 58.6083 155.444 60.5232 153.957Z" fill="#E76F00"/>
<path d="M61.0157 158.755C61.0157 158.755 61.9448 158.005 61.209 157.172C58.7149 154.346 63.9369 153.063 63.9369 153.063C60.7486 154.599 61.2246 155.511 62.026 156.619C62.884 157.806 61.0157 158.755 61.0157 158.755Z" fill="#E76F00"/>
<path d="M63.7519 160.99C66.6137 159.527 65.2905 158.122 64.3669 158.311C64.1405 158.358 64.0396 158.398 64.0396 158.398C64.0396 158.398 64.1237 158.269 64.2842 158.212C66.1113 157.581 67.5165 160.075 63.6943 161.064C63.6943 161.064 63.7386 161.025 63.7519 160.99Z" fill="#5382A1"/>
<path d="M57.7973 159.139C56.0067 158.904 58.7791 158.256 58.7791 158.256C58.7791 158.256 57.7025 158.185 56.3784 158.814C54.8127 159.559 60.2513 159.898 63.0665 159.17C63.3592 158.973 63.7637 158.803 63.7637 158.803C63.7637 158.803 62.6117 159.005 61.4644 159.1C60.0605 159.216 58.5533 159.239 57.7973 159.139Z" fill="#5382A1"/>
<path d="M58.4782 160.535C57.4797 160.434 58.1335 159.958 58.1335 159.958C55.5497 160.801 59.571 161.758 63.1814 160.719C62.7976 160.586 62.5536 160.343 62.5536 160.343C60.7891 160.677 59.7694 160.666 58.4782 160.535Z" fill="#5382A1"/>
<path d="M58.9132 162.047C57.9155 161.934 58.4984 161.601 58.4984 161.601C56.153 162.245 59.925 163.576 62.9111 162.318C62.422 162.131 62.0718 161.915 62.0718 161.915C60.7398 162.163 60.122 162.182 58.9132 162.047Z" fill="#5382A1"/>
<path d="M65.1588 162.815C65.1588 162.815 65.5901 163.165 64.6837 163.435C62.96 163.949 57.5098 164.104 55.9958 163.456C55.4515 163.223 56.4721 162.9 56.7932 162.832C57.128 162.761 57.3194 162.774 57.3194 162.774C56.7141 162.355 53.4071 163.597 55.6396 163.953C61.7279 164.924 66.738 163.516 65.1588 162.815Z" fill="#5382A1"/>
<path d="M66.1251 163.579C66.0252 164.857 61.8068 165.126 59.0598 164.953C57.2677 164.84 56.9086 164.558 56.9033 164.554C58.6185 164.832 61.5102 164.882 63.8548 164.448C65.933 164.064 66.1251 163.579 66.1251 163.579Z" fill="#5382A1"/>
<path fill-rule="evenodd" clip-rule="evenodd" d="M41.1296 98.0723L41.9663 98.0769C41.9663 98.0769 40.4106 100.185 40.2836 100.357C40.2424 100.412 40.1797 100.472 40.1479 100.547C40.0676 100.734 39.9851 101.144 39.9851 101.144L39.2195 101.148C39.2195 101.148 39.3386 100.72 39.3337 100.492C39.3294 100.293 39.2278 100.095 39.1709 99.8953C39.1133 99.6933 39.0352 99.2982 39.0352 99.2982H39.8222L39.9308 99.7324L41.1296 98.0723Z" fill="#1A1918"/>
<path fill-rule="evenodd" clip-rule="evenodd" d="M39.545 98.5161C39.6994 98.6092 39.7941 99.1227 39.7941 99.1227C39.7941 99.1227 38.9862 99.1346 38.5465 99.1346H38.1665L37.7051 101.143H36.9995C36.9995 101.143 37.4386 98.9604 37.5423 98.5647C37.5759 98.4366 37.7725 98.4586 38.1044 98.4586H38.6344C38.9767 98.4586 39.3767 98.4149 39.545 98.5161Z" fill="#1A1918"/>
<path fill-rule="evenodd" clip-rule="evenodd" d="M36.2598 99.4948C36.2598 99.4948 36.2818 99.3658 36.1852 99.2166C36.1027 99.0893 36.0264 99.0597 35.8093 99.0529C35.1962 99.0337 35.2081 99.488 35.2081 99.488L36.2598 99.4948ZM36.9248 98.9745C37.0146 99.2986 36.8433 100.06 36.8433 100.06C36.8433 100.06 35.949 100.045 35.4592 100.06C35.3069 100.065 35.1246 100.044 35.0792 100.114C35.0154 100.214 35.1025 100.367 35.1764 100.431C35.2613 100.505 35.4269 100.514 35.4863 100.521C35.8839 100.572 36.7161 100.535 36.7161 100.535L36.5719 101.173C36.5719 101.173 35.396 101.232 34.8078 101.091C34.6917 101.064 34.5828 101.008 34.5093 100.929C34.4892 100.907 34.4718 100.877 34.4528 100.852C34.4376 100.831 34.3934 100.764 34.3736 100.711C34.2392 100.353 34.3893 99.6676 34.5364 99.3002C34.5535 99.2576 34.5749 99.2036 34.5975 99.1577C34.6257 99.1004 34.6496 99.0358 34.6721 99.0016C34.6873 98.978 34.7061 98.9628 34.7218 98.9406C34.74 98.9142 34.7611 98.8887 34.7807 98.866C34.8349 98.803 34.8966 98.7584 34.9707 98.7031C35.2157 98.5196 35.6592 98.3771 36.192 98.4317C36.3925 98.4523 36.6954 98.524 36.8433 98.7302C36.883 98.7853 36.9025 98.8947 36.9248 98.9745Z" fill="#1A1918"/>
<path fill-rule="evenodd" clip-rule="evenodd" d="M33.6883 98.4562L34.3725 98.4521C34.3725 98.4521 33.9912 100.261 33.7969 101.143H33.0098C32.4597 101.143 31.9698 101.211 31.7614 100.817C31.5592 100.435 31.7521 99.8062 31.8428 99.379C31.9069 99.0766 32.0418 98.4587 32.0418 98.4587L32.7506 98.4521C32.7506 98.4521 32.5503 99.4143 32.467 99.8946C32.4372 100.067 32.3756 100.229 32.4399 100.356C32.501 100.477 32.5864 100.486 32.847 100.492C32.9295 100.494 33.1998 100.492 33.1998 100.492L33.6883 98.4562Z" fill="#1A1918"/>
<path fill-rule="evenodd" clip-rule="evenodd" d="M30.4859 99.7593C30.5576 99.5047 30.662 99.2287 30.6487 98.9994C30.6344 98.754 30.4287 98.5307 30.296 98.4837C29.8962 98.3426 29.5219 98.5399 29.3732 98.7008C29.1807 98.9093 29.1156 99.1527 29.0475 99.4879C28.9968 99.7368 28.9552 99.9995 29.0475 100.194C29.2109 100.537 29.7203 100.462 30.2688 100.465C30.3502 100.247 30.4175 100.002 30.4859 99.7593ZM31.4358 98.7551C31.514 99.3234 31.2141 99.9507 31.0076 100.496C31.2182 100.515 31.4027 100.493 31.416 100.509C31.4299 100.529 31.2749 101.16 31.2209 101.162C31.0537 101.166 30.4998 101.171 30.2688 101.171C29.5151 101.171 28.81 101.22 28.4504 100.845C28.3044 100.693 28.2035 100.432 28.179 100.248C28.1383 99.9411 28.1893 99.6035 28.2604 99.3251C28.3248 99.0737 28.4073 98.8365 28.5319 98.6194C28.8486 98.0666 29.3995 97.6562 30.3231 97.7509C30.5022 97.7694 30.7595 97.8478 30.9202 97.9409C30.9313 97.9475 30.9701 97.9784 30.9791 97.9838C31.1962 98.122 31.394 98.4517 31.4358 98.7551Z" fill="#1A1918"/>
<path fill-rule="evenodd" clip-rule="evenodd" d="M28.1013 98.4603C28.0557 98.6679 28.0101 98.9032 27.9621 99.1084H27.2021C27.261 98.881 27.3061 98.6549 27.365 98.457C27.6082 98.457 27.8343 98.4603 28.1013 98.4603Z" fill="#1A1918"/>
<path fill-rule="evenodd" clip-rule="evenodd" d="M27.1749 99.2979H27.9077C27.8119 99.8282 27.6222 100.684 27.4734 101.279C27.3803 101.652 27.3182 101.924 27.0663 102.12C27.0438 102.138 27.0308 102.13 27.0121 102.148C26.9656 102.192 26.751 102.243 26.6321 102.256C26.4388 102.277 26.2204 102.259 25.9829 102.254C26.0451 102.027 26.1154 101.754 26.1707 101.55C26.7496 101.621 26.7643 101.073 26.8764 100.546C26.9412 100.242 27.1377 99.42 27.1749 99.2979Z" fill="#1A1918"/>
<path fill-rule="evenodd" clip-rule="evenodd" d="M25.4649 100.683L25.4492 100.724C25.1816 101.245 24.7075 101.564 24.0312 101.578C23.715 101.585 23.4137 101.504 23.2169 101.416C22.7922 101.225 22.435 100.871 22.2399 100.493C21.9601 99.9509 21.9096 99.1969 22.4915 98.6338C22.5005 98.6338 22.4209 98.7559 22.4299 98.7559L22.4139 98.808C21.9946 100.121 23.2864 101.246 24.5422 101.117C24.844 101.086 25.2289 100.921 25.4649 100.683Z" fill="#21609B"/>
<path fill-rule="evenodd" clip-rule="evenodd" d="M24.7049 100.14C25.0208 100.142 25.3508 99.9944 25.5462 99.7871C25.3753 100.221 24.8803 100.5 24.2164 100.411C23.6606 100.337 23.1311 99.7776 23.0765 99.2171C23.0366 98.8092 23.1788 98.5658 23.4131 98.2705C23.3316 98.425 23.3012 98.5441 23.2936 98.62C23.2046 99.5024 23.9985 100.135 24.7049 100.14Z" fill="#21609B"/>
<path fill-rule="evenodd" clip-rule="evenodd" d="M25.5147 99.0438C25.4655 99.1564 25.1827 99.3692 25.0579 99.3958C24.5634 99.5011 24.2467 99.2666 24.0808 98.9998C24.0562 98.9599 24.0106 98.8511 24.0024 98.8234C23.9381 98.6046 23.9676 98.2738 24.1596 98.1025C24.1017 98.2654 24.0933 98.4545 24.1237 98.5775C24.1422 98.6518 24.1983 98.7816 24.2545 98.8633C24.3568 99.012 24.4217 99.0481 24.5531 99.1271C24.6122 99.1627 24.6757 99.1912 24.7032 99.199C24.8277 99.2356 25.0907 99.3323 25.5147 99.0438Z" fill="#21609B"/>
</g>
<defs>
<filter id="filter0_d_183_476" x="0" y="0" width="208" height="208" filterUnits="userSpaceOnUse" color-interpolation-filters="sRGB">
<feFlood flood-opacity="0" result="BackgroundImageFix"/>
<feColorMatrix in="SourceAlpha" type="matrix" values="0 0 0 0 0 0 0 0 0 0 0 0 0 0 0 0 0 0 127 0" result="hardAlpha"/>
<feOffset dy="4"/>
<feGaussianBlur stdDeviation="2"/>
<feComposite in2="hardAlpha" operator="out"/>
<feColorMatrix type="matrix" values="0 0 0 0 0 0 0 0 0 0 0 0 0 0 0 0 0 0 0.25 0"/>
<feBlend mode="normal" in2="BackgroundImageFix" result="effect1_dropShadow_183_476"/>
<feBlend mode="normal" in="SourceGraphic" in2="effect1_dropShadow_183_476" result="shape"/>
</filter>
<radialGradient id="paint0_radial_183_476" cx="0" cy="0" r="1" gradientUnits="userSpaceOnUse" gradientTransform="translate(150.004 153.576) scale(13.1324)">
<stop stop-color="white"/>
<stop offset="0.5" stop-color="#4C6B97"/>
<stop offset="1" stop-color="#231F20"/>
</radialGradient>
<clipPath id="clip0_183_476">
<rect x="147" y="35" width="14" height="14" rx="2" fill="white"/>
</clipPath>
<clipPath id="clip1_183_476">
<rect width="15" height="15" fill="white" transform="translate(168 92)"/>
</clipPath>
</defs>
</svg>
