<svg width="257" height="67" viewBox="0 0 257 67" fill="none" xmlns="http://www.w3.org/2000/svg">
<rect width="257" height="67" rx="8" fill="#BD76F6"/>
<path d="M73.7216 42V24.5455H76.8835V39.3494H84.571V42H73.7216ZM92.8892 42.2557C91.6108 42.2557 90.5028 41.9744 89.5653 41.4119C88.6278 40.8494 87.9006 40.0625 87.3835 39.0511C86.8722 38.0398 86.6165 36.858 86.6165 35.5057C86.6165 34.1534 86.8722 32.9687 87.3835 31.9517C87.9006 30.9347 88.6278 30.1449 89.5653 29.5824C90.5028 29.0199 91.6108 28.7386 92.8892 28.7386C94.1676 28.7386 95.2756 29.0199 96.2131 29.5824C97.1506 30.1449 97.875 30.9347 98.3864 31.9517C98.9034 32.9687 99.1619 34.1534 99.1619 35.5057C99.1619 36.858 98.9034 38.0398 98.3864 39.0511C97.875 40.0625 97.1506 40.8494 96.2131 41.4119C95.2756 41.9744 94.1676 42.2557 92.8892 42.2557ZM92.9062 39.7841C93.5994 39.7841 94.179 39.5937 94.6449 39.2131C95.1108 38.8267 95.4574 38.3097 95.6847 37.6619C95.9176 37.0142 96.0341 36.2926 96.0341 35.4972C96.0341 34.696 95.9176 33.9716 95.6847 33.3239C95.4574 32.6705 95.1108 32.1506 94.6449 31.7642C94.179 31.3778 93.5994 31.1847 92.9062 31.1847C92.196 31.1847 91.6051 31.3778 91.1335 31.7642C90.6676 32.1506 90.3182 32.6705 90.0852 33.3239C89.858 33.9716 89.7443 34.696 89.7443 35.4972C89.7443 36.2926 89.858 37.0142 90.0852 37.6619C90.3182 38.3097 90.6676 38.8267 91.1335 39.2131C91.6051 39.5937 92.196 39.7841 92.9062 39.7841ZM107.474 47.1818C106.366 47.1818 105.414 47.0313 104.619 46.7301C103.823 46.4347 103.184 46.0369 102.701 45.5369C102.218 45.0369 101.883 44.483 101.695 43.875L104.474 43.2017C104.599 43.4574 104.781 43.7102 105.019 43.9602C105.258 44.2159 105.579 44.4261 105.982 44.5909C106.391 44.7614 106.906 44.8466 107.525 44.8466C108.4 44.8466 109.124 44.6335 109.698 44.2074C110.272 43.7869 110.559 43.0938 110.559 42.1278V39.6477H110.406C110.246 39.9659 110.013 40.2926 109.707 40.6278C109.406 40.9631 109.005 41.2443 108.505 41.4716C108.011 41.6989 107.388 41.8125 106.638 41.8125C105.633 41.8125 104.721 41.5767 103.903 41.1051C103.09 40.6278 102.442 39.9176 101.96 38.9744C101.482 38.0256 101.244 36.8381 101.244 35.4119C101.244 33.9744 101.482 32.7614 101.96 31.7727C102.442 30.7784 103.093 30.0256 103.911 29.5142C104.729 28.9972 105.641 28.7386 106.647 28.7386C107.414 28.7386 108.045 28.8693 108.539 29.1307C109.039 29.3864 109.437 29.696 109.732 30.0597C110.028 30.4176 110.252 30.7557 110.406 31.0739H110.576V28.9091H113.619V42.2131C113.619 43.3324 113.352 44.2585 112.817 44.9915C112.283 45.7244 111.553 46.2727 110.627 46.6364C109.701 47 108.65 47.1818 107.474 47.1818ZM107.499 39.392C108.153 39.392 108.71 39.233 109.17 38.9148C109.63 38.5966 109.979 38.1392 110.218 37.5426C110.457 36.946 110.576 36.2301 110.576 35.3949C110.576 34.571 110.457 33.8494 110.218 33.2301C109.985 32.6108 109.638 32.1307 109.178 31.7898C108.724 31.4432 108.164 31.2699 107.499 31.2699C106.812 31.2699 106.238 31.4489 105.778 31.8068C105.317 32.1648 104.971 32.6562 104.738 33.2812C104.505 33.9006 104.388 34.6051 104.388 35.3949C104.388 36.196 104.505 36.8977 104.738 37.5C104.977 38.0966 105.326 38.5625 105.786 38.8977C106.252 39.2273 106.823 39.392 107.499 39.392ZM122.491 42.2557C121.212 42.2557 120.104 41.9744 119.167 41.4119C118.229 40.8494 117.502 40.0625 116.985 39.0511C116.474 38.0398 116.218 36.858 116.218 35.5057C116.218 34.1534 116.474 32.9687 116.985 31.9517C117.502 30.9347 118.229 30.1449 119.167 29.5824C120.104 29.0199 121.212 28.7386 122.491 28.7386C123.769 28.7386 124.877 29.0199 125.815 29.5824C126.752 30.1449 127.477 30.9347 127.988 31.9517C128.505 32.9687 128.763 34.1534 128.763 35.5057C128.763 36.858 128.505 38.0398 127.988 39.0511C127.477 40.0625 126.752 40.8494 125.815 41.4119C124.877 41.9744 123.769 42.2557 122.491 42.2557ZM122.508 39.7841C123.201 39.7841 123.781 39.5937 124.246 39.2131C124.712 38.8267 125.059 38.3097 125.286 37.6619C125.519 37.0142 125.636 36.2926 125.636 35.4972C125.636 34.696 125.519 33.9716 125.286 33.3239C125.059 32.6705 124.712 32.1506 124.246 31.7642C123.781 31.3778 123.201 31.1847 122.508 31.1847C121.798 31.1847 121.207 31.3778 120.735 31.7642C120.269 32.1506 119.92 32.6705 119.687 33.3239C119.46 33.9716 119.346 34.696 119.346 35.4972C119.346 36.2926 119.46 37.0142 119.687 37.6619C119.92 38.3097 120.269 38.8267 120.735 39.2131C121.207 39.5937 121.798 39.7841 122.508 39.7841ZM139.726 36.4943V28.9091H142.811V42H139.82V39.6733H139.683C139.388 40.4062 138.902 41.0057 138.226 41.4716C137.555 41.9375 136.729 42.1705 135.746 42.1705C134.888 42.1705 134.129 41.9801 133.47 41.5994C132.817 41.2131 132.305 40.6534 131.936 39.9205C131.567 39.1818 131.382 38.2898 131.382 37.2443V28.9091H134.467V36.767C134.467 37.5966 134.695 38.2557 135.149 38.7443C135.604 39.233 136.2 39.4773 136.939 39.4773C137.393 39.4773 137.834 39.3665 138.26 39.1449C138.686 38.9233 139.036 38.5938 139.308 38.1562C139.587 37.7131 139.726 37.1591 139.726 36.4943ZM152.521 28.9091V31.2955H144.995V28.9091H152.521ZM146.853 25.7727H149.938V38.0625C149.938 38.4773 150.001 38.7955 150.126 39.017C150.256 39.233 150.427 39.3807 150.637 39.4602C150.847 39.5398 151.08 39.5795 151.336 39.5795C151.529 39.5795 151.705 39.5653 151.864 39.5369C152.029 39.5085 152.154 39.483 152.239 39.4602L152.759 41.8722C152.594 41.929 152.359 41.9915 152.052 42.0597C151.751 42.1278 151.381 42.1676 150.944 42.179C150.171 42.2017 149.475 42.0852 148.856 41.8295C148.237 41.5682 147.745 41.1648 147.381 40.6193C147.023 40.0739 146.847 39.392 146.853 38.5739V25.7727Z" fill="white"/>
<path d="M167 43C166.45 43 165.979 42.8042 165.588 42.4125C165.196 42.0208 165 41.55 165 41V27C165 26.45 165.196 25.9792 165.588 25.5875C165.979 25.1958 166.45 25 167 25H174V27H167V41H174V43H167ZM178 39L176.625 37.55L179.175 35H171V33H179.175L176.625 30.45L178 29L183 34L178 39Z" fill="#E8EAED"/>
</svg>
